<svg xmlns="http://www.w3.org/2000/svg" id="ford-logo" viewBox="-37 200 520 210">
  <style>
    .st0{fill:#000;}
  </style>
  <g id="b1ZvCI_1_">
    <path class="st0" d="M231.5 197.2c18.5 1.3 39.2 2.2 59.8 4.4 38.5 4.1 76.2 12 112.2 26.8 19.6 8 38.2 17.9 53.5 32.9 8.4 8.2 15.1 17.5 18.3 28.9 3.8 13.7 1.6 26.5-5.4 38.7-7.5 13.1-18.6 22.7-31.1 30.8-32 20.7-67.7 31.3-104.6 38.6-44 8.7-88.4 11.6-133.1 10-40.6-1.4-80.6-6.6-119.8-17.3-25.4-7-50-16.2-72.3-30.6-12.9-8.4-24.6-18.1-32.3-31.8-9.5-16.9-9.5-33.8 0-50.8 6.3-11.2 15.4-19.9 25.7-27.3 29-20.7 62.2-31.5 96.5-39.5 27.8-6.6 56.1-10.3 84.6-12 15.3-.8 30.6-1.1 48-1.8zm-10.9 199.1c50.3-.8 86.9-4.6 123-12.7 27.4-6.2 54.1-14.5 78.7-28.4 14.3-8.1 27.7-17.4 36.6-31.6 5.8-9.3 8-19.3 4.8-30.1-3.9-13.2-13-22.6-23.6-30.7-19.1-14.7-40.9-23.9-63.6-31.1-44.5-14.1-90.3-19.9-136.8-21.3-30-.9-60 .6-89.8 4.4-39.1 4.9-77.4 13.4-113.3 30.1-14.9 6.9-28.8 15.3-40.3 27.2-18 18.6-20 39.8-2 59.8 13.4 15 30.6 24.4 48.6 32.3 26.2 11.6 53.8 18.7 82 23.6 35.9 6.4 72.3 8.9 95.7 8.5z"/>
    <path class="st0" d="M219.2 223.2c35.2.2 70.1 2.6 104.7 8.6 32.1 5.5 63.8 13 92.5 29.2 8.3 4.7 16.4 10.5 23.2 17.2 17.6 17.4 14.7 36.6-1 52-10.8 10.5-23.6 17.5-37.2 23.4-24 10.4-49.1 16.7-74.8 21.2-44 7.7-88.3 9.7-132.9 7.8-36.3-1.6-72.2-6-107.4-15.2-23-6-45.5-13.7-65.5-27-9.2-6.1-17.3-13.2-22.2-23.3-5.4-11-4-21.6 2.6-31.6 7.9-12.1 19.6-19.6 32-26.1 22-11.5 45.6-18.7 69.9-23.4 17.9-3.4 36-6.7 54.1-8.6 20.6-2.3 41.4-2.9 62-4.2zM96.9 296.3l-.6-1.2c-1.8.3-3.7.2-5.3.9-14.1 6.4-22.4 17.4-24.6 32.8-2 14.7 16 34.7 38.1 26.8 8.6-3.1 16-8.2 22.8-14.2 11.7-10.2 20.8-22.5 29-35.6 2.1-3.3 4.2-8.2 7.2-9.1 6.4-1.8 13.5-2.4 20-1.5 8.1 1.1 13.3-3.2 11.5-11.5-.6-2.9-1.9-5.4-5.2-5.7-3.6-.4-6.6.8-8.4 4.1-.5.9-.6 2-1.1 3-.4.7-1 1.8-1.6 1.8-3.1.2-6.1.1-9.6.1 1.1-1.4 1.8-2.5 2.7-3.4 8.6-8.6 17.3-17.1 25.8-25.8 4.8-4.9 9.8-7.2 16.5-4 .8.4 1.8.4 2.7.7 17.2 4.7 34.5 8.8 52.5 8.6 7.9-.1 15.6-.5 23-3.8 9.3-4.2 15.4-13.8 14-22.6-4 .8-7.9 1.7-11.9 2.5-16.5 3.3-33.1 5.6-49.8 3.9-18.7-2-37.3-5.2-55.9-7.7-20.6-2.7-41-2.6-61.3 2.6-14.3 3.7-23.4 12.3-26.8 26.9-4.2 18.6 6.9 32.8 24.9 31.6 14.5-.9 26.5-14.9 19.6-32-.4-1-1.4-1.7-2.1-2.6-.5.9-.9 1.9-1.4 2.8-2.7 5-5.1 10.1-8.1 14.9-2.5 4-7.1 2-10.7 2.5-5.1.7-6.2-.2-7.2-5.3-2-10.7 3.8-22.8 14.2-26.1 8.6-2.7 17.8-4 26.9-4.8 13.2-1.1 26.3 1 39.5 3.9-.5.6-.7 1-1 1.2-13.1 8.5-24.6 18.9-34.8 30.7-4.4 5.1-8.9 8.8-16.1 7.7-.8-.1-2.4.7-2.7 1.5-1.4 3.3.2 6.3 3.8 7.4-3.6 4.2-7.1 8.3-10.6 12.4-9.2 10.7-19.6 19.7-33 24.9-11.1 4.3-21.2-3.4-19.6-15 1.1-7.9 4.7-14.6 10.5-20 1.3-1.6 2.7-3 4.2-4.3zm224.2 49.2c.1.6.3 2 .4 3.4.5 5.9 4.5 9.2 10.3 8.2 2.3-.4 4.9-1.1 6.6-2.6 8-7.3 15.8-14.8 23.6-22.4.8-.7.5-2.5.8-3.8-1.3.3-3 .3-3.9 1.1-3.3 3.1-6.1 6.7-9.4 9.6-4.7 4.2-9.7 8.1-14.8 12-.6.5-1.9.2-2.9.2-.1-1-.4-2.1-.1-2.9 1.8-4.5 3.3-9.3 5.8-13.5 12.1-20.6 24.5-41 36.7-61.4 2.3-3.8 4.3-7.7 7-12.5-4.7.3-8.3.3-11.7.8-1.4.2-3.1 1.4-3.9 2.6-3.8 6.1-7.3 12.3-10.9 18.5-5.2 8.7-10.4 17.4-15.9 26.7-.9-4.8-3.4-7.4-7.2-7.9-3.9-.4-8-.7-11.7.3-14.2 3.8-24 14-33.8 24.2-3.2 3.3-6.6 6.5-10.2 9.3-3.4 2.5-7 .4-7-3.8 0-5.8 2.9-9.8 7.5-13.2 4.3-3.1 8.2-6.7 12-10.4 1-1 1.6-3.6 1-4.9-.5-1.2-2.8-2.1-4.4-2.3-7.9-.6-11.8 4.9-14.3 11-2.4 5.9-6.9 9.6-12.2 14.3 1.5-3.1 2.7-5.2 3.4-7.4.7-2.3.8-4.7 1-7.1.6-9.5-4.5-13.2-13.5-9.9-1.5.5-3.1 1.1-4.2 2.2-8.1 8.2-16.1 16.4-24 24.8-4.5 4.8-9.2 8.9-17.1 8.9 1.3-2.1 2.4-3.6 3.3-5.2 3.4-5.8 6.1-11.8 5.9-18.7-.3-8.1-6.1-14-14-13.6-3.7.2-7.6 1.2-11.1 2.7-12.4 5.4-21.6 14.7-29.6 25.3-2.2 3-1.6 4.1 2 4.5.3 3.9.6 7.7 1.1 11.5 1.3 10.5 8.3 14.9 18.4 12.1 7.4-2 12.6-7.1 18.1-11.9 1.1-1 2.7-2.1 4-2.1 11.9.3 19.4-6.6 26.6-15 5.9-7 12.7-13.1 19.5-19.3 1.5-1.4 4.5-1.2 6.8-1.7-.6 2-.9 4.3-2 6.1-4.9 7.6-10 15-15 22.5l-13.8 20.7c5.9.3 10.7.1 15.5-1.4.3-.1.5-.6.8-.9 2.9-3.4 5.8-6.9 8.8-10.3 4.7-5.3 9.4-10.6 14.6-16.5 0 3.7-.4 6.2.1 8.4 1.3 5.4 8 7.6 14.1 4.5 3.2-1.6 6.2-3.9 8.3-5.3.9 5 1.5 10.5 3.1 15.7 2 6.3 8.2 9.2 14.1 6.4 5.7-2.7 11.3-6.9 17.4-10.6z"/>
    <path class="st0" d="M187.6 283.5c3.2.5 3.8 2.6 3.2 4.7-.3 1.1-2 1.9-3.1 2.8-.4-.3-.7-.5-1.1-.8.4-2.1.7-4.3 1-6.7zM206 314.7c-.3 8.2-3.9 16-9.7 22.3-4.8 5.2-10.3 9.9-16.3 13.7-6 3.8-9.5 1.1-9-6.1.6-7.8 3.7-14.7 8-20.9 3.2-4.7 6.9-9 10.6-13.3 1.3-1.5 3-2.6 4.7-3.6 7-3.8 11.8-.8 11.7 7.9zM296.9 345.3c1.6-8.1 5.1-16.5 10.5-24 4.2-5.9 8.7-11.7 15.9-14.6 2.9-1.2 6.1-1.8 8.1.7 1.3 1.6 1.8 4.7 1.2 6.8-4.1 15.3-13.7 26.6-26.3 35.7-.8.6-1.9.9-2.9 1.2-4.5 1.6-6.6 0-6.5-5.8z"/>
  </g>
</svg>
