<svg xmlns="http://www.w3.org/2000/svg" width="238" height="87" viewBox="0 0 238 87">
  <path d="M0 83.692h2.704V3.317H0v80.375z" fill="#231f20"/>
  <path d="M36.886 10.523c-.25.485-.47.766-.435 1.136.034.373.426.632.61 1.013.168-.435.448-.766.416-1.104-.036-.346-.51-.803-.59-1.047M43.362 10.523c.248.485.47.766.435 1.136-.036.373-.424.632-.607 1.013-.17-.435-.45-.766-.417-1.104.035-.346.503-.803.59-1.047M33.16 10.242c.238 0 .44-.198.44-.435 0-.245-.202-.443-.44-.443-.24 0-.438.198-.438.443 0 .237.197.435.438.435M33.452 10.867c0-.237-.198-.435-.44-.435-.24 0-.434.198-.434.435 0 .244.194.442.435.442.24 0 .44-.2.44-.443M33.666 11.927c0-.237-.2-.435-.44-.435s-.434.198-.434.435c0 .238.194.436.435.436.238 0 .44-.198.44-.436M35.58 8.156c.24 0 .44-.198.44-.435 0-.244-.2-.434-.44-.434-.237 0-.435.19-.435.435 0 .238.198.436.435.436M34.495 8.493c.237 0 .44-.198.44-.443 0-.237-.203-.435-.44-.435-.24 0-.44.198-.44.435 0 .245.2.443.44.443M33.638 9.238c.24 0 .44-.19.44-.436 0-.24-.2-.435-.44-.435-.237 0-.44.194-.44.435 0 .245.203.436.44.436M36.725 8.26c.237 0 .435-.197.435-.44 0-.235-.198-.436-.435-.436-.24 0-.44.2-.44.435 0 .243.2.44.44.44M37.81 8.577c.237 0 .435-.198.435-.442 0-.237-.198-.435-.435-.435-.245 0-.44.198-.44.435 0 .244.195.442.44.442M38.828 9.055c.24 0 .44-.198.44-.442 0-.238-.2-.436-.44-.436-.237 0-.438.198-.438.436 0 .244.2.442.438.442M46.635 9.806c0 .238.198.436.44.436.24 0 .434-.198.434-.436 0-.244-.195-.442-.436-.442-.24 0-.44.198-.44.442M47.218 10.43c-.237 0-.44.192-.44.437 0 .244.203.442.44.442.24 0 .44-.2.44-.443 0-.245-.2-.436-.44-.436M47.004 11.492c-.237 0-.435.198-.435.435 0 .245.197.435.434.435.24 0 .44-.19.44-.435 0-.237-.2-.435-.44-.435M44.65 8.156c.242 0 .44-.198.44-.435 0-.244-.198-.434-.44-.434-.236 0-.438.19-.438.435 0 .238.202.436.44.436M45.74 8.493c.24 0 .438-.198.438-.443 0-.237-.197-.435-.438-.435-.24 0-.44.198-.44.435 0 .245.2.443.44.443M46.597 9.238c.237 0 .438-.19.438-.436 0-.24-.2-.435-.438-.435-.24 0-.44.194-.44.435 0 .245.2.436.44.436M43.51 8.26c.244 0 .438-.197.438-.44 0-.235-.194-.436-.438-.436-.24 0-.44.2-.44.435 0 .243.2.44.44.44M42.424 8.577c.245 0 .44-.198.44-.442 0-.237-.195-.435-.44-.435-.237 0-.438.198-.438.435 0 .244.2.442.438.442M40.967 8.612c0 .245.194.442.435.442.245 0 .44-.197.44-.442 0-.237-.195-.435-.44-.435-.24 0-.435.198-.435.435M39.37 10.986h.492V9.113c-.176-.03-.342-.08-.493-.155v2.028zM40.865 8.956c-.15.072-.316.126-.493.155v1.875h.493v-2.03zM39.836 6.89V5.774c-.55.122-.978.557-1.075 1.118h1.076zM40.405 6.89h1.068c-.093-.552-.525-.995-1.068-1.117V6.89zM38.776 7.425c.136.62.683 1.076 1.34 1.076.66 0 1.206-.456 1.346-1.075h-2.686zM40.87 5.606c-.314-.244-.55-.597-.598-.974.36.068.76.32.992.63V3.757c-.233.31-.633.57-.992.633.043-.363.266-.7.572-1.082H39.39c.306.38.53.72.57 1.083-.357-.06-.76-.323-.99-.632V5.26c.23-.308.633-.56.99-.628-.048.377-.282.73-.598.974h1.507zM42.48 35.66c-1.376-.345-3.016-.934-4.552-1.628l.004-.022c.046-.31-.072-.662-.313-.928-.235-.273-.55-.428-.868-.428-.14 0-.28.036-.417.083-.223-.194-.43-.414-.633-.65-.58-.677-1.032-1.468-1.348-2.346-.187-.506-.32-1.027-.4-1.56-.075.443-.575 1.033-1.438 1.047.01-.09.004-.316-.072-.338-.227.247-.568.52-1.35.247.124.608.293 1.205.508 1.784.464 1.25 1.13 2.367 1.975 3.32.284.317.58.612.884.888-.002.054-.01.12-.01.173 0 .325.314.84.763 1.055.367.176.76.133 1.122-.126.665.358 1.52.69 2.438.948 1.032.28 2.028.443 2.81.443.67 0 1.556-.316 2.433-.863.346-.226.677-.47.92-.704.033-.026.066-.054.095-.09-.68.097-1.71-.09-2.55-.302m-5.04-2.07l-.148-.105c-.27-.205-.49-.205-.73.004-.115.1-.22.21-.317.33l-.15.168.1.087c.284.223.323.467.24.615-.028.057-.075.093-.143.115-.137.032-.335-.015-.54-.133l-.107-.065-.065.104c-.015.03-.033.052-.054.08-.022.036-.047.07-.072.112-.12.212-.176.374-.176.507 0 .03.003.067.014.096.04.155.166.23.273.288l.07.043c.125.083.304.19.438.26-.256.14-.504.153-.752.035-.377-.19-.618-.62-.618-.83 0-.328.148-.745.414-1.166l.043-.06-.04-.073c-.083-.126-.144-.252-.198-.37.144.017.287.04.428.075l.072.014.05-.05c.162-.183.744-.766 1.28-.766.245 0 .493.13.68.338.14.162.226.352.252.53-.076-.052-.162-.124-.245-.185m.887 2.617c-.323 0-.586-.266-.586-.59 0-.323.264-.59.587-.59.328 0 .59.267.59.59 0 .324-.262.59-.59.59m2.58.802c-.296 0-.533-.245-.533-.54 0-.295.237-.543.532-.543.302 0 .543.248.543.543 0 .295-.242.54-.544.54M41.62 39.728c-.1 0-.19.014-.277.043v-1.65c-.72-.03-1.564-.14-2.41-.367v2.025c-.085-.036-.186-.05-.29-.05-.58 0-.94.485-.94.942 0 .413.253.805.47 1.06.106-.262.207-.463.347-.463.288 0 .16 1.424.997 1.46-.026.072-.044.147-.044.23 0 .36.295.654.66.654.362 0 .653-.293.653-.653 0-.083-.014-.158-.04-.23.838-.036.698-1.46.986-1.46.144 0 .234.187.36.464.215-.255.467-.647.467-1.06 0-.457-.36-.942-.94-.942m-1.488 3.596c-.202 0-.367-.17-.367-.367 0-.2.165-.363.367-.363.204 0 .366.162.366.363 0 .198-.162.367-.366.367m1.963-2.08c-.1-.182-.245-.287-.37-.287-.56 0-.342 1.482-1.015 1.482-.29 0-.45-.192-.45-.393 0-.212.148-.277.148-.446 0-.164-.13-.23-.276-.23-.144 0-.277.066-.277.23 0 .17.147.235.147.447 0 .2-.158.392-.45.392-.672 0-.45-1.483-1.014-1.483-.122 0-.27.105-.366.288-.115-.212-.177-.42-.177-.575 0-.274.21-.655.648-.655.75 0 .575 1.025.935 1.025.162 0 .277-.097.277-.252 0-.294-.522-.56-.522-.985 0-.42.38-.77.8-1.108.416.34.797.687.797 1.108 0 .424-.522.69-.522.985 0 .155.115.252.277.252.36 0 .184-1.025.935-1.025.44 0 .648.38.648.655 0 .154-.065.363-.173.575" fill="#231f20"/>
  <path d="M60.97 41.708c-.03-.082-.125-.133-.215-.104-1.93.56-4.326-1.032-6.638-2.578-1.95-1.3-3.79-2.53-5.366-2.53-.585 0-1.103.127-1.55.365-.55.31-.963.788-1.225 1.428-.266.648-.543 1.09-.77 1.446-.266.42-.467.723-.467 1.11 0 .31.136.59.406.857.223.228.547.443 1.01.688.1.058.202.108.3.147.377.19.618.317.66.536-.758.332-1.747.613-2.87.81-1.265.223-2.656.335-4.116.335-1.468 0-2.856-.112-4.118-.335-1.126-.197-2.115-.478-2.88-.816.032-.316.27-.45.686-.647.1-.047.198-.09.302-.148.382-.202.745-.4.99-.626.273-.238.398-.49.398-.8 0-.387-.194-.69-.46-1.11-.223-.356-.507-.798-.77-1.446-.262-.64-.675-1.118-1.23-1.42-.445-.237-.963-.363-1.542-.363-1.58 0-3.424 1.222-5.373 2.52-2.307 1.547-4.702 3.14-6.634 2.58-.093-.023-.183.02-.22.11-.028.083.015.184.102.22.586.26 1.104.665 1.604 1.05.69.543 1.352 1.054 2.075 1.054.683 0 1.424-.217 2.32-.68.772-.407 1.58-.958 2.362-1.49 1.524-1.04 3.1-2.114 4.595-2.233-.16.155-.31.295-.453.42-.443.393-.824.738-.824 1.425 0 .55.183.935.446 1.478.075.154.162.327.252.532.165.367.233.67.334 1.075.04.176.094.37.155.604.093.36.273 1.026 1.37 1.58 1.27.647 3.456.978 6.513.978 3.045 0 5.24-.33 6.51-.978 1.092-.554 1.272-1.22 1.37-1.58.06-.232.11-.427.15-.603.1-.406.17-.708.334-1.075.122-.273.245-.493.35-.687.222-.428.41-.766.41-1.26 0-.693-.404-1.052-.868-1.473-.147-.133-.305-.273-.467-.442 1.5.118 3.07 1.194 4.596 2.24.78.525 1.59 1.083 2.362 1.482.9.47 1.637.687 2.32.687.72 0 1.38-.512 2.075-1.06.503-.38 1.02-.786 1.604-1.045.086-.036.13-.144.097-.227M49.378 26.263c-.216-.155-.56-.478-.74-.863-.235-.47-1.188-2.36-1.34-2.607-.12-.21-.186-.4-.186-.56 0-.2.097-.36.205-.5.076-.098.284-.303.356-.422.065-.096.12-.168.177-.222-.35-.604-.71-1.06-1.166-1.575-.564-.633-1.19-1.173-1.873-1.622.37-.233.742-.582.742-1.157 0-.33-.14-.604-.385-.816.385-1.237 1.08-2.726 1.668-3.377l-1.24-.522c.32.486.345 1.06.27 1.392-.32-.22-.6-.528-.687-.935-.065.374-.27.982-.457 1.35.36-.17.645-.246 1.008-.098-.205.287-.745.715-1.557.525-.438-.112-.877-.346-.862-.687.01-.198.158-.443.438-.42.274.03.288.44.202.62.356-.2.72-1.232.17-1.387-.436-.126-.836.475-.98.93-.082-.552-.312-1.077-.75-1.052-.576.043-.386 1.097-.188 1.363.036-.372.234-.57.406-.555.15.014.353.12.32.457-.04.33-.517.54-1.064.54-.52 0-1.442-.163-1.532-1.173.342.063.877.315 1.104.66-.072-.61-.072-1.046 0-1.686-.28.406-.76.61-1.086.662.097-.436.467-.892.903-1.162H39c.427.27.805.726.898 1.162-.33-.058-.79-.263-1.068-.662.072.64.072 1.075 0 1.686.223-.338.74-.597 1.083-.66-.086 1.01-1.007 1.17-1.532 1.17-.542 0-1.02-.208-1.06-.538-.032-.338.17-.443.32-.457.17-.014.374.183.406.554.202-.267.385-1.32-.183-1.364-.442-.025-.672.5-.752 1.053-.142-.457-.545-1.058-.984-.932-.55.155-.18 1.187.17 1.388-.08-.18-.066-.59.204-.622.277-.022.428.223.44.42.017.342-.422.576-.864.688-.81.19-1.342-.238-1.554-.518.367-.162.662-.08 1.018.09-.183-.367-.388-.975-.457-1.35-.09.415-.37.724-.7.95-.073-.337-.06-.913.27-1.406l-1.238.522c.59.65 1.283 2.147 1.665 3.384-.234.22-.367.485-.367.81 0 .574.367.923.737 1.157-.683.45-1.305.99-1.874 1.623-.84.95-1.51 2.057-1.974 3.294.17.176.914.99 1.083 1.208.31.392.496.78.503 1.083.022.56.14.787.44 1.158.092.118.225.56.24.83h6.153v6.7c-.237.022-.496.083-.704.338.708.288 1.388.54 2.064.752.068-.44.155-.705.38-.98 0 0-.894-.088-1.376-.11v-6.7H46.4c-.025.917-.183 1.81-.49 2.654-.315.878-.776 1.673-1.347 2.345-.58.676-1.252 1.208-2.003 1.575-.12.06-.112.148-.234.202-.108.115-.216.31-.295.543-.075.2-.103.34-.14.61.285.084.436.134.706.195 2.114.53 2.636.374 2.754.28h.004c.475-.363.92-.783 1.33-1.247.846-.957 1.514-2.08 1.978-3.323.482-1.284.723-2.654.723-4.06 0-.26.01-.338-.007-.597m-9.357.464h-6.16c.01-.957.173-1.885.49-2.755.32-.877.773-1.672 1.348-2.345.58-.683 1.255-1.208 2-1.582.737-.363 1.52-.554 2.323-.568v7.25zm.112-10.264c-2.057 0-3.47.604-4.297 1.155-.47-.28-.676-.558-.676-.885 0-1.162 3.296-1.266 4.97-1.266h.002c1.672 0 4.974.104 4.974 1.266 0 .327-.21.604-.687.885-.825-.55-2.238-1.155-4.288-1.155m.252 10.264v-7.243c.755.036 1.49.22 2.176.56.75.375 1.424.9 2.003 1.583.57.673 1.032 1.468 1.348 2.345.318.87.48 1.798.494 2.755h-6.02z" fill="#231f20"/>
  <path d="M45.452 25.546c.1.065.072.23-.07.22-.128-1.09-.53-2.158-1.153-3.057.003-.008.01-.008.017-.015.11-.043.227-.14.255-.324-.187-.02-.32.073-.385.177-.046-.057-.09-.11-.133-.176-.384-.484-.827-.89-1.305-1.214-.46-.31-.947-.533-1.454-.666.007-.118.162-.133.227-.028.014-.198-.148-.288-.248-.252-.047.018-.094.06-.105.147-.06-.072-.147-.13-.273-.14-.007.126.032.216.083.288-.076 0-.13.032-.16.075-.045.094.016.266.214.28-.094-.068-.058-.215.064-.208v2.352c-.122-.036-.27-.022-.395.097.126.127.273.14.395.11v2.556c-.133.007-.16-.148-.06-.22-.195 0-.274.17-.234.26.028.064.09.107.194.093-.054.06-.094.154-.097.272.116 0 .202-.05.27-.104-.014.11.036.158.09.194.094.043.266-.036.266-.23-.072.097-.226.068-.226-.05h1.776c-.028.11-.018.26.105.388.123-.13.137-.277.105-.388h1.978c.01.118-.148.16-.22.064.004.187.184.266.266.216.064-.03.104-.083.093-.194.06.054.155.097.27.097-.004-.11-.05-.205-.108-.266.108.006.165-.037.19-.102.04-.09-.04-.26-.233-.252m-1.705-3.117c-.05.045-.072.117-.057.168.02.054.068.11.18.118-.065.058-.127.14-.14.252.114.014.208-.022.283-.06-.025.103.01.164.06.2.044.03.106.03.16 0 .456.737.773 1.583.902 2.446-.057-.043-.13-.065-.22-.065.004.128.05.218.123.283h-1.503c.01-.1-.04-.183-.104-.205-.057-.022-.132-.007-.2.068-.004-.082-.04-.172-.12-.26-.082.088-.115.178-.118.26-.065-.075-.144-.09-.2-.068-.066.022-.113.104-.106.205h-1.28c.054-.065.086-.15.09-.262-.112 0-.194.044-.26.1v-2.088c.098.014.192-.025.21-.097.02-.054.014-.126-.076-.202.094 0 .183-.036.266-.122-.083-.074-.172-.103-.266-.11.09-.07.097-.14.076-.205-.018-.062-.112-.12-.21-.097v-1.763c.06.05.13.076.228.09.003-.097-.022-.183-.062-.25.396.132.788.322 1.155.567.435.295.84.66 1.19 1.097" fill="#231f20"/>
  <path d="M44.398 24.893c.076-.036.137-.09.166-.147-.09.03-.15-.014-.17-.022.058-.043.127 0 .058-.11-.072-.113-.118-.113-.19-.037-.076.08-.55-.014-.547-.378.032.06.097.104.162.132.018.015.036.022.057.03.022.006.044.006.065.01.042.022.093.03.136.022.007 0 .02.007.025.007v-.02c.098-.02.174-.076.184-.18.018-.198-.17-.288-.374-.465-.082-.064-.14-.125-.194-.176-.068-.14-.025-.267-.2-.53-.012-.06-.026-.132-.06-.23-.096.17-.135.493.11.76.2.215.63.434.607.618-.004.04-.043.082-.104.097-.023 0-.045 0-.066-.007-.01 0-.022-.008-.04-.015-.025-.007-.054-.02-.09-.04-.043-.028-.09-.057-.147-.114-.176-.17-.338-.408-.44-.548-.2-.252-.107-.493-.078-.7.14-.2-.087-.59-.217-.684 0 0 .03-.09-.007-.21-.032.02-.09.02-.122.012-.04-.07-.054-.083-.1-.09-.09-.015-.087-.06-.098-.097-.047.04-.06.09-.115.09-.07.007-.096 0-.125.028-.054.037-.075.06-.147.052-.087 0-.083.047-.076.104.004.036.007.09.06.112.01.007.016.014.027.014l.06.072.043-.08c.036-.028.136-.042.158.037.015.05.026.062-.042.07-.068.013-.104.013-.173.02-.043 0-.043.058-.04.094.004.047.05.068.148.047.097-.024.266-.04.266.044 0 .212-.245.205-.3.457-.064-.042-.118-.082-.15-.14-.036-.064-.094-.14-.184-.226-.05-.047-.11-.104-.183-.148-.08-.046-.083-.09-.083-.18 0-.07.033-.14.033-.212 0-.007-.015-.05-.022-.068-.017-.043-.082-.08-.114-.072.014.015.036.036.043.076-.02.014-.033.036-.033.043-.015.014-.025.043 0 .072.003 0 .003.007.003.014 0 .014 0 .02-.003.032 0 .014-.004.014-.007 0-.018-.047-.044-.126-.098-.133h-.032s.004-.01.004-.016c0-.054-.058-.097-.13-.025.015 0 .047.006.054.017-.007.022-.01.05-.01.057-.008.05.035.08.093.08.012 0 .02.007.02.01.002.008.002.015.006.022.004.014-.004.014-.007.007-.098-.04-.14.007-.145.05 0 0 0 .03.004.036-.037.02-.045.075.02.118 0-.02 0-.05.022-.065.007 0 .01 0 .014-.007.01.015.025.03.03.03.003.006.02 0 .05-.023.006-.007.014-.007.024 0l.033.022c.007.007.003.007 0 .014-.065.064-.054.118.02.14-.035.064-.146.043-.142-.062-.082.134.054.223.17.173.003.05.003.15.018.15-.004-.01.007-.027.025-.027.007 0 .01.008.01.015 0 .032.015.068.062.075-.008-.02.003-.03.014-.036.017.03.035.065.053.094.057.098.165.35.42.465-.13.068-.215.18-.298.28-.068.07-.172.148-.24.104-.03-.015-.037-.044-.073-.08-.032-.01-.06-.018-.086-.018-.004.008-.025.008-.04.018-.043-.018-.115.008-.136.044.03-.008.06-.015.097.014 0 .014 0 .043-.004.043-.003.037.022.062.155.055.007 0 .022.007.014.022-.014.007-.036.028-.072.014-.06-.013-.082-.06-.125-.006-.004.007-.015.02-.033.036h-.014c-.047.014-.097.118-.04.162 0-.022.007-.058.04-.083l.032.03c.036.06.076.088.166-.046.01-.014.014 0 .01.008-.003.06-.068.147.015.158.004 0 .022 0 .037.007v.014c.014.073.118.095.15.073-.02-.014-.064-.028-.082-.093h.043c.043-.047-.01-.104.015-.148.003-.003.01-.003.018 0 .015.036.05.094.126.058.033-.022.044-.058.047-.083.094-.036.173-.072.238-.05-.01-.043.044-.112.137-.133.094-.03.137 0 .17.03.006-.037.042-.11.09-.163-.008.378.5.37.614.59-.154-.057-.32-.1-.412-.08-.123.023-.342.135-.37.278-.02.12.1.328.222.407-.144.03-.2-.015-.33.014h-.02c-.11.006-.125-.19-.265-.14-.007.006-.032.017-.04.024-.05 0-.122.065-.11.122.013-.014.042-.043.082-.05v.03c-.004.02.003.042.054.042.03 0 .037-.014.055-.014.007 0 .014.007.014.017 0 .052-.17-.03-.14.117 0 .007.013.028.024.04-.007.042.03.085.108.064-.015-.006-.043-.028-.036-.057.014 0 .032.008.032.008.01 0 .018-.007.018-.02 0-.005.004-.005.007-.005.008 0 .015.004.015.004 0 .006-.01.02-.01.035 0 0 .006.043.013.05-.006.05.073.105.145.05-.02 0-.064-.014-.072-.035.015-.008.036-.015.036-.015.01-.014.014-.03.014-.05 0-.022.003-.022.014-.022h.036c.014-.007.018 0 .025.015.017.028.057.057.104.043.028-.006.043-.028.046-.035.022.007.043.02.06.036-.013-.057.023-.096.145-.02l.08-.062s.11.047.154-.007c.075-.064.035-.064.035-.13-.054-.11-.08-.096-.1-.207-.037-.183.22-.288.373-.26.03.12.198.43.475.526.173.057.24-.134.302-.105.01.007.022.02.03.046-.012.088.002.163-.02.206-.017.044-.11.008-.175.008-.04-.008-.07.02-.07.028-.05.008-.114.058-.114.12.025-.015.058-.05.097-.058.004.007.004.028.004.028.01.072.093.1.144.05.004-.014.022 0 .012.008-.04.03-.123.104-.05.133l.035.014c-.003.05.025.09.065.097-.014-.028-.018-.04.007-.09.017.008.035.008.04.008.042 0 .024-.094.074-.12.004-.006.01-.006.007 0-.017.055-.024.12.023.134.007 0 .025.007.043.007.014.04.06.076.133.033-.015-.008-.058-.018-.066-.04.015-.014.033-.036.036-.043.036-.112-.064-.12-.064-.162 0-.056.115-.02.115-.132 0 0-.003-.007-.003-.014.05-.03.104-.065.108-.105-.065 0-.126-.022-.137-.03v-.007zM39.323 28.286l-.104-.008.003-.09c.018-.366-.202-.632-.59-.632-.345 0-1.014.442-1.953.442-.395 0-.87-.19-1.168-.367l-.116.282v-.026c0-.125-.1-.233-.23-.233-.126 0-.23.108-.23.233 0 .126.104.23.23.23.076 0 .14-.035.184-.082l-.12.28c.04.015.08.036.123.047-.136 1.414.914 3.227 2.766 3.774.272-.07.553-.026.553.273 0 .183-.094.262-.26.262-.11 0-.18-.065-.18-.134 0-.13.217-.05.238-.14.03-.115-.042-.162-.168-.162-.13 0-.327.083-.327.302 0 .252.205.4.424.4.204 0 .636-.112.578-.62.097 0 .21-.013.234-.103l.022-.288-.1-.014.078-3.25.072.003c.12.007.223-.046.23-.172.01-.13-.093-.19-.19-.204m-3.352.25l2.255 3.25c-1.21-.472-2.406-1.555-2.255-3.25m2.32 2.94l-2.05-2.96c.064.007.13.007.187.007.103 0 .21-.007.315-.018l1.643 2.36c-.036.23-.068.44-.097.61m.152-.942l-1.445-2.07c.158-.044.313-.087.46-.14l1.09 1.55c-.033.218-.07.44-.105.66m.353-2.283l-.086-.007c-.1-.008-.22.035-.232.17-.007.124.083.204.202.21h.06l-.01.083c-.03.184-.075.493-.13.846l-.92-1.317c.432-.176.777-.356.967-.356.148 0 .177.068.148.37M38.93 21.747c.44 0 .658-.14.658-.28 0-.486-1.208-.184-1.208-.48 0-.05.036-.09.09-.132h.014c.608-.058.62-.478 1.05-.56-.52-.073-.593.333-.82.355.123-.054.166-.194.155-.252-.11.14-.342.155-.472.317-.02.028-.03.06-.02.09-.08.05-.127.107-.127.176 0 .458 1.223.14 1.223.48 0 .118-.212.197-.546.197-.252 0-.435-.176-.906-.058.004-.08.16-.23.098-.303.046-.014.08-.057.08-.09-.026-.028-.06-.036-.09-.043.013-.02 0-.05-.023-.065-.003-.008-.014-.054-.025-.062-.018-.02-.054-.05-.11-.08-.052-.028-.088-.028-.11-.028-.014-.007-.06.008-.068.008-.025 0-.057 0-.06.028-.022-.02-.055-.036-.087-.036-.018.044-.025.072-.01.137-.044 0-.09.112-.134.097.02.036.03.05.044.05-.036.062-.054.14-.093.148.012.01.022.025.033.032-.04.1-.057.22-.065.28-.025-.024-.06-.053-.097-.075-.07-.044-.067-.08-.056-.148.01-.065.05-.112.057-.17 0-.006-.006-.042-.01-.057-.007-.04-.06-.068-.093-.06.014.014.032.028.03.06-.016.008-.03.03-.034.03-.018.02-.028.042-.01.057l.003.02c0 .008-.003.016-.007.03-.008.007-.008 0-.012 0-.007-.05-.02-.108-.06-.115h-.033v-.014c.007-.04-.04-.076-.112-.018.015 0 .04 0 .047.01-.01.015-.018.043-.022.05-.01.044.026.065.08.065.01 0 .014.008.014.008.004.007.004.014.004.02.003.005-.004.005-.008.005-.086-.033-.125 0-.136.036 0 0-.004.02-.004.028-.032.02-.047.064.007.097 0-.015.004-.04.03-.047 0-.007.006-.007.01-.007l.018.022c.007.007.025.007.057-.014.004-.007.01-.007.022 0 .004.007.01.007.022.014.003.007.003.007 0 .015-.07.046-.07.097.01.118.008 0 .008.007.008.015-.022.097-.162.075-.14-.022-.098.112.028.194.143.148.01-.008.01-.008.015 0 .003.02.01.036.028.036 0 0 .01-.022.03-.022.01 0 .01.007.01.014-.004.018 0 .054.036.06-.004-.02.007-.042.02-.042.016 0 .048.087.113.155-.097.043-.263.08-.273.08-.022 0-.166-.015-.213.013-.07.036-.24.098-.29.03-.014-.022-.01-.05-.032-.087-.018-.03-.04-.04-.054-.04h-.043c-.025-.036-.09-.043-.11-.014.017 0 .042.006.064.04-.01.006-.018.027-.018.034-.014.022-.007.058.1.09.004.008.015.015.004.022-.014.007-.04.007-.057-.007-.044-.034-.047-.084-.1-.055-.005.007-.02.014-.033.02-.004 0-.008-.006-.01-.006-.048 0-.123.053-.09.103.006-.007.024-.035.056-.043.008.015.01.03.01.03.012.064.037.103.15.028.017-.015.017.007.01.007-.026.047-.1.09-.047.133.006 0 .017.007.027.022-.003 0-.003.007-.003.007-.015.06.054.104.093.104-.018-.013-.043-.042-.036-.09.012 0 .03.008.034.008.054-.02.03-.093.057-.115.01 0 .016 0 .016.008.003.03.02.094.082.087.062-.007.09-.058.09-.094-.003-.007 0-.007 0-.007.022.015.04.043.033.072.015-.007.037-.02.047-.043.01.03.015.072-.025.11.025-.01.09-.038.105-.11.01.007.018.022.02.036 0-.006.005-.006.005-.006.025.007.064.014.133-.007.007 0 .007.007.007.007-.007.036-.007.057.007.072 0-.008.017-.03.024-.03.018 0 0 .062.04.098.01-.162.1-.097.2-.17.016-.006.016 0 .012.008-.007.022-.014.043-.043.058.04 0 .126-.043.126-.1 0-.008.03-.026.064-.048.035.007.097-.014.118-.057.004.014.025.064-.003.08.106.006.218-.116.258-.13.23-.047-.14-.216.327-.18.04 0 .108-.03.14-.058-.036.08-.04.22.032.227.033.007.097.025.123.054.003.007.003.007-.004.007-.043.007-.086.02-.1.028-.112.076-.116-.17-.234-.118-.004 0-.022.014-.03.02-.046 0-.11.055-.1.106.015-.014.04-.042.076-.042v.02c-.004.023.003.044.043.044.026 0 .03-.014.048-.014.007 0 .01.007.01.014 0 .047-.143-.03-.11.097 0 0 .006.028.017.035-.007.036.025.076.09.058-.01-.015-.036-.03-.033-.043h.033c.003 0 .01-.007.014-.022 0-.007 0-.007.003-.007.01 0 .018.008.018.015 0 .008-.014.015-.014.03l.015.03c-.006.045.058.088.123.045-.018 0-.058-.008-.06-.03.01 0 .024-.014.028-.014.01-.003.015-.018.015-.04 0-.006.007-.006.01-.006.012-.007.022-.007.033-.007.01 0 .018.007.022.007.01.028.046.054.09.043.08-.03.01-.1.075-.115.01-.007.033-.007.047 0 .06.014.15.014.17-.015.013-.025.006-.14-.06-.18-.038-.02.005-.07-.035-.13.07.03.14.06.234.06.17 0 .008-.023.084-.066.08-.054.176-.025.2-.018.023 0 .04.013.037.03-.017.095.008.102-.01.142-.018.036-.09.007-.14 0-.03 0-.05.02-.05.028-.043.008-.094.043-.09.094.014-.007.04-.03.075-.043v.022c.008.06.076.083.112.04.004-.004.022 0 .014.007-.035.028-.096.085-.045.107.003 0 .018.007.032.014-.007.04.022.07.054.077-.01-.015-.013-.03.004-.07h.03c.035.01.02-.07.064-.092.004-.007.007-.007.004 0-.008.043-.022.1.018.108.003 0 .018.003.032.003.01.036.05.058.1.03-.007 0-.035-.015-.046-.03.014-.01.03-.032.03-.04.024-.093-.052-.093-.052-.125 0-.05.09-.02.09-.114 0-.014-.01-.04-.04-.054h-.003.005c.02 0 .05.007.06-.036-.064.007-.046-.05-.053-.083 0-.007 0-.007.003-.014.022-.015.04-.05.03-.102-.022.03-.098.072-.1 0-.005 0-.01-.04-.077-.036-.11.015-.165-.04-.378-.06-.01-.008-.02-.015 0-.015m-1.345-.493h-.007.007m.32-.075c.015.013.1.045.144.053-.065.014-.05.043-.094.035-.04 0-.06-.046-.05-.09m-.09-.05c-.015.036-.062.065-.094.03-.032-.03.007-.037-.032-.098.036.025.104.068.126.068m-.137.295c.01-.02.02-.043.035-.043.025 0 .04 0 .047-.025.01-.03-.015-.043-.04-.065.03-.007.04-.014.025-.03-.018-.013-.043.016-.05 0-.004-.013.018-.02.025-.035.01-.003.022-.003.036 0l.115.058c.018.007.025.014.025.03 0 .02.007.035-.007.042-.01.007-.01-.036-.03-.043-.02 0-.02.02-.008.05-.03-.014-.05-.022-.065 0-.015.018-.01.04.007.054.01.014 0 .036-.007.065-.01.03-.043.062-.086.04-.043-.018-.035-.068-.02-.097M39.538 23.39c0-.133-.148-.226-.576-.226-.428 0-1.402.16-1.402-.076 0-.12.19-.11.417-.097.014.023.043.04.097.055.55.162 1.208-.133 1.54-.04-.396-.294-.724.01-1.148-.08.248 0 .33-.067.345-.14-.193.127-.552-.064-.783.08-.01.004-.025.018-.036.033-.304-.015-.55-.015-.55.19 0 .428 1.152.176 1.515.176s.44.036.44.112c0 .097-.36.126-.558.126-.32 0-1.263-.17-1.838-.047.05-.094.15-.22.096-.29.05-.02.09-.062.093-.106-.036-.03-.076-.044-.112-.047.018-.03-.004-.05-.022-.08-.007-.007-.018-.064-.028-.068-.026-.02-.065-.057-.126-.086-.07-.03-.108-.03-.137-.044-.01 0-.072.014-.075.014-.03 0-.07 0-.072.036-.025-.03-.065-.036-.1-.05-.023.05-.03.093-.015.162-.047 0-.105.133-.155.115.018.04.036.054.05.054-.043.08-.06.17-.108.176.03.036.05.057.07.057l-.012.166-.09-.033h-.025c-.014 0-.025-.007-.036-.014.01 0 .025.006.036.006l-.05-.014c-.047-.043-.108-.12-.184-.162-.09-.05-.09-.09-.084-.176.004-.083.04-.148.04-.216 0-.007-.01-.05-.018-.065-.007-.05-.072-.082-.108-.08.022.016.04.037.04.08-.015.015-.03.036-.033.036-.02.02-.028.046 0 .075.004.007.004.014.004.02l-.006.03c-.004.014-.007.007-.015 0-.015-.05-.037-.133-.083-.133-.004 0-.026-.007-.033 0 .004-.007.004-.007.004-.014.003-.05-.06-.097-.13-.03.015 0 .044.008.05.022-.006.015-.014.05-.014.058-.007.054.033.076.097.076.005 0 .012.007.016.014 0 .007.003.014.003.02.003.016-.004.01-.01.01-.095-.044-.138 0-.142.038 0 .007-.003.036 0 .043-.036.028-.046.078.01.118 0-.018 0-.054.026-.06.008 0 .01 0 .015-.008.006.007.02.02.024.02.01.008.03.008.06-.013.005-.007.012-.007.023 0 .007 0 .018.007.025.014.007.008.007.016 0 .023-.065.06-.058.126.025.14.01 0 .014.007.014.022-.013.118-.17.097-.157-.022-.093.133.06.245.176.173.01-.004.014-.004.017 0 .004.03.015.043.033.05 0-.007.007-.03.028-.036.008 0 .008.015.008.022 0 .028.01.072.054.072-.008-.022.003-.044.02-.044.023 0 .073.09.174.148.075.036.136.126.187.072-.01.083.066.172.048.172-.026 0-.245-.01-.303.015-.08.043-.28.115-.338.036-.018-.03-.01-.058-.036-.104-.017-.03-.045-.045-.067-.052h-.047c-.028-.036-.104-.043-.133-.014.022.007.05.007.08.05-.01.015-.02.036-.026.043-.018.018-.007.07.12.112.006 0 .017.013.006.013-.018.015-.047.015-.068-.007-.05-.036-.058-.094-.12-.058 0 0-.02.015-.038.022 0-.007-.004-.007-.008-.007-.058-.007-.144.065-.108.126.007-.016.028-.048.068-.055l.018.04c.01.064.036.114.172.028.008-.014.008 0 .008.007-.033.058-.123.105-.054.148.003.007.018.014.036.028-.004 0-.008.008-.008.008-.018.075.065.133.105.133-.018-.022-.047-.065-.04-.112.015 0 .036.007.036.007.068-.028.04-.107.072-.125.01-.008.018 0 .018.007.004.032.018.104.097.097.068-.006.1-.064.097-.103-.003-.008 0-.015.004-.008.026.014.05.04.037.075.018-.007.047-.022.057-.058.015.043.018.087-.025.137.02-.014.096-.05.114-.13.015.008.025.03.033.044 0 0 0-.008.007-.008.018.008.072.015.147 0 .008-.007.012 0 .012.008-.007.028-.007.057.004.072 0-.008.02-.036.032-.036.018 0-.004.068.043.118.016-.197.12-.118.238-.197.015-.008.015 0 .01.007-.002.028-.02.05-.045.064.133.03.338-.17.366-.25.053-.008.104-.016.125-.016.378.036.12-.338.727-.226.036 0 .108-.04.147-.07-.048.077-.05.246.03.26.04 0 .12.03.145.058.007.007 0 .007-.007.014-.04.004-.1.018-.115.025-.126.088-.133-.193-.27-.132-.007 0-.028.015-.036.022-.05 0-.13.065-.115.126.015-.022.047-.047.087-.054v.025c-.005.03.006.05.05.05.024 0 .03-.014.056-.014.01 0 .018 0 .018.014 0 .05-.172-.028-.14.112 0 .006.01.035.022.042-.007.043.03.083.108.065-.015-.007-.044-.03-.04-.05h.036c.01 0 .018 0 .022-.022 0-.007 0-.007.003-.007.007 0 .01.007.01.014s-.006.014-.006.03c0 .006.006.042.013.042-.007.054.07.11.144.054-.018 0-.068-.007-.075-.036.018-.007.035-.01.04-.01.01-.015.017-.037.017-.058 0-.008.003-.008.006-.008.01 0 .025 0 .036-.007.018 0 .022.006.025.014.018.028.062.057.108.043.094-.03.015-.115.087-.133h.054c.07.018.18.018.197-.015.022-.037.01-.162-.064-.213-.048-.02.002-.075-.045-.14.083.03.166.065.27.065.205 0 .248-.03.342-.087.093-.06.205-.02.234-.02.026.006.047.013.04.05-.025.103.007.11-.014.16-.018.037-.1.008-.162 0-.032 0-.058.023-.06.03-.048.007-.106.054-.102.11.014-.013.047-.042.09-.05 0 .008.004.022.004.022.007.072.08.09.13.05.003-.006.02 0 .013.008-.047.03-.116.097-.058.12.003.006.02.013.04.02-.004.04.028.09.06.097-.014-.028-.017-.043.004-.09h.033c.05.008.024-.08.078-.115.003-.003.007 0 .003.008-.013.05-.02.115.02.13.003 0 .02 0 .035.006.015.04.065.07.122.034-.014-.008-.043-.022-.05-.04.01-.014.025-.043.03-.05.03-.105-.062-.105-.062-.148 0-.05.104-.014.104-.126 0-.014-.008-.05-.048-.064v-.008c.03 0 .06.008.076-.036-.076.008-.058-.053-.065-.097-.004-.007-.004-.014.004-.02.025-.016.043-.048.036-.113-.026.036-.112.076-.123.007-.003-.008-.007-.058-.08-.044-.132.015-.225-.014-.47-.036.28 0 .698-.075.698-.23m-3.366.245c-.004-.007-.004-.007.003-.007-.003 0-.003 0-.003.007m.683-.62c.018.023.122.06.173.073-.083.015-.06.043-.112.043-.043 0-.068-.063-.06-.114m-.102-.047c-.02.035-.068.068-.108.028-.032-.036.004-.043-.035-.122.036.036.123.086.144.093m-.158.345c.015-.03.022-.05.04-.05.028 0 .046-.008.054-.037.014-.036-.018-.05-.047-.068.032-.007.047-.022.032-.043-.02-.014-.05.014-.057 0-.004-.014.018-.022.025-.036.014-.006.025-.006.043 0l.137.066c.018.014.028.014.028.032-.002.022.005.043-.01.05-.014.008-.01-.043-.035-.05-.022 0-.022.022-.007.058-.033-.015-.062-.03-.08 0-.018.028-.01.043.015.064.01.015 0 .04-.015.076-.01.03-.05.072-.097.043-.05-.023-.038-.08-.024-.105m.35.75l.003-.006c0 .006 0 .006-.005.006M39.348 25.272c0-.125-.136-.205-.546-.205-.414 0-1.673.148-1.673-.075 0-.147.427-.094.74-.086.01.028.043.05.087.064.532.148 1.082-.205 1.46-.075-.3-.277-.684.025-1.083-.058.234 0 .478-.043.49-.11-.18.118-.695-.08-.907.053-.014.014-.025.02-.036.03-.39 0-.866-.06-.866.182 0 .406 1.44.17 1.78.17.342 0 .418.035.418.096 0 .097-.342.126-.54.126-.313 0-1.658-.183-2.19-.022.032-.082.158-.223.097-.295.053-.025.086-.06.09-.104-.033-.03-.073-.043-.102-.05.015-.018-.003-.047-.02-.068-.012 0-.023-.058-.03-.072-.02-.015-.065-.047-.122-.076-.06-.03-.104-.03-.122-.036-.015-.006-.07.015-.076.008-.025 0-.065 0-.072.036-.018-.03-.054-.036-.09-.043-.02.044-.032.08-.014.15-.047 0-.1.124-.144.103.014.043.03.057.043.057-.038.072-.053.162-.1.17.015.02.03.035.04.043-.007.04-.014.09-.014.125l-.04-.014c-.03 0-.057 0-.065-.007-.017 0-.042-.007-.067-.007-.065-.008-.115-.112-.22-.177-.082-.05-.086-.082-.086-.17 0-.074.033-.14.025-.2 0-.007-.01-.043-.014-.065-.014-.05-.075-.082-.108-.072.018.015.036.03.043.072-.014.015-.032.036-.032.043-.017.016-.024.04.005.07.003.007.003.007.003.014s0 .015-.003.036c-.004.007-.01.007-.01 0-.023-.057-.048-.126-.087-.133h-.033v-.007c0-.058-.06-.097-.12-.036.012.007.037.007.045.02-.004.016-.01.052-.01.06-.005.053.035.067.092.075.01 0 .015 0 .018.006.004.007.008.014.008.02.003.016 0 .016-.008.01-.097-.045-.133.006-.133.042 0 .007-.003.025 0 .032-.036.03-.043.08.018.115 0-.014-.003-.05.018-.057.004 0 .007 0 .01-.008.012.015.03.022.03.03.007 0 .025 0 .054-.022.01-.008.014-.008.025 0 .007.007.018.007.025.014.004.007.004.014 0 .022-.06.053-.05.118.03.133.013 0 .013.007.013.02-.007.113-.154.09-.154-.028-.08.132.072.23.183.168.003-.007.006 0 .01.008.007.014.018.032.04.032 0-.004.003-.018.025-.018.003 0 .003.007.003.014 0 .026.014.07.06.076-.01-.03-.002-.05.016-.05.018 0 .097.154.27.248.028-.008.075-.008.093-.043 0 .007.014.02.032.035.006.076.057.17.042.17-.025 0-.287-.008-.345.014-.072.047-.26.11-.32.032-.014-.03-.007-.046-.032-.09-.018-.028-.043-.05-.06-.05h-.052c-.025-.036-.093-.04-.126-.022.026.008.05.015.076.058-.007.007-.018.03-.022.036-.013.022-.006.06.113.104.007 0 .018.015.007.015-.014.014-.043.014-.065 0-.047-.036-.054-.09-.11-.065-.005 0-.023.014-.037.02h-.015c-.05-.013-.133.06-.097.12.008-.018.03-.047.07-.054.002.015.01.03.01.036.01.06.035.112.16.025.016-.008.016 0 .012.007-.03.057-.12.107-.05.147.003 0 .018.007.028.022 0 .007-.003.007-.003.014-.01.065.057.12.104.11-.02-.013-.05-.045-.043-.103.022.007.036.014.04.014.057-.02.032-.096.064-.117.01-.007.018 0 .018.007.004.03.015.097.09.09.07-.007.097-.06.09-.104 0 0 0-.008.007 0 .025.014.047.036.04.068.01 0 .036-.018.05-.047.01.033.018.083-.03.126.027-.007.102-.043.116-.12.01.01.02.023.025.034 0 0 .003 0 .003-.007.03.014.072.014.148 0 .003-.004.007 0 .003.007 0 .03 0 .057.01.072 0-.01.022-.037.03-.037.02 0 0 .072.035.11.018-.18.234-.09.35-.157.013-.014.013-.007.01 0-.008.018-.022.047-.055.06.044.008.105-.02.152-.056-.004 0-.01.007-.015.014l.187-.083c0-.013.007-.035.01-.056.023-.007.044-.007.062-.015 0 .007-.004.007-.007.007.118.007.107-.09.154-.076.665.084.284-.287 1.07-.218.037 0 .052-.015.09-.04-.046.076-.046.2.037.216.037.007.11.03.138.057.007.008 0 .015-.008.015-.043.007-.093.014-.107.03-.126.074-.13-.185-.263-.138-.004 0-.02.02-.03.03-.053 0-.125.056-.114.11.015-.018.047-.04.087-.047v.03c-.004.017.003.04.043.04.028 0 .032-.016.057-.016.007 0 .01.007.01.014 0 .05-.157-.025-.128.115 0 0 .014.024.025.03-.007.044.025.087.1.066-.014-.007-.043-.03-.04-.05.015.007.033.007.04.007 0 0 .01-.007.015-.03.003 0 .003-.006.007-.006.007.007.01.007.01.014 0 .016-.006.023-.006.03 0 .007.007.043.014.05-.007.043.06.097.137.047-.018-.004-.07-.01-.076-.032.016-.008.037-.015.04-.015.01-.007.015-.03.015-.05.004-.014.007-.014.014-.014h.032c.014-.008.02 0 .025.007.007.036.05.057.1.043.083-.03.015-.104.08-.12.01-.006.04-.006.054 0 .07.016.173.008.19-.02.02-.036.01-.155-.063-.198-.05-.03 0-.076-.044-.14.08.028.155.064.26.064.183 0 .237-.028.32-.08.09-.053.194-.028.226-.028.02.008.042.022.035.05-.022.098.01.105-.01.155-.02.035-.102.007-.155 0-.033 0-.062.02-.062.028-.046.007-.097.05-.097.104.02-.007.052-.043.084-.043 0 .007 0 .014.004.014.007.072.082.093.122.05.007-.007.02 0 .014.007-.036.03-.108.09-.046.12l.032.014c-.004.043.02.083.06.09-.013-.018-.017-.032.005-.075h.032c.04 0 .022-.084.065-.113.007 0 .01 0 .01.007-.014.04-.02.105.018.12 0 0 .022.006.036.006.01.036.058.06.112.03-.014 0-.04-.015-.05-.037.014-.014.025-.036.025-.043.032-.104-.05-.104-.05-.14 0-.058.1-.022.1-.126 0-.015-.014-.043-.05-.065v-.008.007c.03-.008.06 0 .075-.033-.075.007-.054-.058-.064-.094 0-.014-.004-.02.003-.02.022-.023.043-.048.036-.106-.025.036-.104.072-.11 0-.005 0-.01-.057-.088-.043-.122.022-.205-.014-.442-.032.237-.015.665-.065.665-.22m-2.995-.33c.018.014.11.05.16.064-.078.015-.06.036-.106.036-.047 0-.062-.064-.054-.1m-.1-.054c-.023.032-.066.068-.105.032-.03-.032.003-.04-.036-.11.04.027.118.078.14.078m-.15.327c.013-.025.024-.047.035-.047.036 0 .05-.007.057-.03.015-.035-.018-.05-.05-.07.036-.008.05-.022.036-.033-.022-.014-.054.007-.057 0-.004-.014.014-.03.02-.036.015-.015.03-.008.048 0l.13.053c.015.014.025.022.025.043 0 .007.008.036-.007.043-.014 0-.01-.044-.043-.044-.014-.007-.014.015-.003.043-.03-.008-.058-.022-.072.007-.015.02-.01.043.01.06.008.008 0 .037-.01.065-.01.03-.047.072-.094.05-.047-.028-.04-.078-.025-.107M45.178 28.433c0-.007 0-.014.007-.014.025-.022.047-.058.043-.112-.028.036-.115.075-.115.007 0-.007-.003-.058-.08-.043-.12.014-.236-.015-.477-.03-.015-.006-.025-.014 0-.02.24-.02.67-.055.67-.202 0-.126-.138-.205-.55-.205-.41 0-1.67.147-1.67-.083 0-.147.424-.086.74-.08.012.03.04.044.087.06.53.153 1.13-.25 1.45-.15-.414-.146-.677.105-1.076.023.234 0 .482-.05.493-.115-.184.122-.694-.076-.91.057-.015.007-.025.015-.036.03-.388-.008-.863-.05-.863.175 0 .407 1.436.17 1.777.17.346 0 .425.04.425.104 0 .097-.346.118-.54.118-.323 0-1.66-.176-2.197-.014.032-.09.162-.223.1-.295.05-.022.09-.06.09-.104-.032-.028-.068-.043-.104-.05.02-.02-.002-.05-.02-.068-.007-.007-.015-.065-.03-.072-.02-.022-.06-.057-.12-.083-.06-.028-.098-.028-.124-.028-.014-.01-.068.006-.07.006-.03 0-.066 0-.07.03-.03-.023-.057-.037-.097-.037-.022.042-.03.074-.012.146-.05 0-.097.12-.147.104.02.036.033.05.05.058-.042.068-.06.162-.107.162.03.032.05.054.07.06-.005.044-.012.087-.012.12l-.07-.026h-.066c-.018-.007-.04-.007-.065-.014-.062-.007-.116-.112-.223-.176-.083-.043-.083-.087-.083-.17 0-.068.032-.132.03-.197-.005-.014-.016-.047-.023-.06-.013-.052-.075-.088-.107-.073.018.014.036.03.043.072-.014.014-.032.036-.036.036-.01.018-.018.046.004.068.007.007.007.014.007.014 0 .008 0 .022-.006.036-.004.015-.007.008-.007 0-.015-.05-.043-.125-.087-.125-.003 0-.02-.008-.036-.008 0 0 .004 0 .004-.007 0-.05-.058-.093-.12-.03.016 0 .04.01.052.023-.007.014-.015.047-.015.047-.003.057.033.08.094.08.013 0 .017.006.017.013 0 0 0 .015.003.022.004.007-.003.007-.003.007-.094-.043-.137 0-.137.04 0 0-.003.028 0 .035-.03.022-.04.072.022.112-.004-.023-.004-.055.02-.062h.012c.007.007.022.02.025.02.006.01.02 0 .057-.02h.018c.007.007.014.014.03.02.002.01.002.01 0 .016-.063.06-.052.126.027.14.01 0 .015.007.015.014-.007.12-.16.09-.155-.02-.083.132.065.23.18.168.007-.007.01-.007.014 0 .007.018.018.04.036.04-.003 0 .007-.03.025-.03.008 0 .008.015.008.022.003.03.014.065.057.072-.007-.03 0-.043.015-.043.025 0 .093.17.262.26-.005-.015.067-.04.1-.062.007.03.025.06.057.075l.025-.02c-.01.085.083.16.07.16-.026 0-.185-.02-.24.008-.074.043-.26.115-.32.036-.017-.03-.013-.058-.038-.097-.015-.03-.036-.044-.058-.05h-.046c-.033-.03-.098-.037-.126-.015.025.007.046.014.068.05-.004.015-.018.036-.018.036-.01.025-.007.07.11.112.01 0 .023.007.012.014-.018.007-.043.014-.068-.007-.047-.036-.054-.086-.112-.058-.003 0-.018.007-.036.014h-.01c-.054-.007-.133.064-.097.126.003-.022.028-.054.064-.062l.01.04c.012.065.037.108.163.03.014-.008.014 0 .007.006-.025.05-.11.097-.047.14 0 .007.018.015.03.022-.004.007-.004.014-.004.014-.01.07.06.126.107.12-.02-.016-.05-.055-.046-.105.018.007.032.014.04.007.057-.022.032-.1.068-.12.007-.006.01 0 .014.008.003.033.017.097.09.09.067 0 .1-.065.09-.097 0-.007.002-.007.01-.007.02.014.043.04.036.075.01-.006.035-.027.05-.053.01.04.014.083-.03.134.03-.014.098-.05.116-.13.015.015.025.03.025.044 0 0 .004-.007.008-.007.02.007.07.014.14 0 .01-.007.01 0 .01.007-.007.022-.007.058.008.072 0-.007.018-.036.03-.036.02 0 0 .065.038.112.02-.184.116-.112.23-.184.016-.01.016-.007.012.007-.007.022-.022.044-.05.058.04.036.208-.072.208-.14 0-.015.06-.022.12-.03.114.008.1-.09.146-.082.673.09.288-.286 1.076-.21.036 0 .054-.044.086-.076-.04.075-.043.23.04.25.032 0 .107.03.136.052.007.007 0 .014-.003.014-.05.004-.1.018-.115.032-.122.08-.125-.187-.255-.14-.007.007-.03.022-.036.03-.054 0-.122.064-.11.118.017-.022.042-.047.08-.047v.025c0 .022.01.043.052.043.025 0 .032-.013.047-.013.01 0 .018.007.018.014 0 .052-.16-.028-.13.105.005.008.015.036.023.044-.008.042.028.085.1.056-.014-.007-.04-.03-.032-.05.012.007.026.007.03.007.007 0 .014-.007.018-.022 0-.006.003-.006.01-.006.01 0 .015.007.015.015 0 .006-.01.013-.007.027 0 0 .003.036.007.044-.004.047.065.105.14.047-.025 0-.068-.007-.075-.032.014-.007.032-.014.036-.014.01-.007.014-.028.014-.05 0-.014.007-.014.01-.014h.037c.018 0 .018.007.025.014.014.03.05.058.104.036.083-.03.01-.108.08-.12.014 0 .035-.006.053 0 .07.012.17.012.187-.02.018-.03.007-.155-.065-.198-.044-.02 0-.08-.04-.133.08.03.155.054.255.054.19 0 .248-.02.338-.07.1-.064.198-.028.234-.028.018.007.036.014.025.05-.025.097 0 .105-.018.148-.025.036-.104.007-.162.007-.028-.007-.054.02-.057.02-.047.016-.104.055-.108.106.022-.007.05-.036.09-.043v.02c0 .066.072.087.12.044.002-.007.02 0 .01.015-.037.027-.116.09-.058.11l.028.022c-.004.036.02.082.054.09-.008-.03-.01-.043.01-.083h.033c.046 0 .032-.087.08-.113.006 0 .01 0 .006.004-.017.05-.03.11.012.123 0 0 .018.008.03.008.01.04.056.062.114.033-.015-.007-.044-.018-.044-.032.01-.02.03-.043.03-.05.04-.097-.044-.104-.04-.14.003-.05.097-.022.104-.12.004-.013-.004-.05-.036-.063-.004 0-.004 0-.004-.008.03 0 .058.007.083-.03-.084.008-.055-.053-.062-.097m-2.952-.766c.02.015.11.05.16.065-.074.015-.06.047-.103.047-.05-.008-.068-.07-.057-.113m-.1-.05c-.02.036-.066.065-.102.036-.036-.043.004-.047-.04-.11.04.02.123.067.14.074m-.154.33c.018-.028.03-.053.047-.053.025.007.04 0 .05-.03.01-.027-.018-.042-.046-.063.03-.007.047-.02.03-.043-.02-.01-.047.022-.05 0-.008-.01.013-.018.02-.032.015-.007.026-.007.044 0l.13.06c.014.016.024.023.024.037 0 .015.008.043-.007.043-.013.007-.013-.036-.035-.043-.02 0-.02.015-.007.05-.032-.014-.06-.028-.072 0-.018.03-.014.04.01.07.004.006 0 .035-.01.064-.014.028-.05.06-.093.043-.047-.023-.044-.073-.033-.102m-.104-.19h-.007.006zm.032-.14h-.01.01m.612.956c.003 0 0 0 0 0M43.337 29.466c.01.022.044.05.094.065.504.148 1.076-.24 1.382-.147-.4-.144-.647.097-1.03.018.228 0 .462-.038.473-.103-.173.11-.662-.068-.864.057l-.035.022c-.273-.007-.5-.007-.5.173 0 .387 1.043.16 1.37.16.328 0 .292.03.292.1 0 .084-.374.113-.56.113-.278 0-1.137-.148-1.655-.044.043-.083.133-.195.082-.252.047-.03.08-.065.083-.105-.03-.02-.065-.035-.097-.043.014-.028-.003-.05-.018-.072-.007 0-.018-.054-.032-.06-.018-.022-.058-.058-.112-.08-.06-.03-.097-.03-.122-.032l-.068.003c-.03 0-.06 0-.065.028-.025-.02-.05-.03-.09-.032-.022.04-.03.082-.014.14-.048 0-.09.12-.138.104.014.036.032.05.047.05-.044.07-.06.155-.102.162.014.018.025.026.04.04-.015.05-.026.1-.026.147l-.046-.022h-.018c-.065-.007-.1 0-.205-.054-.08-.043-.08-.086-.08-.162 0-.072.033-.126.03-.198 0-.007-.01-.036-.02-.054-.017-.043-.074-.08-.106-.064.018.007.04.028.043.064-.015.01-.03.026-.03.033-.013.02-.024.05 0 .072.008.007.008.007.008.014 0 .006-.003.013-.003.028-.004.01-.01.003-.01 0-.02-.05-.04-.122-.084-.122-.003 0-.02-.008-.03 0v-.008c0-.054-.055-.09-.11-.032.008.007.033.007.044.018-.007.014-.014.043-.014.05-.004.058.035.08.093.08.01 0 .01 0 .014.007l.008.02c.003.006-.004.006-.01.006-.09-.033-.127 0-.13.036 0 .007 0 .036.003.043-.03.022-.036.068.018.097 0-.014-.004-.04.018-.047.004 0 .01-.007.014-.007.007.014.022.018.022.018.007.007.02.007.054-.01.007-.008.014-.008.02 0 .005.006.016.006.027.01.008.007.004.014 0 .014-.053.065-.046.123.03.13.01.004.01.01.01.018-.003.115-.15.093-.144-.018-.075.126.065.223.173.158.002-.007.006 0 .01 0 .007.022.018.043.04.043 0-.006.003-.02.017-.02.007 0 .007 0 .007.007.004.03.015.072.054.08-.007-.023 0-.05.015-.05.02 0 .018-.052.15.027.012.022.03.044.055.05l.093-.014c-.01.07.012.187-.002.187-.026 0-.173-.018-.227.008-.07.043-.25.108-.3.028-.02-.02-.012-.05-.033-.082-.022-.028-.047-.042-.062-.05h-.046c-.026-.036-.095-.036-.124-.014.022 0 .05.007.07.05-.008.007-.016.03-.02.036-.014.018-.003.054.11.097.002.007.013.014.006.02-.018.008-.043.008-.06-.006-.048-.043-.055-.094-.106-.058-.003 0-.02.007-.04.015-.003 0-.003-.007-.01-.007-.05 0-.126.065-.09.12.004-.015.022-.04.06-.048.01.015.012.025.012.033.01.064.036.108.158.02.01-.006.01.008.008.008-.033.058-.108.108-.047.14 0 0 .01.015.03.022l-.012.015c-.007.064.06.11.1.11-.017-.013-.043-.053-.035-.096.014 0 .028.007.035.007.062-.03.03-.09.065-.11.007-.008.015 0 .015.006.003.022.014.083.082.083.07-.008.097-.06.09-.097-.003 0 0-.008.007 0 .022.007.04.036.033.068.01-.007.036-.03.047-.047.018.025.02.068-.026.12.026-.008.097-.044.108-.12.015.015.022.025.03.033h.003c.02.007.07.014.135-.008.007 0 .007.008.007.008-.007.028-.007.057.008.08 0-.016.018-.045.028-.045.018 0 0 .072.044.105.01-.166.154-.126.258-.194.01-.008.01-.008.01.007-.01.02-.02.04-.05.054.116.072.242-.09.274-.177.015-.003.025-.017.033-.032.007.022.01.032-.022.047.115.007.104-.076.144-.068.34.02.085-.288.628-.198.036.006.104-.03.133-.055-.035.068-.038.216.037.23.04.007.105.036.13.058.007.007 0 .007-.004.014-.043 0-.09.01-.108.018-.11.08-.115-.166-.24-.126-.008.006-.022.013-.033.028-.05-.007-.12.057-.108.104.014-.014.043-.032.083-.04-.004.015-.004.018-.004.026-.003.014.004.036.05.036.022 0 .026-.015.044-.015.007 0 .014.006.014.02 0 .044-.15-.028-.125.102 0 .003.015.025.025.04-.003.035.033.078.094.057-.01-.01-.036-.03-.033-.052h.034c.003.007.01 0 .014-.014 0-.007.004-.007.007-.007.008 0 .015.007.015.007 0 .014-.007.014-.007.03 0 0 .003.042.01.042-.007.047.062.097.13.047-.018 0-.06-.004-.068-.033.014-.007.032-.007.035-.014.008-.007.01-.022.01-.05 0-.008.012-.008.016-.008h.032c.014-.007.022 0 .025.007.015.036.047.058.094.044.086-.037.01-.106.082-.12.007 0 .028-.007.046 0 .068.014.162.014.18-.014.018-.03.01-.148-.065-.19-.035-.023.008-.073-.03-.134.067.036.146.06.24.06.18 0 .262-.024.356-.074.1-.058.194-.03.22-.022.02 0 .035.014.02.05-.042.083-.017.097-.046.14-.025.037-.097.008-.15 0-.026 0-.06.022-.06.022-.05.015-.106.054-.114.104.01-.014.047-.043.087-.043 0 .006-.004.02-.004.02-.012.066.057.087.103.044.008-.007.026 0 .01.007-.042.03-.125.084-.074.113.006 0 .02.007.03.014-.013.043 0 .083.03.083-.004-.018-.004-.033.03-.07h.027c.043 0 .047-.085.094-.103.008-.007.012 0 .008 0-.03.047-.047.104-.014.12.003 0 .018 0 .028.006.004.036.044.054.105.03-.008-.008-.036-.023-.036-.037.015-.015.033-.043.037-.043.054-.097-.025-.097-.015-.133.01-.058.094-.022.12-.112.006-.02.006-.057-.026-.065-.004 0-.004-.007-.004-.007h.004c.025 0 .054.007.075-.036-.07.007-.027-.047-.027-.082 0-.008 0-.015.003-.022.025-.014.05-.05.054-.097-.03.028-.115.06-.108 0 0 0 .007-.05-.065-.037-.122.014-.29-.014-.514-.036-.014 0-.025-.007 0-.014.223-.015.68-.047.68-.195 0-.122-.022-.19-.41-.19-.388 0-1.27.14-1.27-.08 0-.11.17-.096.374-.082m-1.27-.03c-.02.037-.064.066-.1.03-.028-.036.004-.043-.032-.104.036.028.11.068.133.075m.08.24c-.015 0-.015-.042-.037-.042-.02-.007-.017.014-.006.043-.03-.007-.05-.03-.068 0-.015.025-.008.04.01.06.01.016 0 .037-.007.066-.012.03-.05.06-.094.04-.04-.018-.033-.07-.025-.098.015-.028.026-.043.04-.043.025 0 .043-.007.05-.025.01-.036-.017-.05-.043-.065.03-.014.043-.028.03-.036-.022-.02-.048.008-.055-.007-.003-.014.015-.02.025-.03.01-.01.022-.01.04 0l.122.06c.014.006.024.013.024.035 0 .007.008.036-.007.043m.065-.093c-.043 0-.06-.062-.05-.105.014.022.104.05.15.06-.07.016-.053.045-.1.045M42.927 31.27c.01.03.04.05.093.073.5.14 1.076-.24 1.38-.148-.394-.144-.65.097-1.027.018.223 0 .46-.046.47-.104-.172.11-.66-.084-.866.05-.014.007-.03.02-.04.035-.154.033-.287.12-.287.23 0 .33 1.287.072 1.287.184 0 .082-.25.168-.59.168-.258 0-.7-.17-1.255-.03v-.006c.04-.094.155-.234.105-.295.047-.022.075-.057.08-.093-.03-.033-.062-.04-.09-.047.01-.022-.005-.043-.026-.065-.003 0-.014-.047-.024-.06-.015-.015-.054-.05-.108-.073-.054-.03-.09-.03-.112-.037-.014-.007-.06.014-.068.014-.022-.007-.058-.007-.06.022-.023-.015-.052-.03-.084-.037-.02.043-.03.08-.014.133-.043.007-.087.115-.13.1.015.04.03.048.043.048-.036.07-.054.147-.1.154.02.022.04.036.05.043-.025.098-.032.228-.022.318-.074-.083-.193-.274-.275-.317-.072-.042-.072-.074-.072-.153 0-.06.025-.12.02-.177 0-.007-.006-.046-.013-.06-.01-.044-.065-.073-.097-.065.014.014.036.028.04.064-.015.014-.03.035-.03.035-.014.018-.02.04 0 .06.008.01.008.01.008.016 0 .008-.003.022-.006.03 0 .014-.004.007-.008 0-.014-.044-.043-.105-.08-.112h-.028v-.014c0-.043-.05-.08-.107-.03.01.008.037.008.044.023-.004.02-.015.046-.015.053-.004.044.035.065.09.065.006 0 .014 0 .014.007 0 .008.003.015.007.022 0 .007-.003.007-.006.007-.087-.035-.123 0-.126.034 0 .007 0 .028.003.036-.027.02-.038.064.016.107 0-.02-.004-.05.02-.057.005 0 .01 0 .016-.007l.02.02c.005.008.02 0 .052-.013.003-.007.007-.007.014 0 .01 0 .018.007.025.014.004.007.004.007 0 .015-.054.053-.043.103.03.117.01.007.013.007.013.022-.007.103-.143.082-.136-.023-.08.12.057.21.158.148.007 0 .01 0 .01.007.008.014.015.036.037.036-.004-.007.003-.022.02-.022.008 0 .012 0 .012.008 0 .032.007.068.047.068-.007-.022 0-.036.01-.036.022 0 0 .155.152.24.025.09.097.14.176.134.025.065.065.12.054.12-.022 0-.202-.023-.248.006-.036.02-.105.05-.166.057l-.01.015c.007-.008.007-.015.01-.015-.05.007-.097 0-.122-.028-.018-.03-.014-.05-.036-.083-.014-.03-.036-.043-.054-.05h-.043c-.025-.03-.086-.03-.115-.015.02.007.047.014.065.043-.008.022-.015.033-.015.04-.014.02-.003.057.1.093.008 0 .02.015.008.015-.018.007-.04.014-.06-.008-.048-.028-.048-.08-.102-.05 0 0-.018.015-.032.015h-.01c-.05-.008-.123.057-.087.11.006-.013.02-.04.056-.046.004.01.01.024.015.032.004.05.03.1.14.02.015-.006.015 0 .012.008-.025.05-.105.094-.043.133.002 0 .01.008.024.015-.004.007-.004.007-.004.014-.014.065.058.112.094.104-.015-.014-.044-.046-.036-.097.014.007.032.014.036.014.05-.022.025-.09.057-.112.012-.007.012 0 .012.015.007.018.018.082.083.075.06-.007.09-.057.086-.09 0-.007 0-.007.005-.007.02.014.043.04.032.068.01 0 .036-.02.047-.04.014.026.018.07-.025.105.024-.007.088-.036.103-.104.01.003.02.018.02.032.005 0 .005 0 .01-.007.02.013.06.013.128 0 .005-.008.008 0 .008.006-.007.022-.007.05.007.065 0-.006.018-.035.026-.035.02 0 0 .065.04.104.01-.163.1-.098.205-.166.01 0 .015 0 .01.003-.01.022-.02.044-.046.058.04 0 .154-.05.154-.11 0-.023.075-.095.097-.282h.037c.14-.007.2-.108.342-.115-.037.036-.048.137-.048.19.003.08.1.162.126.184.007.007.003.007-.004.014-.043 0-.086.015-.1.022-.112.075-.112-.162-.23-.12-.008.008-.026.02-.033.026-.05-.007-.11.05-.096.1.014-.013.036-.035.072-.042v.03c0 .013.003.035.043.035.024 0 .028-.015.046-.015.007 0 .014.007.014.022 0 .04-.148-.03-.12.09 0 .007.016.03.02.036-.004.04.028.075.093.054-.015-.008-.036-.022-.033-.04h.03c.006 0 .014 0 .017-.02 0 0 0-.01.004-.01.004.01.015.01.015.016 0 .007-.014.014-.014.025 0 .007.008.036.02.036-.012.044.056.094.12.05-.017-.006-.057-.006-.064-.035.015 0 .033-.007.033-.014.01 0 .013-.02.013-.035 0-.01.007-.01.01-.01h.03c.014-.008.02 0 .025.006.014.026.046.048.09.034.08-.022.014-.097.075-.112h.047c.057.015.11.03.13 0 .014-.03.007-.147-.062-.183-.04-.023.058-.267-.13-.38.087.023.37.062.414-.006.09.022.19.076.202.097.01.015.018.037-.007.05-.076.052-.065.07-.108.084l-.01.007c-.02-.027-.045-.067-.078-.074-.02-.022-.05-.007-.054 0-.04-.015-.1 0-.118.047.018-.008.054-.01.086-.008-.004.008-.007.015-.007.022-.005.014.002.03.017.036.003 0 .003.007.007.007.004.007.004.015-.007.015-.043-.015-.126-.015-.104.035 0 0 .003.022.007.036-.03.018-.04.07-.018.09.007-.02.014-.028.05-.043.01.007.022.022.022.022.025.03.068-.043.115-.022.002 0 .002 0 .002.007-.043.015-.086.05-.068.087l.014.025c-.014.03-.003.08.05.093-.003-.007-.014-.036-.006-.057.014 0 .043-.007.046-.007.087-.043.033-.096.06-.125.034-.03.073.057.142-.007.007-.008.02-.036.01-.062 0-.007 0-.007.004-.007.018.017.032.04.065.017-.052-.04.006-.06.024-.097.004-.007.01-.007.014-.007.026.007.06 0 .094-.043-.04.007-.14-.054-.076-.076.08-.03.1-.08.065-.118-.067-.094-.208-.1-.21-.198h.125c.435 0 .712-.12.7-.26-.013-.294-1.308.03-1.308-.19 0-.064.08-.11.18-.147m-.942.044c.014.022.1.047.143.06-.064.016-.05.037-.093.037-.04 0-.058-.056-.05-.096m-.087-.043c-.02.03-.06.066-.097.03-.028-.03 0-.044-.03-.1.03.028.107.064.128.07m-.14.296c.014-.022.025-.043.036-.043.025 0 .04-.008.047-.026.012-.036-.014-.043-.04-.064.03-.008.04-.015.03-.03-.022-.013-.047.008-.05 0-.008-.013.014-.028.02-.035.008-.014.026-.007.04 0l.112.057c.018.008.025.015.025.03 0 .014.008.042-.007.042-.014 0-.014-.036-.03-.043-.02 0-.02.015-.006.043-.03-.007-.057-.02-.068.004-.014.023-.01.037.01.06.008.013 0 .034-.01.056-.01.03-.043.068-.083.047-.043-.025-.04-.076-.025-.097M21.898 8.647c0-.176-.14-.316-.317-.316-.172 0-.312.14-.312.317 0 .17.14.31.313.31.177 0 .318-.14.318-.31M21.79 7.804c0-.17-.14-.316-.318-.316-.172 0-.312.147-.312.316 0 .177.14.317.312.317.177 0 .317-.14.317-.316M21.968 7.432c.176 0 .316-.14.316-.31 0-.175-.14-.315-.316-.315-.173 0-.313.14-.313.316 0 .17.14.31.313.31M22.804 7.383c.18 0 .32-.14.32-.316 0-.177-.14-.317-.32-.317-.173 0-.313.14-.313.317 0 .176.14.316.314.316M26.38 6.8c.12.12.326.12.445-.007.122-.12.122-.317 0-.442-.123-.118-.324-.118-.446 0-.12.126-.12.324 0 .45M26.312 6.126c.12-.12.12-.317 0-.443-.122-.125-.327-.125-.446 0-.122.12-.122.324 0 .443.123.126.324.126.446 0M25.476 5.992c.123-.126.123-.323 0-.45-.122-.118-.323-.118-.445 0-.122.127-.122.324 0 .45.123.12.324.12.446 0M24.763 6.52c.123-.12.123-.317 0-.443-.122-.126-.323-.126-.446 0-.122.126-.122.324 0 .45.123.118.324.118.446-.008M22.758 6.084l.248.554.324-.385c.01.007.025.014.036.014.03.184.04.504.04.687 0 .22.176.403.402.403.22 0 .396-.184.396-.403 0-.155-.083-.288-.21-.356-.153-.122-.33-.284-.44-.417.006-.014.013-.024.017-.046l.537.047-.216-.567-.395.345c-.007-.007-.01-.007-.025-.015l-.03-.582-.545.21.367.43c-.01.012-.018.026-.022.048l-.482.036zM26.4 7.067c.122.19.165.28.176.435-.097-.043-.205-.14-.327-.302l.067.73c.083-.126.158-.216.26-.26-.026.48-.22.674-.382.71-.194.035-.345-.098-.374-.245-.04-.212.145-.345.335-.155.03-.442-.32-.435-.478-.244.187-.432.108-.712-.266-.942-.236.4-.136.658.166.96-.294-.148-.557.1-.298.43.057-.283.302-.225.36.008.05.187-.137.443-.45.533-.453.133-.597-.155-.705-.392.094-.072.33-.05.586.118l-.22-.714c-.104.252-.252.356-.432.435-.014-.21.137-.632.137-.632l-.863.356s.4.19.536.352c-.176.072-.356.098-.608-.014l.342.67c.072-.296.223-.48.334-.5.09.25.19.56-.226.78-.292.147-.594.104-.698-.072-.12-.195.014-.42.252-.252-.04-.414-.403-.414-.507-.105.003-.42-.105-.676-.55-.8-.116.426.028.682.46.854-.245-.018-.504.22-.17.515 0-.274.22-.302.346-.126.09.133.068.33-.1.435-.14.09-.41.084-.767-.24.105-.04.223-.018.374.007l-.464-.568c.03.204.015.35-.028.44-.097-.11-.13-.207-.177-.434l-.355.317c.335.212.727.528 1.194 1.172.488-.31 1.37-.73 1.92-.953.546-.227 1.474-.536 2.04-.662-.116-.787-.062-1.283.038-1.665l-.478.022zM33.308 27.092c.122-.338-.5-.716-.565-1.2-.075-.487-.014-.944-.564-1.587-.548-.633-2.43-2.65-2.997-3.287.144-.015.475-.094.827.237.205.19.604.568.978.942.5-1.273 1.115-2.222 1.996-3.21.115-.127.23-.253.35-.37-.325.096-.828.17-1.12.37-.02-.555.022-1.004-.352-1.357.144-.773.018-1.704-1.72-2.86.886.213 1.414 1.012 2.09.404-.61-.022-.625-1.348-2.82-2.453.84-.013 1.497 1.343 2.468.57-.917-.105-1.22-1.734-2.87-2.234.572.065 1.162.34 1.655-.33-.576.14-.91-.385-1.525-.436.226-.715.172-1.157-.076-1.686-.43.03-.87.162-1.19.424-.043-.395-.46-.417-.82-.388.022.17.097.413-.09.45-.295.057-1.27.323-2.032.61-.758.296-1.625.835-1.877 1.01-.154.11-.288-.146-.374-.258-.27.23-.53.522-.337.824-.417.032-.888.147-1.28.457 0 .49.406.967 1.014 1.226-1.02 1.02-.1 1.952-.996 2.836 1.26.05 1.044-1.712 1.677-1.953-.06 1.23-.756 1.457-.756 2.79 0 .71.43 1.483.045 1.954 1.057-.295.784-2.63 1.442-3.33.11.4.043.787-.094 1.187-.367 1.09.047 2.578-.528 3.063 1.075-.107 1.204-1.834 2.09-2.467-.76 1.554-1.547 4.87-2.68 6.528-1.838 2.477-2.92 5.505-4.607 5.505-.744 0-1.302-.456-1.302-1.4 0-2.814 4.837-4.753 4.837-7.752 0-1.333-1.093-1.855-1.773-1.855-.46 0-1.017.234-1.48.612-.2-.076-.404-.12-.573-.12-1.705 0-1.248 3.07-2.737 3.043.586.328 1.608-.316 2.205-1.176-.25 1.99-3.115 1.464-2.9 3.852.407-1.877 4.967-1.597 4.967-4.44 0-.314-.16-.59-.388-.792.342-.227.665-.303.964-.303.55 0 1.043.408 1.043 1.21 0 2.513-4.8 4.635-4.8 7.724 0 .522.15.957.403 1.29-.338.152-.69.088-.982-.258-.024.802 1.116 1.302 1.83.9.16.057.325.093.498.1-.22.597-.95.77-1.335.745 1.18.925 3.23-.287 3.118-1.34.936-.752 1.53-2.047 2.202-2.896-.043.198-.075.392-.104.59-.69 1.252-1.334 2.374-1.514 4.024-.15 1.385-.85 2.622-1.816 2.622-.22 0-.565-.277-.73-.137-.302.263-.015.536-.015.788 0 .396-.758.788-.758 1.997 0 .546.32 1.2.197 1.564.31-.157.723-.68.892-1.348.335 1.604-.687 1.532.043 2.953.097-.47.565-.67.853-.47.287.196.154.337-.065.545-.21.212-.403 1.28.564 1.216-.18-.12-.19-.4.287-.504.665-.136.863.173 1.58.173.434 0 .556-.575.91-.575.344 0 .344.266.218.47.568-.154.673-.456.673-.773 0-.316-.26-.51-.065-.64.198-.118.852.015.59.55.334-.064.517-.302.517-.715 0-.41-.47-.647-.91-.58-.07-.25-.456-.384-.805-.384-.784 0-.662.62-1.205.62-.863 0-1.7-1.127-1.7-3.022 0-1.01 1.093-1.27 1.862-1.6.773-.338 2.13-1.173 2.942-2.528.636-1.07.65-2.234.572-3.618 1.09.626 1.22 1.517 1.22 2.168 0 .853-.44 1.194-.79 1.35-.29.132-.387.085-.42.254-.043.216.105.342.23.414.4.197.313.575.425.974.112.417.472 1.054 1.083 1.525.07-.252.05-.654.01-1.18.843.407.167 2.093 1.792 2.093-.298-.176-.216-.618-.043-.672.17-.065.388.104.705.547.313.435.226.4.996.4.766 0 .42-.267.83-.267s.375.47.16.816c.686-.205.894-.726.657-1.266.604-.33.928.14 1.014.47.597-.596 0-1.32-.464-1.362.01-.226-.19-.456-.446-.47-.248-.022-.49-.037-.762-.022-.284.02-.44.42-.77.42-1.017 0-3.035-1.837-3.035-2.64 0-.8 1.928-1.283 1.928-2.52 0-1.622-1.59-2.172-2.928-3.22.47-.53 1.867-.657 2.662-.272.08-.45.373-.338.484-1.115.28.687-.01 1.277.277 1.565.224-.33.8-.28.767-1.13.176.533-.227 1.342.176 1.69.068-.435.327-.51.493-.51.165 0 .305.12.305.37 0 .655-.793.353-.793 1.076 0 .31.388.413.388.618 0 .198-.32.507-.705.237.13.293.38.537.72.537.348 0 .73-.28.877-.647.183.464.043.978-.29 1.046.35.177 1.19.008 1.092-1.06.466.08.718.402.438.97.384-.1.74-.287.74-.7 0-.317-.348-.41-.19-.824m-9.13-14.597c-.44.036-.43-.378-1.206-.568.543-.112 1.248-.385 1.856-.62.115.508-.097 1.14-.65 1.188m3.117 3.308c-.56.25-1.003-.25-1.11-.59-.116-.34-.203-.625-.07-.75.24-.238.324-.43.177-.73-.173-.353-.543-.184-.943-.084.186-.34.204-.576-.05-.544-.303.036-.307.522-.472.464-.165-.054-.075-.338-.075-.49.003-.204.133-.283.345-.366l1.64-.625c.208-.077.356-.12.5.027.11.105.37.245.29.4-.082.16-.424-.187-.66 0-.21.154-.03.31.337.42-.356.212-.73.345-.61.72.1.316.286.4.632.4.18 0 .313.265.467.588.158.317.205.9-.4 1.158m.098-4.57c-.44.345-1.02.028-1.287-.42.604-.256 1.305-.53 1.776-.825-.434.67-.135.97-.488 1.245M64.093 34.853c0 .752.61 1.356 1.36 1.356.747 0 1.355-.605 1.355-1.357 0-.744-.608-1.356-1.356-1.356-.748 0-1.36.612-1.36 1.356m.346 0c0-.554.457-1.01 1.014-1.01.554 0 1.003.456 1.003 1.01s-.45 1.01-1.003 1.01c-.557 0-1.014-.456-1.014-1.01M59.025 36.103c-.18.126-.298.302-.338.507-.04.238.033.475.212.68.165.183.406.317.676.367.273.047.546.014.77-.108.236-.127.388-.32.427-.57.09-.47-.313-.934-.885-1.038-.316-.058-.63 0-.863.16m.615 1.21c-.388-.072-.665-.36-.607-.64.025-.14.115-.23.19-.28.162-.112.38-.148.604-.112.346.06.615.316.615.575 0 .022-.003.043-.007.072-.05.28-.414.453-.795.385M51.545 17.055c-.424.324-.547.877-.277 1.23.273.345.834.356 1.26.036.23-.176.38-.43.412-.69.03-.2-.025-.392-.136-.54-.115-.14-.284-.24-.486-.265-.255-.036-.54.054-.773.23m-.076.795c0-.177.107-.382.29-.522.16-.12.346-.183.515-.162.08.015.18.043.252.133.072.1.08.212.068.287-.022.162-.126.338-.284.457-.258.205-.614.22-.77.03-.045-.07-.07-.142-.07-.224M57.43 33.85c-.204.196-.323.498-.33.815v.025c0 .31.104.597.302.795.15.162.345.252.547.252.204.007.4-.076.56-.23.2-.198.323-.493.334-.81.004-.28-.08-.54-.23-.744-.162-.21-.38-.33-.626-.335-.2 0-.4.076-.557.23m.526 1.547c-.144-.007-.24-.086-.302-.148-.137-.133-.212-.352-.205-.575.002-.234.082-.44.222-.572.068-.06.17-.14.313-.133.284 0 .517.33.51.723-.007.22-.09.435-.23.572-.06.06-.17.133-.31.133m-.006.342zM50.786 22.877c-.208.072-.37.22-.457.392-.21.435.053 1 .575 1.244.288.14.608.17.877.072.213-.072.374-.213.457-.396.09-.183.096-.392.02-.604-.09-.266-.312-.496-.604-.637-.284-.145-.604-.163-.87-.073m.27 1.327c-.353-.17-.536-.517-.41-.78.057-.133.173-.187.252-.216.187-.064.41-.05.61.054.206.1.364.263.425.443.03.08.058.212-.007.338-.057.125-.172.183-.26.22-.182.06-.402.038-.61-.06" fill="#231f20"/>
  <path d="M65.055 21.48c.442 1.215 1.32 1.65 1.992 1.34-1.5-.175-.284-2.74-2.215-2.74-.108 0-.212.015-.31.037-.326-.345-.7-.493-1.254-.493-.82 0-2.223.788-2.223 2.417 0 3.5 4.068 3.81 4.068 6.906 0 .906-.684 1.467-1.446 1.467-.687 0-1.237-.766-1.813-1.964-.273-.58-.866-1.356-1.492-2.18.187.133.396.212.604.22.22.007.417-.073.565-.213.148-.133.23-.33.242-.546v-.035c0-.274-.123-.56-.33-.788-.224-.23-.512-.37-.8-.378-.22-.008-.42.068-.564.208-.147.14-.234.33-.237.55v.033c0 .116.022.242.065.353-.877-1.144-1.69-2.262-1.69-2.88 0-.54.374-1.018.838-1.594.018.014.158.09.158.09l.124-.134c.16-.183.503-.554 1.204-1.305l.043-.05-.002.008.17-.184-.436-.35c.115-.26.215-.55.29-.858.138.565.425.92.825.81-.267-.583.27-1.364-.083-2.788.334.554.813.842 1.158.737-.903-.794.27-1.913-.906-3.64.384.134.636.06.81-.132-1.073-.155-.584-1.518-2.465-2.01.47-.083.742-.356.674-.597-.496.352-.932-.673-2.56-.644-.1-.61-.666-1.25-1.306-1.56.122.47.01.898-.115 1.25L51.33 4.63c-.156-.147-.242-.172-.286-.126-.043.058-.04.148.062.263l4.556 5.714c-.345.114-.68.262-1.036.388-.223.082-.395.31-.395.59-.84.42-1.585.942-1.956 1.276-.28.255-.503.317-.255.892.092.22-.2.76.46.36.434-.26 1.416-.795 1.56-.457.08.175-.406.405-.74.53-.335.13-.695.39-.64.515.05.126.316-.007.33.126.022.156.126.29.26.29.132 0 .3-.282.41-.18.107.09-.055.708-.16.87.515-.065.846-.558.86-.943.014-.377.12-.478.198-.525.08-.057.172.406.068.687.273-.06.554-.422.518-1.083.137-.112.277-.19.38-.19.174 0 .52.477 1.008.477.903 0 1.403-.73 1.457-1.075.042-.282.02-.548-.13-.753.323.263.427.67.427.97 0 1.278-2.258 1.882-3.186 2.767-.035.03-.067.057-.1.093l-1.06-.413-.073.237c-.003.015-.014.05-.06.2-.112.362-.342 1.12-.483 1.556-.003 0-.057.176-.057.176l.093.058c-.63.834-1.132 1.77-1.248 2.733-.255-.263-.496-.478-.773-.705.028-.097.046-.194.057-.295.014-.288-.076-.56-.245-.752-.13-.146-.305-.23-.49-.243-.182-.007-.366.054-.517.198-.028.025-.06.054-.09.09-.035-.03-.075-.058-.11-.087-.35-.266-.785-.59-1.047-.877-.112-.125-.223-.186-.46-.186-.094 0-.317-.015-.476-.015-.154 0-.244.125-.424.28-.09.076-.327.266-.604.47.133.134.26.274.385.415.067.075.135.154.2.237.076-.054.137-.104.187-.14.112-.097.255-.12.392-.12.136 0 .326.105.46.31.097.14.952 1.273 1.664 2.05l-.226.086c-.302.126-.99.098-1.29.076-.31-.03-.368-.104-.573.227-.083.12-.18.267-.284.393-.1.125-.18.266.037.625.313.532 1.09 1.924 1.35 2.557.254.626.56.73 1.056.928.496.21 1.338.694 1.438.805l.034-.48c-.148-.15-.62-.332-.8-.39-.175-.06-.225-.147-.01-.147.213 0 .81.213 1.227.39-.125-.48-.575-.993-.844-1.288-.356-.097-.72-.097-.867.014.02.097-.055.227-.202.227-.137 0-.23-.123-.19-.248.046-.148.258-.19.215-.464-.047-.266-.38-.31-.597-.337-.302-.436-.655-1.08-.81-1.335-.158-.26-.064-.406.044-.496.26-.212.798.112 1.877.184.374.018.852.046 1.338.068.14 1.25.644 2.445 2.388 2.88.852.21 1.73.835 2.032 1.65-3.485-.057-4.032 1.3-4.032 2.58 0 1.452 1.227 1.373 1.227 2.463 0 .956-2.928 1.348-3.812 1.48-.748.11-1.176.275-1.536.634-.36.36-.723.71-1.38 1.364 0 0 .28.065.556.05l.497-.64c.147-.22.248-.39.345-.38.097.02.032.183-.086.41l-.407.686c1.72.12 1.834-.518 1.834-.787 0-.26-.427-.436-.178-.605.244-.16.456-.046.654.184.194.226.26.42.734.248 0 0 3.747-1.554 4.222-1.773.424-.187.302-.377.05-.59-.28-.23-.327-.604-.327-.996 0-1.132.68-1.48 1.898-1.46-.02.195-.036.38-.036.548 0 1.77 2.672 3.5 3.4 3.5.32 0 .754-.242.783.826.018.78.176 1.334.036 2.24-.14.907-.403 1.047-.946 1.428-.543.385-1.057 1.58-1.287 1.83.24.162.503.184.704-.4.166-.484.356-.826.57-.94-.214.528-.368 1.308-.47 1.545.684.12 1.792-.507 1.792-.988 0-.48-.382-.444-.382-.767 0-.14.172-.295.38-.295.274 0 .483.215.504.316.303-.162.493-.464.482-1.17-.007-.272-.018-.56-.028-.855.018.043.036.08.057.118.133.198.35.324.62.345.25.022.516-.05.747-.205.266-.18.456-.435.51-.715.015-.06.018-.12.018-.176 0-.148-.04-.295-.122-.414-.11-.17-.29-.288-.503-.33-.28-.062-.594.006-.86.183-.252.16-.428.4-.496.654-.058-.964-.126-1.87-.1-2.233.04-.543.06-.78-.123-.867-.18-.075-.378.227-.64.227-.263 0-1.047-.73-1.047-1.49 0-.765.824-1.747.784-2.793-.013-.33.192-.5.32-.205.16.358.397.84.75 1.236-.22 1.312 1.23 2.596 2.42 1.65-.59.083-.993-.435-1.256-.963.105.014.21.028.32.028.062 0 .123-.006.18-.006.417.518 1.744.47 2.09-.81-.234.27-.712.472-1.058.43.5-.393.76-1.026.76-1.706 0-3.337-4.05-3.73-4.05-6.764 0-1.13.99-1.856 1.672-1.856.263 0 .464.08.63.205-.263.267-.403.67-.382 1.158.108 2.404 4.028 2.278 4.078 3.436.44-1.74-2.48-1.2-2.59-3.546m-10.428-9.203c.19-.363 0-.913.662-.913.327 0 .618.324 1.01.45-.636.057-1.212.197-1.672.463m-3.582 7.355c-.007.19-.086.366-.208.478-.054.05-.144.104-.26.104-.226-.01-.402-.28-.402-.582v-.047c.01-.198.083-.367.205-.48.057-.05.147-.103.265-.1.115.008.198.073.248.13.108.12.166.302.15.497m11.577 16.85c.04-.19.173-.373.36-.5.19-.125.414-.175.6-.132.087.015.21.065.285.184.08.11.072.237.057.33-.04.187-.176.37-.363.497-.332.213-.727.19-.886-.046-.075-.115-.072-.248-.054-.33m-2.434-11.18c.003-.095.03-.22.13-.31.1-.1.23-.116.32-.116.19.007.395.108.55.274.154.16.244.374.237.564-.004.09-.03.216-.13.31-.1.097-.23.11-.316.11-.19 0-.4-.103-.554-.265-.154-.168-.24-.38-.237-.567m-6.646-7.545c.19-.59.547-1.762.547-1.762l.615.244c-.18.07-.4.238-.59.414.14.065.392.08.56-.036l-.247.618c-.058-.097-.234-.323-.403-.363-.126.497.183.687.414.8.374.196.618.225.722.05.12-.213-.125-.508-.442-.38-.036-.322.148-.49.36-.49.17 0 .305.153.352.362-.02-.525.216-.932.698-1.086.18.51.032.855-.353 1.23.202-.088.435-.073.53.067.114.176.075.42-.213.575-.065-.338-.457-.363-.568-.147-.112.22.057.42.402.62.403.218.723.088.94-.26-.134-.05-.364-.022-.576.11l.41-.765c.02.112.086.302.258.45.062-.17.152-.47.026-.745l.884.514c-.298.028-.514.25-.633.39.216.073.414.037.522 0l-.46.74c.007-.253-.08-.465-.187-.555-.195.356-.152.7.244.942.342.2.604.245.734.04.133-.21-.087-.533-.41-.42-.01-.325.18-.48.392-.472.17.014.295.205.327.42.126-.517.352-.812.88-.91.112.49-.12.9-.59 1.144.21-.065.41-.03.494.118.107.19.05.428-.25.56-.042-.34-.424-.405-.55-.193-.097.18.055.37.407.604.216.14.532.315.903-.044-.123-.133-.407-.17-.518-.17l.413-.52c-.014.197.123.41.245.5.06-.26.097-.526.068-.716l.518.413s-.834.892-1.25 1.35l-5.626-3.245zm5.488 13.83c-.223.314-.604.43-.852.252-.245-.176-.267-.568-.044-.884.22-.317.597-.428.85-.256.247.177.265.572.046.89m1.597-2.526c-.22.31-.6.425-.85.248-.244-.176-.262-.568-.042-.884.226-.317.604-.425.852-.256.245.177.263.576.04.892" fill="#231f20"/>
  <g>
    <path d="M102.642 81.257c2.866 0 5.184-2.255 5.184-6.28 0-4.057-2.318-6.31-5.184-6.31-2.867 0-5.185 2.253-5.185 6.31 0 4.025 2.318 6.28 5.185 6.28m0-15.007c5.28 0 8.083 3.833 8.083 8.727 0 4.863-2.803 8.696-8.083 8.696-5.283 0-8.083-3.833-8.083-8.696 0-4.894 2.8-8.727 8.082-8.727" fill="#231f20"/>
    <g fill="#231f20">
      <path d="M13.934 59.553h3.21v10.37h12.7v-10.37h3.21v24.12h-3.21V72.625h-12.7v11.048h-3.21v-24.12zM37.5 59.553h4.39l7.6 20.268 7.636-20.267h4.39v24.12h-3.04V63.606h-.068l-7.532 20.067H48.14l-7.534-20.067h-.066v20.067H37.5v-24.12z"/>
    </g>
    <path d="M82.85 59.058l1.336.046 1.336.185 1.245.32 1.152.417 1.06.552.968.69.83.83.736.967.646 1.108.46 1.244.325 1.428H89.81l-.278-1.106-.46-.968-.6-.83-.69-.69-.83-.6-.923-.415-.968-.325-1.107-.184-1.106-.046-1.385.093-1.197.323-1.107.462-.92.598-.877.738-.69.876-.6 1.014-.462 1.06-.368 1.107-.276 1.197-.138 1.245-.046 1.245.046 1.337.23 1.29.323 1.198.508 1.152.6 1.06.737.97.876.782 1.014.692 1.107.46 1.245.323 1.384.138 1.38-.138 1.245-.277 1.153-.46 1.015-.6.83-.783.737-.875.507-1.015.415-1.106.185-1.15.046-1.293H82.85V70.72h10.324v12.4h-1.982l-.83-2.95-.83.968-.967.784-1.06.645-1.108.508-1.198.32-1.153.187-1.198.09-1.707-.137-1.567-.323-1.43-.552-1.336-.692-1.153-.923-1.06-1.013-.875-1.153-.738-1.292-.553-1.336-.414-1.43-.276-1.475-.093-1.52.093-1.568.184-1.523.322-1.43.46-1.38.6-1.292.738-1.198.876-1.106.968-.92 1.153-.832 1.245-.644 1.382-.462 1.522-.323 1.66-.093z" fill="#231f20" fill-rule="evenodd" stroke-width=".016" stroke-linejoin="round" stroke-miterlimit="10"/>
    <path d="M119.77 83.673h-2.94l-6.206-16.71h3.07l4.688 13.928h.064l4.558-13.928h2.877l-6.11 16.71zM138.498 77.994c-.485 2.165-2.064 3.255-4.322 3.255-3.643 0-5.287-2.58-5.193-5.482h12.48c.16-4.024-1.645-9.537-7.546-9.537-4.542 0-7.833 3.673-7.833 8.675.162 5.092 2.676 8.768 7.99 8.768 3.74 0 6.388-2.003 7.132-5.68zm-9.515-4.642c.198-2.55 1.906-4.704 4.772-4.704 2.708 0 4.675 2.093 4.8 4.704zM143.716 83.673h2.74v-7.42c0-4.22 1.612-6.735 6.028-6.735v-2.902c-2.967-.097-4.805 1.223-6.124 3.898h-.065v-3.51h-2.58z" fill="#231f20"/>
    <path d="M162.256 66.684l1.216.046 1.082.225.855.36.766.45.585.633.452.675.36.81.226.857.135.99.045 1.038v10.904h-2.703v-11.22l-.135-.99-.27-.81-.496-.632-.676-.496-.858-.316-.945-.135-1.037.09-.946.225-.766.407-.675.494-.54.586-.406.72-.315.857-.18.855-.047.992v9.373h-2.748V67.046h2.568v2.658h.045l.676-.946.72-.766.856-.586.947-.405 1.082-.224 1.126-.09z" fill="#231f20" fill-rule="evenodd" stroke-width=".044" stroke-linejoin="round" stroke-miterlimit="10"/>
    <path d="M207.472 77.994c-.485 2.165-2.064 3.255-4.322 3.255-3.643 0-5.287-2.58-5.193-5.482h12.48c.16-4.024-1.645-9.537-7.546-9.537-4.54 0-7.832 3.673-7.832 8.675.162 5.092 2.676 8.768 7.99 8.768 3.74 0 6.388-2.003 7.132-5.68zm-9.515-4.642c.198-2.55 1.906-4.704 4.772-4.704 2.707 0 4.674 2.093 4.8 4.704z" fill="#231f20"/>
    <path d="M220.806 66.684l1.216.046 1.082.225.856.36.766.45.585.633.452.675.36.81.226.857.136.99.045 1.038v10.904h-2.705v-11.22l-.135-.99-.27-.81-.496-.632-.676-.496-.857-.316-.945-.135-1.037.09-.945.225-.767.407-.675.494-.54.586-.406.72-.315.857-.18.855-.047.992v9.373h-2.748V67.046h2.568v2.658h.045l.676-.946.72-.766.857-.586.948-.405 1.08-.224 1.128-.09z" fill="#231f20" fill-rule="evenodd" stroke-width=".044" stroke-linejoin="round" stroke-miterlimit="10"/>
    <path d="M169.444 66.984h2.582v2.452h.065c1.227-1.87 3.1-2.84 5.39-2.84 2.035 0 3.907.808 4.584 2.84 1.13-1.775 3.1-2.84 5.23-2.84 3.325 0 5.55 1.39 5.55 4.842v12.235h-2.742V72.73c0-2.066-.55-3.713-3.228-3.713-2.646 0-4.357 1.68-4.357 4.26v10.396h-2.743V72.73c0-2.164-.68-3.713-3.132-3.713-3.26 0-4.455 3.003-4.455 4.26v10.396h-2.743v-16.69zM233.808 66.984h3.325v2.42h-3.325v10.362c0 1.26.354 1.485 2.065 1.485h1.26v2.423h-2.1c-2.84 0-3.97-.58-3.97-3.65V69.406h-2.84v-2.42h2.84V61.98h2.745v5.004z" fill="#231f20"/>
  </g>
</svg>
