<svg xmlns="http://www.w3.org/2000/svg" id="labour-logo" viewBox="-37 376.539 867 159.588">
  <style>
    .st0{fill:#000000;}
  </style>
  <g id="layer1">
    <g id="g3316">
      <g id="g2564">
        <path id="path2566" class="st0" d="M17.537 532.116c-.937.21-1.702.912-2.256 1.588h13.926c-1.425-2.68-3.143-6.026-3.347-6.995 0 0-6.377 4.958-8.323 5.406"/>
      </g>
      <g id="g2568">
        <path id="path2570" class="st0" d="M-3.81 527.153c.09-1.416 0-6.205-.887-7.263 0 0-.53 2.923-.97 3.9-.3.652-2.817 6.303-4.42 9.92h8.077c-.228-.677-.513-1.467-.733-1.947-.448-.978-1.156-3.193-1.067-4.61"/>
      </g>
      <g id="g2572">
        <path id="path2574" class="st0" d="M225.09 511.773l-52.946.057c-1.775 0-3.208-1.442-3.208-3.21l-.04-128.63c0-1.774-1.442-3.215-3.217-3.215h-20.286c-1.775 0-3.208 1.44-3.208 3.216v149.974c0 1.776 1.433 3.217 3.208 3.217h12.312c.26.058.513.107.79.107h66.595c1.777 0 3.218-1.44 3.218-3.217v-15.09c0-1.766-1.44-3.207-3.217-3.207"/>
      </g>
      <g id="g2576">
        <path id="path2578" class="st0" d="M726.117 476.472V412.59c0-1.777 1.433-3.218 3.208-3.218h19.08c1.783 0 3.216 1.44 3.216 3.217V531.096c0 1.775-1.432 3.208-3.215 3.208h-8.445s-2.573-.39-3.673-3.51c-1.1-3.118-2.386-8.078-2.386-8.078s-1.277-5.87-4.77-2.01c-3.486 3.85-18.673 15.7-48.265 15.414-47.15-.463-44.568-47.14-44.568-57.01v-66.994c0-1.775 1.44-3.216 3.217-3.216h19.08c1.774 0 3.208 1.44 3.208 3.216v68.306c0 8.118-.684 33.778 28.924 33.778 27.418 0 34.593-12.72 35.39-37.728"/>
      </g>
      <g id="g2580">
        <path id="path2582" class="st0" d="M787.99 421.756c-3.486 3.852-4.773-2.02-4.773-2.02s-1.278-4.95-2.386-8.077c-1.098-3.12-3.67-3.51-3.67-3.51h-8.446c-1.775 0-3.216 1.44-3.216 3.216l-.236 119.403c0 1.766 1.44 3.208 3.216 3.208h19.08c1.767 0 3.208-1.442 3.208-3.21v-74.72c.855-5.896 4.3-23.68 23.444-26.075 7.02-.88 10.75-.22 10.75-.22 3.29 0 5.04-.44 5.04-4.17 0-3.72-.212-14.69-.212-14.69s-.228-4.83-4.61-4.61c-4.388.22-19.958 1.32-27.197 6.36-7.238 5.05-9.99 9.113-9.99 9.113"/>
      </g>
      <g id="g2584">
        <path id="path2586" class="st0" d="M340.744 418.51c-14.397-14.072-44.315-12.614-44.315-12.614-57.744-1.784-55.318 39.788-55.318 39.788l-.016 3.428c0 1.775 1.44 3.216 3.217 3.216h18.444c1.775 0 3.208-1.44 3.208-3.216l.31-3.868s2.15-19.69 29.022-18.485c28.95 1.294 30.733 12.132 32.182 25.235 0 0 .162 2.744-2.102 3.232-2.264.48-51.595 4.048-71.163 12.614-19.576 8.576-17.476 28.144-17.476 30.408s-.96 35.122 49.982 36.237c29.6.643 44.48-16.18 44.48-16.18 1.293-1.295 2.588-2.42 3.883.65s2.59 13.747 6.628 14.073c4.048.325 7.77.162 7.77.162s4.038.163 4.038-3.558-.162-73.598-.162-73.598.896-24.316-12.614-37.524m-13.265 62.108s-.156 3.233-.807 8.25c-1.67 12.93-13.265 23.777-29.275 25.235-16.017 1.457-32.996-2.264-33.802-17.793-.815-15.53 28.95-16.816 33.64-17.467s21-2.37 26.685-2.753c2.427-.163 3.885 1.132 3.56 4.528"/>
      </g>
      <g id="g2588">
        <path id="path2590" class="st0" d="M436.987 407.277c-29.73-.366-40.007 12.483-40.007 12.483s-4.04 4.398-3.673-1.1c.367-5.512-.293-37.718-.293-37.718 0-1.775-1.433-3.217-3.208-3.217h-19.08c-1.775 0-3.216 1.442-3.216 3.217v149.965c0 1.775 1.44 3.217 3.216 3.217h8.453s2.564-.39 3.663-3.518c1.108-3.11 2.386-8.07 2.386-8.07s1.286-5.88 4.77-2.02c3.486 3.852 18.722 17.068 48.274 15.415 29.543-1.652 50.838-19.998 50.47-65.152-.365-45.146-22.026-63.135-51.757-63.5m25.326 66.44c-.18 8.257 2.402 41.456-35.97 40.74-29.55-.554-33.402-20.92-33.59-41.294-.228-25.334 5.326-44.78 35.977-44.226 30.65.545 34.128 20.366 33.583 44.78"/>
      </g>
      <g id="g2592">
        <path id="path2594" class="st0" d="M103.592 496.91c-1.066 2.216-2.744 2.656-3.81 2.835-1.06.18-1.418.798-2.655 2.304-1.238 1.506-2.745 3.802-8.152 11.693-5.4 7.883-21.612 4.87-30.642 3.013-9.03-1.865-10.367-4.7-11.075-10.985-.71-6.294 3.9-10.015 5.228-10.634 1.327-.62 7.174-2.924 10.806-6.108s9.478-3.81 10.366-3.81c.88 0 3.274-.18 11.246-1.067 7.972-.88 16.034 1.247 21.522 2.932 4.626 1.417 13.893 6.596 18.34 9.096V388.59c0-6.653-5.392-12.052-12.053-12.052h-12.345c4.413 3.73 11.066 11.165 12.182 18.607 1.4 9.292-8.982 12.386-9.837 12.688-.847.3-1.213.488-1.213.488-3.095-6.432-.302-9.225.977-11.106 1.27-1.88-.61-2.793-2.557-3.648-1.938-.847-2.606-1.694-2.907-2.728-.31-1.035-.49-2.492-1.214-4.007-.733-1.522-2.126-1.758-3.404-1.88-1.27-.122-2.305-.855-3.038-1.034-.725-.18-1.816-.18-1.816-.18l.057 1.035s-3.52-1.823-6.923-4.315c-2.418-1.775-3.053-2.353-4.014-3.917h-5.358c.293 1.425.78 2.248 1.237 2.883.61.856-1.034 3.16-2.605 3.64-1.58.49-5.228-.66-5.228-.66-5.156 1.394-4.977.547-11.11 1.45-6.13.913-7.222 4.984-8.313 7.468-1.1 2.492.847 1.58-2.068 5.71-2.917 4.127-9.17 5.47-11.72 5.406-2.548-.057-1.758-.367-1.636 7.646.122 8.013 1.27 6.922 3.95 7.59 2.67.667 3.696-2.916 4.128-3.46.423-.547.48-1.28-.122-1.337-2.964-.293-4.74-.912-5.586-1.702-.847-.79.366-2.36 1.758-3.337 1.393-.97 5.587-3.217 6.8-3.763 1.213-.545 4.74-1.693 6.32-2.003 1.58-.3 1.815 1.09 2.182 1.824.317.636.122 1.337 1.514 1.158 8.274-1.083 10.08.236 10.627.18.546-.066 1.28-.67 1.4-1.703.115-1.026-2.792-1.637-4.128-2.003s-8.99-.49-8.99-.49-1.938-1.514-2.305-5.154c-.366-3.64 8.803-7.345 12.077-8.257 3.28-.91 11.236-2.067 20.275-.854 9.056 1.213 12.875 6.865 14.455 13.062 1.58 6.19-3.217 8.127-3.95 8.192-.725.057-2.304 1.58-2.972 2.728-.668 1.156-2.793 2.736-4.308 3.648-1.523.904-3.827 2.915-3.827 2.915s-.057 1.516-1.946 2.25c-1.88.723-3.274-3.104-4.43-5.653-1.148-2.548-2.183-3.648-3.16-5.643-.97-2.003-2.55-2.435-3.15-2.435-.612 0-.79 1.033-.79 2.67 0 1.645-1.516 3.282-4.073 4.92-2.55 1.644-7.71-1.15-8.314-1.394-.61-.244-3.518-1.4-4.373-1.767-.847-.36-1.156-.905-1.88-1.76-.734-.847-2.06.61-2.493.912-.423.31-1.026.847.065 2.248 1.09 1.392 4.55 2.55 6.188 3.037 1.645.48 3.46 2.67 4.438 3.46.97.79 2.003 1.524 2.67 1.092 4.513-2.875 10.017-3.65 10.92-3.65.913 0 4.74.066 2.86 5.897-2.582 8.005-10.994 9.65-17.484 9.894-6.498.245-9.837-1.392-10.203-1.392-.36 0-.425.725-.246.725.188 0 2.313 1.523 3.893 2.614 1.57 1.09 4.242 2.793 5.342 2.793 1.09 0 4.673-1.213 5.886-1.523 1.214-.3 4.186-1.026 6.556-1.76 2.37-.723 11.473-8.068 13.11-9.713 1.645-1.637 2.915-5.464 3.526-5.644.603-.18 1.76.79 2.67.912.913.114 2.85-2.614 3.34-4.56.488-1.938.61-2.182 1.156-2.304.546-.122.725 1.213.725 1.213s.667 3.405.365 8.136c-.3 4.74-.733 5.953-2.125 9.96-1.4 4.006-6.19 4.43-7.77 4.918s-5.528 1.76-8.32 2.247c-2.794.482-4.252-1.033-6.133-1.88-.668-.3-4.308-.912-4.61.122-1.31 4.438 6.556 6.857 7.827 7.158 8.33 1.987 19.918-2.003 20.52-6.98.92-7.498 1.76-8.378 2.737-9.47.97-1.09 3.584-.178 3.584-.178.97-.977 5.52-4.316 5.52-4.316s1.458-.725.726-1.88c-.725-1.15-1.214-5.824 4.56-5.22 5.765.61 7.703 8.737 7.703 8.737s2.313 4.804.668 17.003c-1.636 12.198-17.906 24.714-32.718 29.38-14.813 4.675-21.857 4.137-23.68 4.137-1.817 0-5.465-1.458-6.678-1.702-1.214-.243-4.308-2.312-5.342-2.735-1.034-.423-4.61-2.248-5.4-2.606-.79-.367-3.582-2.126-5.22-3.282-1.644-1.15-2.067-2.37-2.613-3.584-.547-1.213-3.52-3.574-3.885-3.884-.367-.3 0-.79 0-.79 3.395 1.458 26.343 4.674 28.167 4.74 1.824.057 10.138.3 11.23.3s3.037.67 3.094-.732c.065-1.392-6.368-2.36-7.1-2.427-.726-.056-3.942-.12-6.312-.422-2.37-.3-8.078-9.17-8.868-10.318-.782-1.156-1.09-.855-2.55-1.58-1.456-.732-6.554-4.673-7.165-5.35-.6-.66.49-3.208-.113-3.876-.61-.675-2.557.416-4.088 1.108-3.624 1.637-4.96-.236-4.96-.236l-4.96-5.204-1.18 2.598s12.516 10.163 16.06 12.996c3.55 2.834.943 3.78.943 3.78s-2.597 2.833-3.542 3.07c-.944.235-8.5-1.182-14.404-2.835-5.904-1.652-7.793-3.54-13.697-8.737-5.905-5.195-8.267-18.656-7.558-21.26.708-2.6.945-6.614.472-7.795-.472-1.18-1.417-5.195.71-5.195s3.777 4.723 8.736 10.39 10.39 7.558 12.516 6.377c2.126-1.18-.708-4.723-1.89-6.848-1.18-2.126-.943-2.834-5.666-8.738s-1.417-10.39-.473-12.516c.945-2.126 3.78-6.14 4.487-12.76.383-3.535 1.775-5.92 3.827-8.03h-50.348c-6.66 0-12.052 5.4-12.052 12.052v42.85c3.29 1.1 10.603 3.615 11.914 4.69 1.702 1.393 16.783 12.785 16.213 33.208-.057 2.183.684 2.89 1.636 3.95.546.602 5.83 5.708 4.92 8.86-2.428-3.584-4.854-5.465-5.587-5.83-.725-.368-1.515-.79-2.06.553-.546 1.328-1.035 4.92-8.258 3.885-6.62-.953-12.076-2.077-18.778-11.173v51.677c0 6.652 5.39 12.05 12.052 12.05h9.61c1.058-2.157 1.66-3.55 2.458-5.398 1.148-2.655 4.87-12.133 6.645-15.146 1.767-3.013 4.34-6.995 4.34-6.995s-.798-6.294-.618-9.926c.17-3.632 2.125-11.693 2.125-11.693s.708-1.32.35-2.744c-.35-1.417-.888-2.915-.53-5.488.35-2.565 1.507-6.555 3.543-8.412 2.036-1.857 3.453-2.923 4.6-2.834 1.157.09 2.924 1.767 5.23 7.174 0 0-1.24.17-2.216-.09-.97-.268-.35.53-.172.8.17.26 2.475 2.034 1.327 4.25-1.156 2.214-6.677 8.876-5.496 10.447.797 1.067 1.245.09 2.482-1.238 1.238-1.327 3.982-4.52 4.43-4.34.44.18-.887 4.788-5.667 9.747 0 0 1.327.62 0 3.095-1.328 2.484-3.282 5.05-3.543 5.578-.268.537-.268 1.775.53 1.067.798-.71 8.322-6.727 15.675-6.727 5.318 0 5.766 1.637 6.735 2.126.88.44 2.215 1.947 2.475 2.745.27.79.62 1.41 1.946 1.857 1.336.44 5.676 1.506 6.295 7.174 0 0 2.305 2.834-.537 7.174 0 0 22.2-2.988 31.613 17.8h44.03c6.66 0 12.052-5.398 12.052-12.05v-23.242c-3.762-2.223-11.906-3.232-13.02-3.232-1.337 0-7.086-.09-8.153 2.125M6.876 446.58c-.71.18-1.523-.163-2.64.953-.357.35-.797 1.133-.82 1.906-.066 2.305-5.05-.09-5.67-.285-1.587-.496-4.07-2.018-9.56-8.215-5.496-6.205-7.442-18.958-7.62-24.006-.18-5.05 2.035-14.26 8.59-22.94C-4.29 385.307 7.136 383.8 8.643 383.8c1.506 0 2.923.18 3.013 1.067.09.886-.18.886-.18 1.945 0 0 .8 1.946.53 5.05-.603 7.075-7.345 12.58-10.627 15.324-3.275 2.744-2.924 6.375-2.835 10.007.09 3.624 2.924 15.676 3.542 17.712s4.626 9.054 5.253 9.942c.62.887.236 1.547-.464 1.726m17.58 37.15c-3.582-2.55-5.642-7.346-7.825-13.543-2.19-6.19-3.46-10.505-4.437-13.29-.97-2.793-1.637-3.037-1.76-3.77-.12-.725.123-1.148.425-1.45 0 0 5.342.847 9.78 2.85 4.43 2.004 4.307 2.37 8.127 4.92 3.827 2.548 5.35 7.825 6.376 9.77 1.035 1.947 4.57 3.43 5.058 3.674.488.235 2.076 1.39 2.076 1.39 15.423 5.89 25.773 6.353 26.262 6.475.49.114.725.545.725.545-1.457 2.24-15.178 2.67-15.178 2.67s-4.73-.12-12.5 2.127c-7.777 2.24-13.542.18-17.125-2.37"/>
      </g>
      <g id="g2596">
        <path id="path2598" class="st0" d="M560.928 536.037c-49.494 0-62.1-31.033-62.1-64.526 0-33.19 12.932-64.233 62.402-64.233 48.86 0 62.37 31.042 62.37 64.234 0 33.795-13.51 64.527-62.672 64.527m.302-107.246c-29.185 0-35.643 19.048-35.643 42.72 0 23.966 6.458 43.02 35.34 43.02 29.48 0 35.937-18.753 35.937-43.02 0-23.362-5.83-42.72-35.634-42.72"/>
      </g>
    </g>
  </g>
</svg>
