<svg id="scottish-government-logo" xmlns="http://www.w3.org/2000/svg" viewBox="0 0 190 60">
  <style>
    .st0{fill:#000000;} .st1{fill:#000000;} .st2{fill:#000000;} .st3{fill:#000000;}
  </style>
  <path class="st0" d="M33.1 17.1L55.4 4H10.9zM33.1 25.8L10.9 38.9h44.5zM26 21.4L4 7.9v27zM40.7 21.4l22 13.5v-27z"/>
  <path class="st1" d="M68.9 4h1v34.8h-1z"/>
  <g>
    <path class="st2" d="M75.8 12.9l1-1.3c.6.7 1.7 1.3 3 1.3 1.4 0 1.9-.7 1.9-1.3 0-2-5.6-.8-5.6-4.3 0-1.6 1.4-2.8 3.5-2.8 1.5 0 2.7.5 3.6 1.4l-1 1.3c-.7-.8-1.8-1.2-2.8-1.2-1 0-1.6.5-1.6 1.2 0 1.8 5.6.7 5.6 4.3 0 1.6-1.1 3-3.7 3-1.8 0-3.1-.7-3.9-1.6zM84.5 10.8c0-2.1 1.5-3.7 3.6-3.7 1.4 0 2.2.6 2.7 1.2l-1 .9c-.4-.5-.9-.8-1.6-.8-1.3 0-2.1 1-2.1 2.3S87 13 88.2 13c.7 0 1.2-.3 1.6-.8l1 .9c-.5.6-1.3 1.2-2.7 1.2-2.1.2-3.6-1.4-3.6-3.5zM91.7 10.8c0-2 1.4-3.7 3.6-3.7s3.6 1.6 3.6 3.7c0 2-1.4 3.7-3.6 3.7-2.3 0-3.6-1.7-3.6-3.7zm5.6 0c0-1.2-.7-2.3-2-2.3s-2 1.1-2 2.3c0 1.2.7 2.3 2 2.3s2-1.1 2-2.3zM100.7 12.7v-4h-1.2V7.3h1.2V5.4h1.5v1.9h1.4v1.3h-1.4v3.7c0 .5.2.8.7.8.3 0 .5-.1.7-.3l.4 1.2c-.3.2-.7.4-1.4.4-1.3.1-1.9-.6-1.9-1.7zM105.3 12.7v-4h-1.2V7.3h1.2V5.4h1.5v1.9h1.4v1.3h-1.4v3.7c0 .5.2.8.7.8.3 0 .5-.1.7-.3l.4 1.2c-.3.2-.7.4-1.4.4-1.3.1-1.9-.6-1.9-1.7zM109.4 5.5c0-.5.4-.9.9-.9s.9.4.9.9-.4.9-.9.9-.9-.3-.9-.9zm.2 8.8v-7h1.5v7h-1.5zM112.5 13.4l.7-1.1c.5.5 1.5 1 2.4 1 .9 0 1.4-.4 1.4-.9 0-1.4-4.2-.4-4.2-3.1 0-1.1 1-2.1 2.7-2.1 1.2 0 2.1.4 2.7 1l-.6 1.1c-.4-.5-1.2-.8-2.1-.8-.8 0-1.3.4-1.3.9 0 1.2 4.2.3 4.2 3.1 0 1.2-1 2.2-2.9 2.2-1.2-.2-2.3-.6-3-1.3zM124.6 14.3V9.9c0-1.1-.5-1.4-1.4-1.4-.8 0-1.4.5-1.8.9v4.9h-1.5V4.7h1.5v3.6c.5-.5 1.4-1.1 2.5-1.1 1.5 0 2.3.8 2.3 2.2v4.9h-1.6zM131.4 9.5c0-3 2.3-5 5.1-5 1.9 0 3.1.9 3.9 2l-1.4.8c-.5-.7-1.4-1.3-2.5-1.3-1.9 0-3.3 1.4-3.3 3.5 0 2 1.4 3.5 3.3 3.5 1.6 0 2.5-1.1 2.8-2.4h-3.4V9.1h5.3c0 3.3-1.8 5.4-4.8 5.4-2.7 0-5-2-5-5zM141.7 10.8c0-2 1.4-3.7 3.6-3.7s3.6 1.6 3.6 3.7c0 2-1.4 3.7-3.6 3.7s-3.6-1.7-3.6-3.7zm5.6 0c0-1.2-.7-2.3-2-2.3s-2 1.1-2 2.3c0 1.2.7 2.3 2 2.3s2-1.1 2-2.3zM152.3 14.3l-2.8-7h1.6l2 5.2 2-5.2h1.6l-2.8 7h-1.6zM157.3 10.8c0-2 1.5-3.7 3.5-3.7 2.1 0 3.4 1.6 3.4 3.8v.4h-5.4c.1 1 .9 1.9 2.2 1.9.7 0 1.5-.3 2-.8l.7 1c-.7.7-1.7 1-2.8 1-2.1.1-3.6-1.4-3.6-3.6zm3.5-2.4c-1.3 0-1.9 1-1.9 1.8h3.9c-.1-.8-.6-1.8-2-1.8zM165.7 14.3v-7h1.5v1c.5-.7 1.4-1.2 2.3-1.2v1.5h-.5c-.6 0-1.5.4-1.8.9v4.7h-1.5zM175.4 14.3V9.9c0-1.1-.6-1.4-1.4-1.4-.8 0-1.4.5-1.8.9v4.9h-1.5v-7h1.5v.9c.5-.5 1.4-1.1 2.5-1.1 1.5 0 2.3.8 2.3 2.2v4.9h-1.6zM187.5 14.3V9.7c0-.8-.3-1.3-1.2-1.3-.7 0-1.3.5-1.6.9v4.9h-1.5V9.7c0-.8-.3-1.3-1.1-1.3-.7 0-1.3.5-1.6.9v4.9H179v-7h1.5v.9c.3-.4 1.2-1.1 2.3-1.1 1 0 1.7.5 1.9 1.3.4-.6 1.3-1.3 2.4-1.3 1.3 0 2 .7 2 2.1v5h-1.6zM190.5 10.8c0-2 1.5-3.7 3.5-3.7 2.1 0 3.4 1.6 3.4 3.8v.4H192c.1 1 .9 1.9 2.2 1.9.7 0 1.5-.3 2-.8l.7 1c-.7.7-1.7 1-2.8 1-2 .1-3.6-1.4-3.6-3.6zm3.6-2.4c-1.3 0-1.9 1-1.9 1.8h3.9c-.1-.8-.7-1.8-2-1.8zM203.7 14.3V9.9c0-1.1-.6-1.4-1.4-1.4-.8 0-1.4.5-1.8.9v4.9H199v-7h1.5v.9c.5-.5 1.4-1.1 2.5-1.1 1.5 0 2.3.8 2.3 2.2v4.9h-1.6zM207.5 12.7v-4h-1.2V7.3h1.2V5.4h1.5v1.9h1.4v1.3H209v3.7c0 .5.2.8.7.8.3 0 .5-.1.7-.3l.4 1.2c-.3.2-.7.4-1.4.4-1.3.1-1.9-.6-1.9-1.7z"/>
  </g>
  <g>
    <path class="st3" d="M81.7 27.2l-2.1-3.6h-1.7v3.6h-1.7v-9.6h4.2c1.9 0 3.1 1.2 3.1 3 0 1.7-1.1 2.6-2.3 2.8l2.4 3.8h-1.9zm.2-6.6c0-.9-.7-1.5-1.6-1.5H78v3h2.3c.9 0 1.6-.6 1.6-1.5zM85.1 18.5c0-.5.4-.9.9-.9s.9.4.9.9-.4.9-.9.9-.9-.4-.9-.9zm.1 8.7v-6.9h1.5v6.9h-1.5zM93.6 27.2v-.9c-.5.7-1.3 1.1-2.2 1.1-1.8 0-3.1-1.3-3.1-3.6 0-2.2 1.3-3.6 3.1-3.6.9 0 1.7.4 2.2 1.1v-1h1.5v6.9h-1.5zm0-2.1v-2.7c-.3-.5-1.1-.9-1.8-.9-1.2 0-2 1-2 2.3 0 1.3.8 2.3 2 2.3.7-.1 1.4-.5 1.8-1zM96.9 28.9l.7-1.1c.6.6 1.3.9 2.2.9 1 0 2.1-.5 2.1-1.9V26c-.5.7-1.3 1.2-2.2 1.2-1.8 0-3.1-1.3-3.1-3.6s1.3-3.6 3.1-3.6c.9 0 1.7.4 2.2 1.1v-1h1.5v6.6c0 2.5-1.9 3.2-3.6 3.2-1.1.1-2-.2-2.9-1zm5-4v-2.6c-.3-.5-1.1-.9-1.8-.9-1.2 0-2 .9-2 2.2s.8 2.2 2 2.2c.7 0 1.5-.4 1.8-.9zM110.1 27.2v-4.4c0-1.1-.5-1.4-1.4-1.4-.8 0-1.4.5-1.8.9v4.8h-1.5v-9.6h1.5v3.6c.5-.5 1.3-1.1 2.4-1.1 1.5 0 2.2.8 2.2 2.2v4.9h-1.4zM118.4 27.2v-.9c-.5.7-1.3 1.1-2.2 1.1-1.8 0-3.1-1.3-3.1-3.6 0-2.2 1.3-3.6 3.1-3.6.9 0 1.7.4 2.2 1.1v-1h1.5v6.9h-1.5zm0-2.1v-2.7c-.3-.5-1.1-.9-1.8-.9-1.2 0-2 1-2 2.3 0 1.3.8 2.3 2 2.3.7-.1 1.5-.5 1.8-1zM121.9 25.5v-7.9h1.5v7.6c0 .5.2.8.7.8.3 0 .6-.1.7-.3l.4 1.1c-.3.2-.7.4-1.4.4-1.3.1-1.9-.5-1.9-1.7zM126.3 25.5v-4h-1.1v-1.3h1.1v-1.9h1.5v1.9h1.4v1.3h-1.4v3.6c0 .5.2.8.7.8.3 0 .5-.1.7-.3l.4 1.1c-.3.2-.7.4-1.4.4-1.3.2-1.9-.4-1.9-1.6zM135.4 27.2v-.9c-.5.7-1.3 1.1-2.2 1.1-1.8 0-3.1-1.3-3.1-3.6 0-2.2 1.3-3.6 3.1-3.6.9 0 1.7.4 2.2 1.1v-1h1.5v6.9h-1.5zm0-2.1v-2.7c-.3-.5-1.1-.9-1.8-.9-1.2 0-2 1-2 2.3 0 1.3.8 2.3 2 2.3.7-.1 1.5-.5 1.8-1zM138.3 26.2l.7-1.1c.5.5 1.4 1 2.3 1 .9 0 1.4-.4 1.4-.9 0-1.4-4.2-.4-4.2-3.1 0-1.1 1-2.1 2.7-2.1 1.2 0 2.1.4 2.7 1l-.6 1.1c-.4-.5-1.2-.8-2.1-.8-.8 0-1.3.4-1.3.9 0 1.2 4.2.3 4.2 3.1 0 1.2-1 2.2-2.9 2.2-1.1-.2-2.2-.5-2.9-1.3zM154 27.2v-4.3c0-1.1-.6-1.4-1.4-1.4-.8 0-1.4.5-1.8.9v4.8h-1.5v-6.9h1.5v.9c.5-.5 1.4-1.1 2.5-1.1 1.5 0 2.2.8 2.2 2.2v4.9H154zM162.4 27.2v-.9c-.5.7-1.3 1.1-2.2 1.1-1.8 0-3.1-1.3-3.1-3.6 0-2.2 1.3-3.6 3.1-3.6.9 0 1.7.4 2.2 1.1v-1h1.5v6.9h-1.5zm0-2.1v-2.7c-.3-.5-1.1-.9-1.8-.9-1.2 0-2 1-2 2.3 0 1.3.8 2.3 2 2.3.7-.1 1.4-.5 1.8-1zM174.2 27.2v-4.4c0-1.1-.5-1.4-1.4-1.4-.8 0-1.4.5-1.8.9v4.8h-1.5v-9.6h1.5v3.6c.5-.5 1.3-1.1 2.4-1.1 1.5 0 2.2.8 2.2 2.2v4.9h-1.4zM177.1 24.3V23h3.4v1.3h-3.4zM188.8 27.2l-.7-1.8h-4.4l-.7 1.8h-2l3.8-9.6h2.1l3.8 9.6h-1.9zm-2.9-7.9l-1.7 4.6h3.4l-1.7-4.6zM191.7 25.5v-7.9h1.5v7.6c0 .5.2.8.7.8.3 0 .6-.1.7-.3l.4 1.1c-.3.2-.7.4-1.4.4-1.3.1-1.9-.5-1.9-1.7zM195.8 27.2v-9.6h1.5v3.6c.6-.7 1.4-1.1 2.2-1.1 1.8 0 3.1 1.4 3.1 3.6 0 2.3-1.3 3.6-3.1 3.6-.9 0-1.7-.4-2.2-1.1v.9h-1.5zm3.3-1.2c1.2 0 2-1 2-2.3 0-1.3-.8-2.3-2-2.3-.7 0-1.4.4-1.8.9v2.8c.3.5 1 .9 1.8.9zM209 27.2v-.9c-.5.7-1.3 1.1-2.2 1.1-1.8 0-3.1-1.3-3.1-3.6 0-2.2 1.3-3.6 3.1-3.6.9 0 1.7.4 2.2 1.1v-1h1.5v6.9H209zm0-2.1v-2.7c-.3-.5-1.1-.9-1.8-.9-1.2 0-2 1-2 2.3 0 1.3.8 2.3 2 2.3.7-.1 1.4-.5 1.8-1z"/>
  </g>
  <g>
    <path class="st1" d="M76.2 40.8l.7-1.1c.6.6 1.3.9 2.2.9 1 0 2.1-.5 2.1-1.9v-.8c-.5.7-1.3 1.2-2.2 1.2-1.8 0-3.1-1.3-3.1-3.6s1.3-3.6 3.1-3.6c.9 0 1.7.4 2.2 1.1v-1h1.5v6.6c0 2.5-1.9 3.2-3.6 3.2-1.1.1-2-.2-2.9-1zm5-4v-2.6c-.3-.5-1.1-.9-1.8-.9-1.2 0-2 .9-2 2.2s.8 2.2 2 2.2c.7 0 1.5-.4 1.8-.9zM84.3 35.6c0-2 1.3-3.6 3.6-3.6 2.2 0 3.6 1.6 3.6 3.6s-1.3 3.6-3.6 3.6-3.6-1.6-3.6-3.6zm5.5 0c0-1.2-.7-2.3-2-2.3s-2 1.1-2 2.3c0 1.2.7 2.3 2 2.3s2-1.1 2-2.3zM94.7 39l-2.8-6.9h1.6l2 5.2 2-5.2h1.6L96.3 39h-1.6zM99 38.2c0-.5.5-1 1-1s1 .5 1 1-.5 1-1 1-1-.5-1-1zM102.1 38.1l.7-1.1c.5.5 1.4 1 2.3 1 .9 0 1.4-.4 1.4-.9 0-1.4-4.2-.4-4.2-3.1 0-1.1 1-2.1 2.7-2.1 1.2 0 2.1.4 2.7 1l-.6 1.1c-.4-.5-1.2-.8-2.1-.8-.8 0-1.3.4-1.3.9 0 1.2 4.2.3 4.2 3.1 0 1.2-1 2.2-2.9 2.2-1.1-.2-2.1-.6-2.9-1.3zM109.1 35.6c0-2.1 1.5-3.6 3.6-3.6 1.4 0 2.2.6 2.7 1.2l-1 .9c-.4-.5-.9-.8-1.6-.8-1.2 0-2.1.9-2.1 2.3 0 1.3.8 2.3 2.1 2.3.7 0 1.2-.3 1.6-.8l1 .9c-.5.6-1.3 1.2-2.7 1.2-2.1 0-3.6-1.5-3.6-3.6zM116.2 35.6c0-2 1.3-3.6 3.6-3.6s3.6 1.6 3.6 3.6-1.3 3.6-3.6 3.6-3.6-1.6-3.6-3.6zm5.6 0c0-1.2-.7-2.3-2-2.3s-2 1.1-2 2.3c0 1.2.7 2.3 2 2.3s2-1.1 2-2.3zM125.2 37.4v-4H124v-1.3h1.1v-1.9h1.5v1.9h1.4v1.3h-1.4V37c0 .5.2.8.7.8.3 0 .5-.1.7-.3l.4 1.1c-.3.2-.7.4-1.4.4-1.2.2-1.8-.4-1.8-1.6z"/>
  </g>
</svg>
