<svg viewBox="119 165 320 64" xmlns="http://www.w3.org/2000/svg">
  <path d="M138.622 173.19c2.813 0 5.313.233 7.5.7 2.193.467 4.113 1.113 5.76 1.94 1.647.833 3.04 1.823 4.18 2.97 1.14 1.147 2.063 2.397 2.77 3.75.707 1.353 1.22 2.79 1.54 4.31.32 1.52.48 3.073.48 4.66 0 2.173-.243 4.377-.73 6.61-.48 2.233-1.177 4.393-2.09 6.48-.913 2.087-2.04 4.047-3.38 5.88-1.34 1.827-2.87 3.42-4.59 4.78-1.727 1.367-3.627 2.443-5.7 3.23-2.067.78-4.3 1.17-6.7 1.17-.813 0-1.64-.06-2.48-.18-.847-.12-1.667-.283-2.46-.49-.793-.207-1.543-.44-2.25-.7-.713-.26-1.337-.527-1.87-.8-.22-.067-.397-.15-.53-.25-.127-.093-.227-.203-.3-.33-.067-.133-.11-.293-.13-.48-.013-.193-.02-.437-.02-.73 0-2.86.073-5.793.22-8.8.147-3 .443-5.93.89-8.79.447-2.867 1.093-5.6 1.94-8.2.847-2.593 1.97-4.917 3.37-6.97 1.22-.847 2.333-1.27 3.34-1.27 1.253 0 2.303.707 3.15 2.12-.793 1.073-1.457 2.267-1.99 3.58-.533 1.307-.983 2.68-1.35 4.12-.36 1.44-.66 2.913-.9 4.42-.24 1.5-.463 2.967-.67 4.4-.247 1.587-.45 2.943-.61 4.07-.167 1.133-.297 2.12-.39 2.96-.093.847-.163 1.59-.21 2.23-.04.64-.06 1.26-.06 1.86 0 .64.02 1.177.06 1.61.047.427.15.77.31 1.03.167.26.417.447.75.56.34.113.793.17 1.36.17 1.727 0 3.367-.34 4.92-1.02 1.553-.687 2.983-1.603 4.29-2.75 1.313-1.147 2.493-2.48 3.54-4 1.04-1.513 1.927-3.117 2.66-4.81.733-1.693 1.3-3.413 1.7-5.16.393-1.753.59-3.44.59-5.06 0-2-.327-3.79-.98-5.37s-1.573-2.917-2.76-4.01c-1.18-1.1-2.597-1.937-4.25-2.51-1.66-.58-3.48-.87-5.46-.87-1.453 0-2.89.087-4.31.26-1.427.173-2.747.44-3.96.8-1.22.36-2.29.823-3.21 1.39-.927.56-1.62 1.227-2.08 2-1.26 1.953-2.297 3.46-3.11 4.52-.813 1.06-1.493 1.59-2.04 1.59-.76 0-1.14-.873-1.14-2.62 0-1.687.22-3.203.66-4.55.44-1.347 1.05-2.54 1.83-3.58.787-1.047 1.72-1.937 2.8-2.67 1.08-.733 2.26-1.337 3.54-1.81 1.287-.473 2.657-.823 4.11-1.05 1.447-.227 2.93-.34 4.45-.34zm49.087 38.59c-.393.553-.923 1.2-1.59 1.94s-1.413 1.447-2.24 2.12c-.827.673-1.713 1.243-2.66 1.71-.953.467-1.903.7-2.85.7-1.14 0-2.09-.367-2.85-1.1-.76-.733-1.413-1.8-1.96-3.2-.42.487-.93.98-1.53 1.48-.607.5-1.267.953-1.98 1.36-.713.407-1.46.737-2.24.99-.773.26-1.55.39-2.33.39-.827 0-1.633-.167-2.42-.5-.787-.34-1.48-.823-2.08-1.45-.607-.633-1.09-1.403-1.45-2.31-.36-.9-.54-1.92-.54-3.06 0-1.293.18-2.623.54-3.99.36-1.36.86-2.693 1.5-4 .64-1.3 1.397-2.527 2.27-3.68.867-1.16 1.817-2.17 2.85-3.03 1.04-.867 2.133-1.553 3.28-2.06 1.147-.507 2.313-.76 3.5-.76.4 0 .713.077.94.23.22.153.403.33.55.53.147.2.29.393.43.58.14.193.313.333.52.42.207.087.417.143.63.17.22.02.44.03.66.03.193 0 .387-.003.58-.01.2-.007.397-.01.59-.01.253 0 .493.027.72.08.227.047.427.157.6.33.167.173.3.417.4.73.093.307.14.73.14 1.27 0 .827-.087 1.743-.26 2.75-.173 1.013-.363 2.05-.57 3.11-.207 1.06-.397 2.12-.57 3.18-.173 1.06-.26 2.067-.26 3.02 0 .807.073 1.44.22 1.9.147.453.463.68.95.68.36 0 .74-.09 1.14-.27.393-.18.793-.417 1.2-.71.407-.293.813-.627 1.22-1 .4-.367.783-.75 1.15-1.15.847-.933 1.7-1.987 2.56-3.16l1.24 5.75m-22.1-2.04c0 .427.03.843.09 1.25.06.407.17.77.33 1.09.153.32.36.577.62.77.253.2.58.3.98.3.64 0 1.217-.277 1.73-.83.52-.553.97-1.217 1.35-1.99.38-.773.687-1.577.92-2.41.233-.827.383-1.517.45-2.07l1.58-7.61c-.707 0-1.397.18-2.07.54-.673.353-1.307.83-1.9 1.43-.6.607-1.15 1.297-1.65 2.07-.5.78-.93 1.597-1.29 2.45-.36.853-.64 1.71-.84 2.57-.2.867-.3 1.68-.3 2.44zm19.045 0c-.054-1.3-.104-2.427-.15-3.38-.054-.96-.104-1.827-.15-2.6-.04-.78-.07-1.497-.09-2.15-.014-.653-.02-1.327-.02-2.02 0-1.773.08-3.157.24-4.15.166-.993.526-1.533 1.08-1.62l3.1-.49c.086-.02.17-.033.25-.04.08-.007.163-.01.25-.01.586 0 1.036.17 1.35.51.32.347.49.743.51 1.19l-1.01 16.39.36-.03 6.81-16.23c.053-.24.163-.473.33-.7.173-.22.4-.413.68-.58.273-.16.58-.293.92-.4.333-.1.69-.15 1.07-.15 1 0 1.803.2 2.41.6.6.407.9.93.9 1.57 0 .48-.064.937-.19 1.37-.134.433-.317.903-.55 1.41-.227.513-.5 1.08-.82 1.7-.32.62-.67 1.353-1.05 2.2-.12.307-.224.623-.31.95-.087.293-.16.627-.22 1s-.09.757-.09 1.15c0 .413.05.82.15 1.22.106.393.29.75.55 1.07.253.32.606.577 1.06.77.446.187 1.023.28 1.73.28.52 0 1.12-.133 1.8-.4.68-.267 1.323-.573 1.93-.92.706-.393 1.43-.84 2.17-1.34v6.08c-1.14.72-2.317 1.297-3.53 1.73-1.22.433-2.38.65-3.48.65-.934 0-1.767-.143-2.5-.43-.734-.287-1.354-.67-1.86-1.15-.514-.487-.91-1.03-1.19-1.63-.287-.607-.44-1.237-.46-1.89-.5 1.033-1.067 2.093-1.7 3.18-.64 1.087-1.3 2.07-1.98 2.95-.687.88-1.37 1.6-2.05 2.16-.68.56-1.324.84-1.93.84-1 0-1.774-.253-2.32-.76-.554-.507-.964-1.15-1.23-1.93-.274-.773-.447-1.617-.52-2.53-.08-.913-.147-1.787-.2-2.62l-.05-.82zm39.211 2.87c-.62.567-1.393 1.173-2.32 1.82-.92.647-1.917 1.243-2.99 1.79-1.067.54-2.157.993-3.27 1.36-1.113.36-2.17.54-3.17.54-.9 0-1.657-.127-2.27-.38-.613-.247-1.107-.593-1.48-1.04-.38-.453-.653-1.003-.82-1.65-.167-.647-.25-1.357-.25-2.13 0-1.087.127-2.35.38-3.79.247-1.44.553-2.933.92-4.48.36-1.547.743-3.087 1.15-4.62.407-1.533.763-2.947 1.07-4.24.127-.453.37-.84.73-1.16.36-.313.77-.57 1.23-.77.453-.2.927-.347 1.42-.44.493-.093.937-.14 1.33-.14.727 0 1.22.133 1.48.4s.39.623.39 1.07c0 .38-.087.927-.26 1.64-.173.72-.39 1.533-.65 2.44s-.537 1.88-.83 2.92c-.293 1.047-.567 2.09-.82 3.13-.26 1.047-.477 2.067-.65 3.06-.173.987-.26 1.88-.26 2.68 0 .773.087 1.39.26 1.85.173.453.527.68 1.06.68.62 0 1.31-.217 2.07-.65.76-.427 1.527-.947 2.3-1.56.78-.613 1.54-1.247 2.28-1.9.74-.66 1.397-1.223 1.97-1.69v5.26M212.295 186c0-.393.087-.84.26-1.34.173-.5.453-.97.84-1.41.387-.44.903-.81 1.55-1.11.647-.307 1.453-.46 2.42-.46.607 0 1.177.07 1.71.21.533.14 1 .35 1.4.63.393.287.707.663.94 1.13.233.467.35 1.02.35 1.66 0 .587-.093 1.153-.28 1.7-.193.553-.497 1.047-.91 1.48-.413.433-.937.783-1.57 1.05-.627.267-1.38.4-2.26.4-1.52 0-2.64-.36-3.36-1.08-.727-.713-1.09-1.667-1.09-2.86zm21.116 12.56c-1.14.547-2.153 1.273-3.04 2.18-.886.907-1.63 1.887-2.23 2.94-.593 1.053-1.046 2.113-1.36 3.18-.306 1.073-.46 2.04-.46 2.9 0 .347.037.693.11 1.04.08.34.224.65.43.93.207.273.5.497.88.67.38.173.874.26 1.48.26.307 0 .614-.077.92-.23.3-.16.587-.363.86-.61.28-.253.544-.54.79-.86.254-.313.484-.643.69-.99.48-.793.92-1.69 1.32-2.69-.053-.247-.096-.63-.13-1.15-.033-.527-.06-1.113-.08-1.76-.02-.653-.036-1.323-.05-2.01-.02-.693-.033-1.323-.04-1.89-.006-.567-.02-1.033-.04-1.4-.013-.36-.03-.53-.05-.51m17.8 14.49c-1.22.947-2.426 1.79-3.62 2.53-.5.313-1.026.62-1.58.92-.553.307-1.096.573-1.63.8-.533.233-1.053.423-1.56.57-.513.147-.983.22-1.41.22-.246 0-.606-.05-1.08-.15-.473-.107-.99-.32-1.55-.64-.56-.313-1.12-.773-1.68-1.38-.56-.607-1.05-1.41-1.47-2.41-.633.627-1.31 1.22-2.03 1.78-.713.56-1.453 1.047-2.22 1.46-.766.413-1.543.743-2.33.99-.786.253-1.576.38-2.37.38-1.12 0-2.09-.24-2.91-.72-.82-.487-1.503-1.13-2.05-1.93-.54-.807-.943-1.717-1.21-2.73-.266-1.02-.4-2.073-.4-3.16 0-1.107.14-2.223.42-3.35.287-1.133.704-2.23 1.25-3.29.54-1.06 1.2-2.06 1.98-3 .774-.94 1.654-1.777 2.64-2.51.98-.733 2.05-1.34 3.21-1.82 1.154-.487 2.387-.79 3.7-.91.047-2.207.244-4.39.59-6.55.347-2.153.804-4.207 1.37-6.16.574-1.947 1.244-3.75 2.01-5.41.767-1.653 1.607-3.083 2.52-4.29.914-1.207 1.89-2.153 2.93-2.84 1.034-.68 2.1-1.02 3.2-1.02.814 0 1.504.213 2.07.64.574.42 1.037.98 1.39 1.68.354.7.607 1.51.76 2.43.16.927.24 1.88.24 2.86 0 .607-.026 1.227-.08 1.86-.226 2.433-.64 4.733-1.24 6.9-.606 2.167-1.316 4.277-2.13 6.33-.806 2.053-1.686 4.09-2.64 6.11-.946 2.013-1.866 4.107-2.76 6.28-.086.247-.173.54-.26.88-.086.347-.17.723-.25 1.13-.08.407-.143.82-.19 1.24-.053.427-.08.837-.08 1.23 0 .5.03.973.09 1.42.06.453.16.857.3 1.21.134.353.317.633.55.84.234.207.524.31.87.31.327 0 .684-.063 1.07-.19.394-.133.804-.31 1.23-.53.434-.227.87-.483 1.31-.77.44-.287.867-.577 1.28-.87.947-.687 1.94-1.47 2.98-2.35l.77 5.98m-5.64-33.26c.107-1.207.16-2.163.16-2.87 0-.933-.083-1.58-.25-1.94-.16-.36-.396-.54-.71-.54-.553 0-1.053.347-1.5 1.04-.446.7-.843 1.593-1.19 2.68-.346 1.087-.65 2.287-.91 3.6-.26 1.313-.473 2.58-.64 3.8-.173 1.227-.313 2.333-.42 3.32-.1.98-.17 1.677-.21 2.09-.066.847-.12 1.663-.16 2.45-.046.787-.076 1.503-.09 2.15-.02.647-.03 1.21-.03 1.69v1.37c.987-2.24 1.894-4.473 2.72-6.7.347-.947.697-1.943 1.05-2.99.354-1.04.677-2.087.97-3.14.294-1.053.547-2.09.76-3.11.214-1.02.364-1.987.45-2.9zm16.535 3.91c-1.12 2.033-2.12 3.56-3 4.58-.88 1.02-1.596 1.53-2.15 1.53-.76 0-1.14-.873-1.14-2.62 0-1.687.244-3.203.73-4.55.48-1.347 1.157-2.54 2.03-3.58.874-1.047 1.91-1.937 3.11-2.67 1.194-.733 2.504-1.337 3.93-1.81 1.42-.473 2.927-.823 4.52-1.05 1.587-.227 3.217-.34 4.89-.34 1.947 0 3.904.143 5.87.43 1.967.287 3.857.687 5.67 1.2 1.814.52 3.504 1.147 5.07 1.88 1.574.733 2.94 1.543 4.1 2.43 1.167.893 2.084 1.857 2.75 2.89.66 1.033.99 2.11.99 3.23 0 1.333-.29 2.647-.87 3.94-.573 1.293-1.476 2.46-2.71 3.5-1.233 1.047-2.813 1.907-4.74 2.58-1.92.673-4.226 1.037-6.92 1.09 1.707 0 3.2.27 4.48.81 1.274.547 2.344 1.28 3.21 2.2.86.927 1.507 1.993 1.94 3.2.427 1.207.64 2.473.64 3.8 0 1.087-.146 2.19-.44 3.31-.293 1.127-.733 2.207-1.32 3.24-.586 1.033-1.32 2.003-2.2 2.91-.88.907-1.91 1.697-3.09 2.37s-2.513 1.203-4 1.59c-1.48.387-3.11.58-4.89.58-1.12 0-2.3-.073-3.54-.22-1.246-.147-2.503-.343-3.77-.59-1.266-.253-2.513-.553-3.74-.9-1.226-.34-2.383-.71-3.47-1.11-.48-.12-.906-.3-1.28-.54-.366-.247-.55-.68-.55-1.3 0-2.86.074-5.793.22-8.8.147-3 .444-5.93.89-8.79.447-2.867 1.094-5.6 1.94-8.2.847-2.593 1.967-4.917 3.36-6.97 1.227-.847 2.34-1.27 3.34-1.27 1.26 0 2.314.707 3.16 2.12-.793 1.073-1.47 2.267-2.03 3.58-.56 1.307-1.03 2.68-1.41 4.12-.38 1.44-.686 2.913-.92 4.42-.233 1.5-.42 2.967-.56 4.4-.086.807-.16 1.667-.22 2.58s-.116 1.847-.17 2.8c-.046.947-.083 1.89-.11 2.83-.026.94-.04 1.843-.04 2.71 0 .133.004.323.01.57.014.24.037.49.07.75.034.253.084.49.15.71.074.213.177.373.31.48 1.054.34 2.184.633 3.39.88 1.207.24 2.417.36 3.63.36 1.467 0 2.89-.177 4.27-.53 1.38-.353 2.604-.913 3.67-1.68 1.074-.773 1.934-1.757 2.58-2.95.647-1.2.97-2.653.97-4.36 0-1.007-.19-1.84-.57-2.5-.38-.667-.876-1.223-1.49-1.67-.613-.447-1.313-.807-2.1-1.08-.78-.267-1.58-.507-2.4-.72-.82-.213-1.623-.423-2.41-.63-.786-.207-1.486-.47-2.1-.79-.613-.32-1.11-.717-1.49-1.19-.373-.48-.56-1.097-.56-1.85 0-.367.02-.683.06-.95.047-.267.15-.487.31-.66.167-.173.41-.303.73-.39.314-.087.747-.13 1.3-.13.747 0 1.424.03 2.03.09.614.067 1.274.1 1.98.1 1.66 0 3.157-.203 4.49-.61 1.34-.407 2.48-.957 3.42-1.65.94-.687 1.664-1.493 2.17-2.42.514-.92.77-1.907.77-2.96 0-.687-.2-1.32-.6-1.9-.393-.58-.95-1.097-1.67-1.55-.713-.46-1.553-.863-2.52-1.21-.966-.34-2.02-.627-3.16-.86-1.14-.233-2.34-.407-3.6-.52-1.253-.113-2.53-.17-3.83-.17-1.633 0-3.25.09-4.85.27-1.593.18-3.076.457-4.45.83-1.373.373-2.59.84-3.65 1.4-1.06.56-1.866 1.21-2.42 1.95zm35.195 29.01c0-.76.043-1.643.13-2.65.086-1.013.203-2.08.35-3.2.146-1.12.32-2.263.52-3.43.2-1.16.41-2.267.63-3.32.226-1.053.453-2.02.68-2.9.22-.88.443-1.603.67-2.17.14-.38.276-.683.41-.91.14-.227.3-.403.48-.53s.403-.213.67-.26c.273-.04.606-.06 1-.06.446 0 .796.02 1.05.06.246.047.433.15.56.31.12.167.193.403.22.71.02.313.03.737.03 1.27v2.32c0 .907.02 1.8.06 2.68h.28c.346-.693.733-1.467 1.16-2.32.433-.853.936-1.65 1.51-2.39.566-.747 1.213-1.373 1.94-1.88.72-.507 1.556-.76 2.51-.76.326 0 .643.053.95.16.313.113.586.273.82.48.233.207.42.463.56.77.133.3.2.64.2 1.02 0 .293-.044.703-.13 1.23-.087.527-.18 1.077-.28 1.65-.107.58-.204 1.143-.29 1.69-.08.54-.12.993-.12 1.36 0 .62.06 1.137.18 1.55.12.413.276.743.47.99.2.253.426.43.68.53.246.107.51.16.79.16.773 0 1.573-.173 2.4-.52.833-.347 1.593-.733 2.28-1.16.813-.5 1.606-1.07 2.38-1.71l-.39 6.06c-.447.293-.954.62-1.52.98-.574.36-1.184.7-1.83 1.02-.647.32-1.32.587-2.02.8-.694.22-1.404.33-2.13.33-1.294 0-2.337-.263-3.13-.79-.794-.527-1.424-1.217-1.89-2.07-.467-.853-.814-1.813-1.04-2.88-.22-1.06-.4-2.133-.54-3.22h-.41l-4.64 12.92c-.24.673-.467 1.23-.68 1.67-.22.44-.44.797-.66 1.07-.227.273-.47.467-.73.58-.26.113-.544.17-.85.17-.707 0-1.277-.15-1.71-.45-.434-.307-.767-.713-1-1.22-.227-.507-.38-1.083-.46-1.73-.08-.647-.12-1.317-.12-2.01zm38.248-13.97c.5 1 .877 2.057 1.13 3.17.247 1.113.37 2.177.37 3.19 0 1.02-.11 2.047-.33 3.08-.226 1.04-.55 2.04-.97 3-.426.967-.946 1.873-1.56 2.72-.613.847-1.31 1.58-2.09 2.2-.786.62-1.646 1.113-2.58 1.48-.933.36-1.923.54-2.97.54-1.52 0-2.82-.333-3.9-1-1.08-.66-1.963-1.527-2.65-2.6-.693-1.067-1.196-2.273-1.51-3.62-.32-1.347-.48-2.71-.48-4.09 0-1.9.284-3.673.85-5.32.567-1.647 1.384-3.077 2.45-4.29 1.06-1.22 2.357-2.18 3.89-2.88 1.534-.693 3.26-1.04 5.18-1.04 1.634 0 3.167.253 4.6.76 1.434.507 2.777 1.187 4.03 2.04 1.247.86 2.41 1.84 3.49 2.94 1.08 1.107 2.087 2.247 3.02 3.42l-.5 3.65c-.46-.627-1.09-1.3-1.89-2.02-.793-.727-1.633-1.433-2.52-2.12-.886-.693-1.763-1.347-2.63-1.96-.86-.613-1.6-1.127-2.22-1.54l-.21.29m-7.99 14.41c.587 0 1.154-.297 1.7-.89.554-.593 1.037-1.343 1.45-2.25.414-.907.747-1.907 1-3 .247-1.1.37-2.15.37-3.15 0-.793-.06-1.53-.18-2.21-.12-.68-.3-1.27-.54-1.77-.24-.507-.55-.907-.93-1.2-.38-.293-.836-.44-1.37-.44-.706 0-1.38.303-2.02.91-.64.607-1.2 1.38-1.68 2.32-.486.94-.866 1.98-1.14 3.12-.28 1.133-.42 2.227-.42 3.28 0 .727.07 1.41.21 2.05.14.633.357 1.19.65 1.67.294.473.68.85 1.16 1.13.487.287 1.067.43 1.74.43zm30.582-14.41c.5 1 .876 2.057 1.13 3.17.246 1.113.37 2.177.37 3.19 0 1.02-.11 2.047-.33 3.08-.227 1.04-.55 2.04-.97 3-.427.967-.947 1.873-1.56 2.72-.614.847-1.31 1.58-2.09 2.2-.787.62-1.647 1.113-2.58 1.48-.934.36-1.924.54-2.97.54-1.52 0-2.82-.333-3.9-1-1.08-.66-1.964-1.527-2.65-2.6-.694-1.067-1.197-2.273-1.51-3.62-.32-1.347-.48-2.71-.48-4.09 0-1.9.283-3.673.85-5.32.566-1.647 1.383-3.077 2.45-4.29 1.06-1.22 2.356-2.18 3.89-2.88 1.533-.693 3.26-1.04 5.18-1.04 1.633 0 3.166.253 4.6.76 1.433.507 2.776 1.187 4.03 2.04 1.246.86 2.41 1.84 3.49 2.94 1.08 1.107 2.086 2.247 3.02 3.42l-.5 3.65c-.46-.627-1.09-1.3-1.89-2.02-.794-.727-1.634-1.433-2.52-2.12-.887-.693-1.764-1.347-2.63-1.96-.86-.613-1.6-1.127-2.22-1.54l-.21.29m-7.99 14.41c.586 0 1.153-.297 1.7-.89.553-.593 1.036-1.343 1.45-2.25.413-.907.746-1.907 1-3 .246-1.1.37-2.15.37-3.15 0-.793-.06-1.53-.18-2.21-.12-.68-.3-1.27-.54-1.77-.24-.507-.55-.907-.93-1.2-.38-.293-.837-.44-1.37-.44-.707 0-1.38.303-2.02.91-.64.607-1.2 1.38-1.68 2.32-.487.94-.867 1.98-1.14 3.12-.28 1.133-.42 2.227-.42 3.28 0 .727.07 1.41.21 2.05.14.633.356 1.19.65 1.67.293.473.68.85 1.16 1.13.486.287 1.066.43 1.74.43zm23.001-9.5c.62-.793 1.3-1.663 2.04-2.61.747-.947 1.477-1.853 2.19-2.72.714-.86 1.37-1.627 1.97-2.3.594-.673 1.064-1.13 1.41-1.37.534-.38 1.187-.703 1.96-.97.78-.267 1.644-.4 2.59-.4.487 0 .95.11 1.39.33.44.227.824.547 1.15.96.327.413.587.913.78 1.5.187.587.28 1.243.28 1.97 0 .707-.173 1.417-.52 2.13-.346.72-.776 1.44-1.29 2.16-.52.727-1.08 1.453-1.68 2.18-.606.72-1.17 1.447-1.69 2.18-.513.733-.943 1.463-1.29 2.19-.346.727-.52 1.453-.52 2.18 0 .62.154 1.063.46 1.33.3.267.77.4 1.41.4.34 0 .714-.117 1.12-.35.407-.233.827-.54 1.26-.92.427-.38.86-.803 1.3-1.27.44-.467.864-.94 1.27-1.42.407-.487.79-.95 1.15-1.39.367-.433.697-.807.99-1.12l1.55 6.34c-.533.773-1.21 1.493-2.03 2.16-.82.667-1.71 1.243-2.67 1.73-.953.493-1.943.88-2.97 1.16-1.026.273-2.016.41-2.97.41-1.24 0-2.253-.15-3.04-.45-.786-.307-1.403-.71-1.85-1.21-.446-.5-.753-1.063-.92-1.69-.16-.633-.24-1.287-.24-1.96 0-.393.047-.88.14-1.46.094-.573.274-1.223.54-1.95.267-.727.644-1.523 1.13-2.39.48-.873 1.11-1.81 1.89-2.81.307-.313.59-.593.85-.84.26-.253.487-.48.68-.68.187-.193.334-.377.44-.55.1-.173.15-.357.15-.55 0-.36-.063-.653-.19-.88-.133-.22-.32-.33-.56-.33-.293 0-.673.19-1.14.57-.466.38-.976 1.043-1.53 1.99l-7.6 13.35c-.4.693-.81 1.173-1.23 1.44-.426.267-.916.4-1.47.4-.74 0-1.326-.16-1.76-.48-.426-.32-.753-.75-.98-1.29-.226-.547-.37-1.177-.43-1.89-.06-.72-.09-1.483-.09-2.29 0-.987.037-2.29.11-3.91.067-1.62.17-3.4.31-5.34.134-1.947.317-3.98.55-6.1.234-2.12.517-4.18.85-6.18.12-.707.274-1.567.46-2.58.194-1.007.43-2.09.71-3.25.287-1.153.624-2.357 1.01-3.61.387-1.247.837-2.463 1.35-3.65.507-1.18 1.08-2.303 1.72-3.37.64-1.073 1.357-2.01 2.15-2.81.794-.8 1.664-1.433 2.61-1.9.947-.467 1.984-.7 3.11-.7.88 0 1.604.143 2.17.43.567.28 1.02.677 1.36 1.19.334.507.57 1.113.71 1.82.14.707.21 1.473.21 2.3 0 1.467-.186 3.047-.56 4.74-.373 1.693-.843 3.39-1.41 5.09-.566 1.693-1.186 3.343-1.86 4.95-.673 1.607-1.32 3.057-1.94 4.35-.626 1.293-1.176 2.383-1.65 3.27-.473.887-.786 1.47-.94 1.75l-3.08 4.61.62.38m5.07-29.06c-.553 0-1.026.173-1.42.52-.4.347-.776.837-1.13 1.47-.353.64-.706 1.417-1.06 2.33-.353.92-.753 1.94-1.2 3.06-.28.98-.536 1.997-.77 3.05-.226 1.053-.436 2.103-.63 3.15-.186 1.04-.353 2.07-.5 3.09-.146 1.013-.273 1.97-.38 2.87-.26 2.12-.466 4.207-.62 6.26.38-1.14.794-2.377 1.24-3.71.454-1.34.897-2.66 1.33-3.96.44-1.3.857-2.533 1.25-3.7.387-1.167.71-2.153.97-2.96.12-.38.294-.857.52-1.43.22-.567.46-1.177.72-1.83.26-.66.52-1.343.78-2.05.254-.707.49-1.387.71-2.04.214-.66.39-1.273.53-1.84.14-.567.21-1.05.21-1.45 0-.553-.183-.83-.55-.83zm21.015 43.53c-1.62 0-3.04-.293-4.26-.88-1.213-.587-2.226-1.377-3.04-2.37-.806-.993-1.413-2.14-1.82-3.44-.406-1.3-.61-2.667-.61-4.1 0-.967.094-1.99.28-3.07.194-1.08.484-2.137.87-3.17.387-1.033.874-2.02 1.46-2.96.587-.94 1.274-1.77 2.06-2.49.787-.713 1.667-1.28 2.64-1.7.974-.427 2.057-.64 3.25-.64.967 0 1.864.157 2.69.47.827.307 1.547.74 2.16 1.3.614.567 1.094 1.247 1.44 2.04.34.793.51 1.68.51 2.66 0 1.073-.263 2.143-.79 3.21-.52 1.073-1.246 2.083-2.18 3.03-.933.947-2.043 1.79-3.33 2.53-1.286.747-2.68 1.327-4.18 1.74.26.467.517.853.77 1.16.247.313.5.557.76.73.26.173.53.293.81.36.287.067.594.1.92.1 1.04 0 2.134-.207 3.28-.62 1.147-.413 2.264-.93 3.35-1.55 1.087-.62 2.114-1.297 3.08-2.03.967-.733 1.787-1.427 2.46-2.08l3.34 3.46c-1.52 1.573-3.133 2.963-4.84 4.17-.746.52-1.546 1.03-2.4 1.53-.853.5-1.75.943-2.69 1.33-.94.387-1.913.697-2.92.93-1.013.233-2.036.35-3.07.35m-3.44-12.16c.62 0 1.297-.16 2.03-.48.734-.32 1.414-.73 2.04-1.23.634-.5 1.167-1.043 1.6-1.63.427-.587.64-1.157.64-1.71 0-.773-.14-1.41-.42-1.91-.286-.507-.636-.76-1.05-.76-.746 0-1.383.14-1.91.42-.52.273-.956.63-1.31 1.07-.36.44-.646.94-.86 1.5-.213.567-.376 1.133-.49 1.7-.113.567-.186 1.12-.22 1.66-.033.533-.05.99-.05 1.37zm14.226 2.22c.967-.827 1.754-1.517 2.36-2.07.607-.553 1.124-1.057 1.55-1.51.434-.46.827-.923 1.18-1.39.354-.46.77-1.01 1.25-1.65.487-.64 1.074-1.42 1.76-2.34.694-.927 1.594-2.08 2.7-3.46.22-.313.47-.617.75-.91.274-.293.58-.553.92-.78.334-.233.704-.423 1.11-.57.407-.147.86-.22 1.36-.22.827 0 1.464.09 1.91.27.447.18.774.4.98.66.214.26.337.53.37.81.034.287.05.533.05.74 0 .413-.163.87-.49 1.37-.326.5-.69.983-1.09 1.45-.393.467-.77.893-1.13 1.28-.353.387-.553.677-.6.87 0 .533.037 1.02.11 1.46.08.44.184.873.31 1.3.134.42.267.867.4 1.34.14.473.277 1.02.41 1.64.127.627.23 1.343.31 2.15.074.813.11 1.77.11 2.87.62-.413 1.29-.787 2.01-1.12.714-.34 1.46-.69 2.24-1.05.774-.36 1.57-.76 2.39-1.2.82-.44 1.644-.97 2.47-1.59l.03 5.79c-1.073.833-2.313 1.61-3.72 2.33-1.4.727-2.873 1.367-4.42 1.92-1.546.553-3.106.987-4.68 1.3-1.58.32-3.076.48-4.49.48-1.02 0-1.97-.093-2.85-.28-.88-.193-1.653-.49-2.32-.89-.66-.407-1.2-.94-1.62-1.6-.413-.653-.663-1.447-.75-2.38-.24.053-.476.09-.71.11-.233.013-.46.02-.68.02-.28 0-.54-.007-.78-.02-.24-.02-.446-.087-.62-.2-.173-.113-.31-.293-.41-.54-.106-.253-.16-.613-.16-1.08 0-.413.104-.797.31-1.15.207-.353.45-.667.73-.94.274-.28.547-.523.82-.73.28-.207.487-.37.62-.49m3.32 3.31c.207 0 .434.13.68.39.254.26.544.547.87.86.327.307.707.59 1.14.85.434.26.924.39 1.47.39.674 0 1.23-.113 1.67-.34.44-.22.79-.517 1.05-.89s.44-.803.54-1.29c.107-.493.16-1.007.16-1.54 0-.467-.03-.943-.09-1.43-.06-.48-.136-.94-.23-1.38-.1-.44-.203-.853-.31-1.24-.113-.393-.213-.727-.3-1l-6.65 6.62"/>
</svg>
