<svg xmlns="http://www.w3.org/2000/svg" width="567" height="241" viewBox="0 0 567 241">
  <path d="M233.8,121.4 C216.8,130.9 202.6,151 194.7,167.2 C190.5,173.4 192.4,185.9 204.2,178.1 C212.8,172.3 229.9,147.7 241,129.5 C242.2,127.5 243.5,123.2 243.1,121.2 C241.3,117.7 235.9,120.3 233.8,121.4 Z M302.7,133.6 C290.8,136.9 282.2,147.2 277.6,157.9 C275.2,163.5 272.3,172.7 275.7,177.3 C277.1,179 279.5,178 280.9,177 C285.7,173.7 289.1,168.6 292,164.1 C297.3,154.6 302,144.4 303.3,133.4 L302.7,133.6 Z M349.3,136.8 C343.1,140 339.6,150.3 338.4,156 C336.9,163.2 335.5,173.1 338.8,177.4 C339.6,178.1 340.5,178.6 341.7,178.6 C346.7,178.7 350.1,171.1 352,166.7 C355.2,159.5 358.1,148 357.1,140.7 C356.7,136.9 353.1,135.2 349.3,136.8 Z M227.8,22.5 C239.7,34.8 243.3,53.1 237.6,68.9 C223.9,103.8 188.5,128.7 151.2,138.7 C133.6,142.7 108.1,144.6 92,136.4 C77.5,128.4 70.6,111.5 73.4,95.6 C77.9,71.2 96.6,53.5 118.8,41.8 C137.3,33 159.1,29 181.1,31.5 C183.6,31.8 185.8,33 186.4,35.8 C186.7,37.9 186.4,39.2 185.4,40.5 C183.9,42.5 182.1,42.9 180.1,42.8 C155.2,42.6 129.6,48.8 111.4,65 C100.7,75.1 92.1,91.1 100.4,108.1 C105.6,118.8 124.6,122.1 135.7,121.1 C200.3,115.1 220.3,75.7 224,62.1 C231.8,34.3 204.5,10.6 152.2,17.9 C84.4,27.3 42.2,73.3 33.6,120.5 C24.5,170 72.2,191.1 122,180.6 C142.2,176.3 163.6,166.7 184.4,146.9 C201.6,128.8 225.1,102.6 251.8,106.7 C255,107.4 259,109.1 260,112.7 C261.5,119.1 258.2,124.9 256.1,130.6 C235,166.7 237.1,181.4 240.9,183.2 C248.7,185.7 253.7,174.6 257.5,168.4 C262.6,145 281,122.9 304.8,116.1 C305.5,113.3 305.6,110.5 305.5,107.6 C305.2,95.1 299.3,86.4 295.5,76.2 C294.7,73.5 295.6,70.2 297.7,68.1 C299.3,66.4 302.9,64.5 305.8,65.3 C308.7,65.8 310.6,68.1 312.1,70.1 C317.6,78.4 323.5,83.2 334.9,83.2 C343.3,83.5 351.9,82.9 358.6,78.5 C362.9,73.6 367.8,68.3 374.1,66.6 C377.2,66 379.7,66.6 381.8,68.5 C383.8,70.5 384.3,73.5 383.2,76.2 C381.3,81.2 374.3,86 369.3,91.3 C361.2,99.9 355.3,110.4 351.2,121.6 C353.7,120.8 357.3,120 360.5,120.6 C370,122.4 373,131.4 373.5,140 C373.7,142.7 373.6,145.6 373.2,148.4 C378.6,147.5 382,145.5 386.1,143.5 C393,139.6 398.7,133.9 404.3,128.4 C406.7,126.2 410.4,125.4 413.2,126.4 C415.4,127 417.2,129 417.6,131.4 C418.6,137.9 412.8,140 404.4,152.6 C399.8,159.7 394.5,167 393.6,175.7 C393.5,177.3 393.9,178.8 394.9,179.9 C396.8,181.5 399.9,180.7 402,179.5 C406.3,177.1 409.7,173.3 412.2,169.3 C415.9,155.9 421.2,143.1 432,133.8 C434.7,131.7 438,129.8 441.6,130.6 C443.5,130.9 445.1,132.3 445.5,133.8 C447.6,140.2 443.2,148.6 440.1,154 C436.2,160.9 429.9,167.6 424.4,173.7 C424.3,176.9 425,178.9 427.5,179.5 C431.3,180 434.3,177.2 437.2,174.9 C445.4,167.2 453.2,158.3 458,148 C457.2,138.8 460.4,128.2 468.6,123.3 C471.4,121.9 474.7,122.1 476.9,123.6 C479.2,125.4 479.3,128.7 478.8,131.5 C478.2,134.9 476.3,137.5 474.6,140.4 C479.2,140.7 483.2,138.5 487.5,137.5 C489.7,137 491,137.6 492.2,138.6 C494.4,140.7 494.6,143.4 493.5,146 C491.2,151 488,153.6 484.7,158.2 C480.1,164.6 476,173.2 475.8,179.6 C475.8,181.1 476.5,182.2 477.5,182.6 C480,183.5 482.1,181.7 484.1,180.4 C498.3,169.7 509.1,154.4 520.9,141.7 C524,138.8 527.5,135.8 531.9,137.2 C533.4,137.7 534.6,139 535,140.6 C535.6,143.7 533.8,147.5 531.9,150.1 C526,159.1 518.1,169.3 517.8,179.8 C517.9,181.7 518.5,182.3 519.3,182.6 C522.7,183.6 526.8,180.1 529.9,177.2 C540.2,167.8 547.1,155.7 554.9,144.6 C556.4,142.2 558.7,140.2 561.5,139.9 C563.5,139.8 565.2,140.3 566.4,141.7 C569.8,146.5 567,153.6 564.6,158.2 C554.1,178 543,198 532,218.2 C526.4,227.9 523.4,233.4 523,241 C522.7,241.8 521.9,242.3 520.7,241.8 C514.5,239.5 512,235.6 511.9,231 C511.9,226.9 515.6,221 516.9,218.3 C522.4,207.6 529.7,196.3 534.8,185.7 C534.1,186.3 532.8,187.6 531.6,188.5 C524.8,194.1 518.3,201.2 509.2,200 C506.2,199.5 503.5,196.4 502.7,193.4 C501.2,188.3 502.2,180.9 503.7,175.7 L503.2,176.2 C495.4,184.5 487,193.8 476.4,199 C473.2,200.4 467.6,201.5 464.3,198.5 C458.2,192.2 459.7,180.9 463,172.6 C465.7,165.8 469.5,159.4 473.5,153.4 C470.5,154.3 467.9,154.8 464.9,154.8 L463.8,156.3 C454.3,170.6 445.2,186.7 431.1,196.6 C426.3,200 419.9,200.3 415.9,197.7 C412.5,195.6 411.2,191.6 410.2,188 C403.1,193.3 390.8,202.8 382.2,198.6 C377.1,195.8 374.9,190 375.1,184.1 C375.3,175.6 379.1,166.9 382.5,159.3 C381.2,159.9 380.4,160.2 379.1,160.8 C375.8,162.2 372.5,163.3 369.1,164.5 C366.7,171.4 361.5,181.1 358.6,185 C354.4,191.5 346,199.7 338.4,199.9 C332.4,200.3 327.1,197.5 324.2,192.5 C317.4,181.5 320.6,166.3 323.3,153.3 C328.2,133.8 336,115.7 345.2,98.6 C342.2,99 339.9,99.2 336.9,99.3 C331.6,99.7 327.6,100.2 321.8,99 C322.3,130.2 314.1,162.4 293.6,187 C287.8,193.9 278.5,201.3 268.3,199.7 C261.8,198.7 257.1,192.1 256.1,186.2 C251.6,194 242.9,203.4 230.3,196.5 C222.9,192.4 222.7,188.7 222.2,180.5 C222.2,180.5 206.5,204.4 185.8,198.8 C176.5,196.2 168.5,186.9 173.4,172.1 C147.7,191.9 118.8,204.8 93.2,205.3 C57.7,205.9 26.5,191.4 11.3,167.3 C-9.6,134.1 3.6,87.5 30.3,58 C57,28.5 87.3,16.3 107,9.9 C161.5,-8 208.4,3.6 227.8,22.5 Z" transform="translate(-1 -1)"/>
</svg>
