<svg xmlns="http://www.w3.org/2000/svg" id="cadbury-logo" viewBox="-30 -10 650 210">
  <path d="M232.8 120.4c-17 9.5-31.2 29.6-39.1 45.8-4.2 6.2-2.3 18.7 9.5 10.9 8.6-5.8 25.7-30.4 36.8-48.6 1.2-2 2.5-6.3 2.1-8.3-1.8-3.5-7.2-.9-9.3.2m68.9 12.2c-11.9 3.3-20.5 13.6-25.1 24.3-2.4 5.6-5.3 14.8-1.9 19.4 1.4 1.7 3.8.7 5.2-.3 4.8-3.3 8.2-8.4 11.1-12.9 5.3-9.5 10-19.7 11.3-30.7l-.6.2zm46.6 3.2c-6.2 3.2-9.7 13.5-10.9 19.2-1.5 7.2-2.9 17.1.4 21.4.8.7 1.7 1.2 2.9 1.2 5 .1 8.4-7.5 10.3-11.9 3.2-7.2 6.1-18.7 5.1-26-.4-3.8-4-5.5-7.8-3.9M226.8 21.5c11.9 12.3 15.5 30.6 9.8 46.4-13.7 34.9-49.1 59.8-86.4 69.8-17.6 4-43.1 5.9-59.2-2.3-14.5-8-21.4-24.9-18.6-40.8 4.5-24.4 23.2-42.1 45.4-53.8 18.5-8.8 40.3-12.8 62.3-10.3 2.5.3 4.7 1.5 5.3 4.3.3 2.1 0 3.4-1 4.7-1.5 2-3.3 2.4-5.3 2.3-24.9-.2-50.5 6-68.7 22.2-10.7 10.1-19.3 26.1-11 43.1 5.2 10.7 24.2 14 35.3 13 64.6-6 84.6-45.4 88.3-59 7.8-27.8-19.5-51.5-71.8-44.2-67.8 9.4-110 55.4-118.6 102.6-9.1 49.5 38.6 70.6 88.4 60.1 20.2-4.3 41.6-13.9 62.4-33.7 17.2-18.1 40.7-44.3 67.4-40.2 3.2.7 7.2 2.4 8.2 6 1.5 6.4-1.8 12.2-3.9 17.9-21.1 36.1-19 50.8-15.2 52.6 7.8 2.5 12.8-8.6 16.6-14.8 5.1-23.4 23.5-45.5 47.3-52.3.7-2.8.8-5.6.7-8.5-.3-12.5-6.2-21.2-10-31.4-.8-2.7.1-6 2.2-8.1 1.6-1.7 5.2-3.6 8.1-2.8 2.9.5 4.8 2.8 6.3 4.8 5.5 8.3 11.4 13.1 22.8 13.1 8.4.3 17-.3 23.7-4.7 4.3-4.9 9.2-10.2 15.5-11.9 3.1-.6 5.6 0 7.7 1.9 2 2 2.5 5 1.4 7.7-1.9 5-8.9 9.8-13.9 15.1-8.1 8.6-14 19.1-18.1 30.3 2.5-.8 6.1-1.6 9.3-1 9.5 1.8 12.5 10.8 13 19.4.2 2.7.1 5.6-.3 8.4 5.4-.9 8.8-2.9 12.9-4.9 6.9-3.9 12.6-9.6 18.2-15.1 2.4-2.2 6.1-3 8.9-2 2.2.6 4 2.6 4.4 5 1 6.5-4.8 8.6-13.2 21.2-4.6 7.1-9.9 14.4-10.8 23.1-.1 1.6.3 3.1 1.3 4.2 1.9 1.6 5 .8 7.1-.4 4.3-2.4 7.7-6.2 10.2-10.2 3.7-13.4 9-26.2 19.8-35.5 2.7-2.1 6-4 9.6-3.2 1.9.3 3.5 1.7 3.9 3.2 2.1 6.4-2.3 14.8-5.4 20.2-3.9 6.9-10.2 13.6-15.7 19.7-.1 3.2.6 5.2 3.1 5.8 3.8.5 6.8-2.3 9.7-4.6 8.2-7.7 16-16.6 20.8-26.9-.8-9.2 2.4-19.8 10.6-24.7 2.8-1.4 6.1-1.2 8.3.3 2.3 1.8 2.4 5.1 1.9 7.9-.6 3.4-2.5 6-4.2 8.9 4.6.3 8.6-1.9 12.9-2.9 2.2-.5 3.5.1 4.7 1.1 2.2 2.1 2.4 4.8 1.3 7.4-2.3 5-5.5 7.6-8.8 12.2-4.6 6.4-8.7 15-8.9 21.4 0 1.5.7 2.6 1.7 3 2.5.9 4.6-.9 6.6-2.2 14.2-10.7 25-26 36.8-38.7 3.1-2.9 6.6-5.9 11-4.5 1.5.5 2.7 1.8 3.1 3.4.6 3.1-1.2 6.9-3.1 9.5-5.9 9-13.8 19.2-14.1 29.7.1 1.9.7 2.5 1.5 2.8 3.4 1 7.5-2.5 10.6-5.4 10.3-9.4 17.2-21.5 25-32.6 1.5-2.4 3.8-4.4 6.6-4.7 2-.1 3.7.4 4.9 1.8 3.4 4.8.6 11.9-1.8 16.5-10.5 19.8-21.6 39.8-32.6 60-5.6 9.7-8.6 15.2-9 22.8-.3.8-1.1 1.3-2.3.8-6.2-2.3-8.7-6.2-8.8-10.8 0-4.1 3.7-10 5-12.7 5.5-10.7 12.8-22 17.9-32.6-.7.6-2 1.9-3.2 2.8-6.8 5.6-13.3 12.7-22.4 11.5-3-.5-5.7-3.6-6.5-6.6-1.5-5.1-.5-12.5 1-17.7l-.5.5c-7.8 8.3-16.2 17.6-26.8 22.8-3.2 1.4-8.8 2.5-12.1-.5-6.1-6.3-4.6-17.6-1.3-25.9 2.7-6.8 6.5-13.2 10.5-19.2-3 .9-5.6 1.4-8.6 1.4l-1.1 1.5c-9.5 14.3-18.6 30.4-32.7 40.3-4.8 3.4-11.2 3.7-15.2 1.1-3.4-2.1-4.7-6.1-5.7-9.7-7.1 5.3-19.4 14.8-28 10.6-5.1-2.8-7.3-8.6-7.1-14.5.2-8.5 4-17.2 7.4-24.8-1.3.6-2.1.9-3.4 1.5-3.3 1.4-6.6 2.5-10 3.7-2.4 6.9-7.6 16.6-10.5 20.5-4.2 6.5-12.6 14.7-20.2 14.9-6 .4-11.3-2.4-14.2-7.4-6.8-11-3.6-26.2-.9-39.2 4.9-19.5 12.7-37.6 21.9-54.7-3 .4-5.3.6-8.3.7-5.3.4-9.3.9-15.1-.3.5 31.2-7.7 63.4-28.2 88-5.8 6.9-15.1 14.3-25.3 12.7-6.5-1-11.2-7.6-12.2-13.5-4.5 7.8-13.2 17.2-25.8 10.3-7.4-4.1-7.6-7.8-8.1-16 0 0-15.7 23.9-36.4 18.3-9.3-2.6-17.3-11.9-12.4-26.7-25.7 19.8-54.6 32.7-80.2 33.2-35.5.6-66.7-13.9-81.9-38-20.9-33.2-7.7-79.8 19-109.3s57-41.7 76.7-48.1C160.5-9 207.4 2.6 226.8 21.5"/>
</svg>
