<svg xmlns="http://www.w3.org/2000/svg" viewBox="265 340 100 110">
  <g fill-rule="evenodd" clip-rule="evenodd">
    <path fill="#000000" d="M232.006 387.3c0 .215.107.752-.322.752-.322 0-.537-.537-.645-.86-1.183-2.362-3.116-4.51-5.694-4.51-3.33 0-5.05 3.437-5.05 6.767 0 3.544 1.72 8.486 6.017 8.486 3.438 0 4.94-3.223 5.586-3.223.106 0 .32.107.32.215 0 .967-2.362 4.727-7.196 4.727-6.553 0-7.52-6.338-7.52-8.27 0-4.19 2.256-9.67 7.95-9.67 2.686 0 4.404 1.505 5.05 1.505.43 0 .43-.86.75-.86.108 0 .323.108.323.216l.43 4.724z"/>
    <path fill="#000000" d="M235.66 393.424c-.43 0-.86.107-1.397 1.72-.107.536-.43 1.395-.43 1.933 0 1.826 2.363 1.396 2.363 2.04 0 .538-.645.43-1.074.43-.752 0-1.397-.106-2.15-.106-.644 0-1.288.108-1.933.108-.323 0-.753 0-.753-.322 0-.537 1.182-.43 1.72-1.826l6.123-15.04c.107-.322.215-.86.537-.86.215 0 .215.108.537.86l6.016 15.147c.752 1.826 1.934.752 1.934 1.61 0 .43-.215.43-.86.43-.75 0-1.395-.106-2.792-.106-1.074 0-1.826.108-2.47.108-.43 0-.753 0-.753-.322 0-.752 1.61-.43 1.61-1.934 0-.645-.107-1.074-.43-1.72-.752-1.933-.86-2.147-1.396-2.147h-4.405zm3.76-1.397c.32 0 .644 0 .644-.215 0-.322-.107-.645-.215-.86l-1.827-4.51c-.107-.216-.107-.216-.215-.216 0 0-.107 0-.215.322l-1.72 4.405c-.106.215-.214.537-.214.86 0 .214.32.214.644.214h3.115zM249.41 385.044c0-2.793-2.364-1.826-2.364-2.793 0-.214.215-.32.43-.32 1.074 0 1.182.106 2.686.106 1.503 0 3.008-.107 4.512-.107 4.834 0 5.264 3.544 5.264 4.618 0 1.61-.645 2.578-1.29 3.115s-1.288.752-1.288 1.074c0 .108 1.934 3.76 3.545 6.875.215.322.645.322.752.322.215 0 .537-.107.752-.107.106 0 .32.107.32.322 0 .858-1.503 1.395-2.362 1.395-1.826 0-2.47-1.61-3.223-3.008l-1.826-3.975c-.538-1.074-.968-1.29-2.042-1.29-1.182 0-1.075.108-1.075 1.075v4.297c0 2.578 2.256 1.61 2.256 2.47 0 .216-.216.43-.753.43-.322 0-.967-.106-1.934-.106-1.18 0-2.256.107-3.438.107-.215 0-.645 0-.645-.43 0-.86 1.72 0 1.72-3.115v-10.956zm2.792 4.405c0 .644.86.644 1.504.644 3.438 0 3.545-1.396 3.545-2.793 0-2.47-1.288-4.296-3.544-4.296-.86 0-1.504 0-1.504 1.504v4.94z"/>
    <path fill="#000000" d="M264.878 386.656c0-4.727-2.578-3.115-2.578-4.297 0-.216.107-.43.43-.43.43 0 .86.106 1.29.106.536 0 1.073-.107 2.255-.107.752 0 .537.214.86.644l9.022 10.958c.322.322.537.645.645.645.215 0 .215-.322.215-.967v-8.27c0-2.257-2.686-1.827-2.686-2.58 0-.214 0-.43.323-.43s.967.108 2.578.108c1.397 0 2.15-.107 2.364-.107.43 0 .43.216.43.323 0 .752-1.934.107-1.934 2.793v13.858c0 .537 0 .752-.215.752-.322 0-.43-.107-.645-.322l-10.742-12.89c-.107-.216-.215-.323-.43-.323-.107 0-.107.108-.107.323v8.487c0 4.727 2.794 3.115 2.794 4.297 0 .322-.537.322-.752.322-1.18 0-1.933-.108-2.686-.108-.752 0-1.29.107-1.933.107-.215 0-.645.106-.645-.323 0-.967 2.148-.537 2.148-3.115v-9.456h.002zM285.827 388.267c0 1.074 0 1.29.967 1.29h1.396c1.934 0 1.934-2.257 2.363-2.257.215 0 .43-.107.43.537l.215 4.512c0 .32.107 1.18-.43 1.18-.645 0-.107-2.685-2.363-2.685h-1.72c-.966 0-.858.322-.858 1.826v3.117c0 1.504-.107 2.47 1.504 2.47 5.48 0 5.157-3.222 6.017-3.222.107 0 .322 0 .322.537 0 1.934-1.397 3.975-3.224 3.975-3.33 0-4.727-.107-5.8-.107-.753 0-1.612.107-2.9.107-.323 0-.43-.215-.43-.322 0-1.182 1.718.215 1.718-2.793V384.83c0-2.256-2.47-1.504-2.47-2.47 0-.216.106-.43.43-.43.966 0 2.577.106 5.908.106 1.61 0 3.223-.107 5.156-.107.322 0 .43.214.43.43l.107 2.47c0 .322.107 1.182-.43 1.182-.966 0 .752-2.9-3.545-2.9-2.793 0-2.793 0-2.793 1.72v3.435zM308.17 387.837c0 .322-.106.537-.536.537-.537 0-.537-5.48-6.445-5.48-2.042 0-4.943 1.505-4.943 7.843 0 3.33 1.504 7.95 5.157 7.95 3.975 0 4.082-2.148 4.082-3.545 0-3.867-2.686-2.256-2.686-3.115 0-.752.752-.537 1.074-.537 1.074 0 2.148.107 3.223.107.752 0 1.61-.107 2.363-.107.107 0 .215.107.215.322 0 1.074-1.504-.322-1.504 2.9 0 1.074.108 1.72.108 2.04 0 .43-.107.538-.322.646-2.04 1.29-4.512 2.47-6.982 2.47-6.553 0-7.52-6.337-7.52-8.378 0-4.083 2.256-9.56 7.842-9.56 3.115 0 5.05 1.61 5.586 1.61s.645-.752.967-.752.32.537.32.967v4.082z"/>
    <path fill="#000000" d="M313.435 396.432c0 3.008 2.47 1.934 2.47 2.686 0 .322-.214.43-.643.43-.86 0-1.72-.107-3.438-.107-.967 0-1.934.108-2.47.108-.216 0-.323-.215-.323-.322 0-.86 1.612-.215 1.612-2.578v-11.924c0-2.256-2.47-1.61-2.47-2.47 0-.43.536-.323.75-.323.86 0 1.72.108 2.472.108.86 0 1.61-.107 2.9-.107.646 0 .86 0 .86.323 0 .86-1.72 0-1.72 2.363v11.816zM320.955 388.267c0 1.074 0 1.29.967 1.29h1.396c1.934 0 2.04-2.257 2.47-2.257.108 0 .43-.107.43.537l.108 4.512c0 .32.215 1.18-.322 1.18-.752 0-.107-2.685-2.47-2.685h-1.612c-1.074 0-.967.322-.967 1.826v3.117c0 1.504-.107 2.47 1.504 2.47 5.585 0 5.263-3.222 6.122-3.222.107 0 .215 0 .215.537 0 1.934-1.29 3.975-3.115 3.975-3.438 0-4.727-.107-5.91-.107-.643 0-1.61.107-2.792.107-.322 0-.43-.215-.43-.322 0-1.182 1.612.215 1.612-2.793V384.83c0-2.256-2.472-1.504-2.472-2.47 0-.216.215-.43.537-.43.86 0 2.472.106 5.91.106 1.61 0 3.114-.107 5.048-.107.322 0 .43.214.43.43l.107 2.47c0 .322.215 1.182-.322 1.182-1.074 0 .645-2.9-3.652-2.9-2.686 0-2.793 0-2.793 1.72v3.435zM349.745 396.002c0 3.115 2.363 2.256 2.363 3.223 0 .322-.215.322-.537.322-.75 0-2.04-.107-2.9-.107-.86 0-1.718.107-2.9.107-.322 0-.43-.107-.43-.322 0-.86 1.612-.215 1.612-2.578v-4.512c0-1.074.107-1.29-.86-1.29h-6.016c-.967 0-1.074.216-1.074 1.29v3.975c0 3.008 2.793 2.148 2.793 3.008 0 .215 0 .43-.645.43-.967 0-1.72-.107-3.33-.107-.86 0-1.826.108-3.008.108-.215 0-.43-.107-.43-.43 0-.967 1.934-.107 1.934-3.115V384.83c0-2.686-2.578-1.61-2.578-2.47 0-.43.645-.43 1.074-.43.645 0 1.396.106 2.578.106 1.29 0 2.148-.107 2.793-.107.322 0 .537.106.537.32 0 .86-1.72.108-1.72 2.257v3.975c0 .645.108.967.538.967h6.66c.646 0 .753-.538.753-1.075v-3.545c0-2.686-2.363-1.826-2.363-2.47 0-.538.107-.43.43-.43.967 0 1.505.106 2.9.106 1.183 0 2.042-.107 3.01-.107.32 0 .43.106.43.32 0 .86-1.612-.106-1.612 2.257v11.495zM357.802 393.424c-.322 0-.86.107-1.396 1.72-.107.536-.43 1.395-.43 1.933 0 1.826 2.47 1.396 2.47 2.04 0 .538-.75.43-1.18.43-.753 0-1.397-.106-2.15-.106-.644 0-1.288.108-1.933.108-.322 0-.645 0-.645-.322 0-.537 1.074-.43 1.61-1.826l6.124-15.04c.107-.322.215-.86.537-.86.214 0 .214.108.536.86l6.016 15.147c.752 1.826 1.934.752 1.934 1.61 0 .43-.215.43-.752.43-.86 0-1.504-.106-2.9-.106-.967 0-1.826.108-2.47.108-.43 0-.753 0-.753-.322 0-.752 1.612-.43 1.612-1.934 0-.645-.107-1.074-.43-1.72-.645-1.933-.752-2.147-1.396-2.147h-4.404zm3.76-1.397c.322 0 .645 0 .645-.215 0-.322-.107-.645-.215-.86l-1.826-4.51c-.107-.216-.107-.216-.215-.216 0 0-.106 0-.214.322l-1.72 4.405c-.106.215-.214.537-.214.86 0 .214.322.214.645.214h3.115zM374.13 395.787c0 1.504-.106 2.47 1.504 2.47 5.48 0 5.265-3.222 6.017-3.222.108 0 .323 0 .323.537 0 1.934-1.396 3.975-3.223 3.975-3.33 0-4.727-.107-5.802-.107-.752 0-1.61.107-2.9.107-.215 0-.43-.215-.43-.322 0-1.182 1.72.215 1.72-2.793v-11.817c0-2.04-2.472-1.396-2.472-2.256 0-.216.215-.43.645-.43.968 0 2.257.106 3.116.106 1.827 0 2.15-.107 2.472-.107.43 0 .536 0 .536.32 0 .968-1.503 0-1.503 1.935v11.602z"/>
    <path fill="#000000" d="M385.41 395.787c0 1.504-.107 2.47 1.504 2.47 5.48 0 5.156-3.222 6.016-3.222.107 0 .322 0 .322.537 0 1.934-1.396 3.975-3.223 3.975-3.33 0-4.728-.107-5.802-.107-.752 0-1.61.107-2.9.107-.322 0-.43-.215-.43-.322 0-1.182 1.72.215 1.72-2.793v-11.817c0-2.04-2.472-1.396-2.472-2.256 0-.216.215-.43.645-.43.968 0 2.257.106 3.116.106 1.826 0 2.148-.107 2.47-.107.43 0 .538 0 .538.32 0 .968-1.504 0-1.504 1.935v11.602zM218.04 411.256h174.782v-9.346h-174.78v9.346M218.04 400.836h174.782v-.215h-174.78v.216"/>
  </g>
</svg>
