<svg xmlns="http://www.w3.org/2000/svg" width="177" height="31" viewBox="0 0 177 31">
  <g>
    <path d="M15.006,6.3 C15.006,6.515 15.113,7.052 14.684,7.052 C14.362,7.052 14.147,6.515 14.039,6.192 C12.856,3.83 10.923,1.682 8.345,1.682 C5.015,1.682 3.295,5.119 3.295,8.449 C3.295,11.993 5.015,16.935 9.312,16.935 C12.75,16.935 14.252,13.712 14.898,13.712 C15.004,13.712 15.218,13.819 15.218,13.927 C15.218,14.894 12.856,18.654 8.022,18.654 C1.469,18.654 0.502,12.316 0.502,10.384 C0.502,6.194 2.758,0.714 8.452,0.714 C11.138,0.714 12.856,2.219 13.502,2.219 C13.932,2.219 13.932,1.359 14.252,1.359 C14.36,1.359 14.575,1.467 14.575,1.575 L15.005,6.299 L15.006,6.3 Z"/>
    <path d="M18.66,12.424 C18.23,12.424 17.8,12.531 17.263,14.144 C17.156,14.68 16.833,15.539 16.833,16.077 C16.833,17.903 19.196,17.473 19.196,18.117 C19.196,18.655 18.551,18.547 18.122,18.547 C17.37,18.547 16.725,18.441 15.972,18.441 C15.328,18.441 14.684,18.549 14.039,18.549 C13.716,18.549 13.286,18.549 13.286,18.227 C13.286,17.69 14.468,17.797 15.006,16.401 L21.129,1.361 C21.236,1.039 21.344,0.501 21.666,0.501 C21.881,0.501 21.881,0.609 22.203,1.361 L28.219,16.508 C28.971,18.334 30.153,17.26 30.153,18.118 C30.153,18.548 29.938,18.548 29.293,18.548 C28.543,18.548 27.898,18.442 26.501,18.442 C25.427,18.442 24.675,18.55 24.031,18.55 C23.601,18.55 23.278,18.55 23.278,18.228 C23.278,17.476 24.888,17.798 24.888,16.294 C24.888,15.649 24.781,15.22 24.458,14.574 C23.706,12.641 23.598,12.427 23.062,12.427 L18.657,12.427 L18.66,12.424 Z M22.42,11.027 C22.74,11.027 23.064,11.027 23.064,10.812 C23.064,10.49 22.957,10.167 22.849,9.952 L21.022,5.442 C20.915,5.226 20.915,5.226 20.807,5.226 C20.807,5.226 20.7,5.226 20.592,5.548 L18.872,9.953 C18.766,10.168 18.658,10.49 18.658,10.813 C18.658,11.027 18.978,11.027 19.302,11.027 L22.417,11.027 L22.42,11.027 Z M32.41,4.044 C32.41,1.251 30.046,2.218 30.046,1.251 C30.046,1.037 30.261,0.931 30.476,0.931 C31.55,0.931 31.658,1.037 33.162,1.037 C34.665,1.037 36.17,0.93 37.674,0.93 C42.508,0.93 42.938,4.474 42.938,5.548 C42.938,7.158 42.293,8.126 41.648,8.663 C41.003,9.2 40.36,9.415 40.36,9.737 C40.36,9.845 42.294,13.497 43.905,16.612 C44.12,16.934 44.55,16.934 44.657,16.934 C44.872,16.934 45.194,16.827 45.409,16.827 C45.515,16.827 45.729,16.934 45.729,17.149 C45.729,18.007 44.226,18.544 43.367,18.544 C41.541,18.544 40.897,16.934 40.144,15.536 L38.318,11.561 C37.78,10.487 37.35,10.271 36.276,10.271 C35.094,10.271 35.201,10.379 35.201,11.346 L35.201,15.643 C35.201,18.221 37.457,17.253 37.457,18.113 C37.457,18.329 37.241,18.543 36.704,18.543 C36.382,18.543 35.737,18.437 34.77,18.437 C33.59,18.437 32.514,18.544 31.332,18.544 C31.117,18.544 30.687,18.544 30.687,18.114 C30.687,17.254 32.407,18.114 32.407,14.999 L32.407,4.043 L32.41,4.044 Z M35.202,8.449 C35.202,9.093 36.062,9.093 36.706,9.093 C40.144,9.093 40.251,7.697 40.251,6.3 C40.251,3.83 38.963,2.004 36.707,2.004 C35.847,2.004 35.203,2.004 35.203,3.508 L35.203,8.448 L35.202,8.449 Z"/>
    <path d="M47.878,5.656 C47.878,0.929 45.3,2.541 45.3,1.359 C45.3,1.143 45.407,0.929 45.73,0.929 C46.16,0.929 46.59,1.035 47.02,1.035 C47.556,1.035 48.093,0.928 49.275,0.928 C50.027,0.928 49.812,1.142 50.135,1.572 L59.157,12.53 C59.479,12.852 59.694,13.175 59.802,13.175 C60.017,13.175 60.017,12.853 60.017,12.208 L60.017,3.938 C60.017,1.681 57.331,2.111 57.331,1.358 C57.331,1.144 57.331,0.928 57.654,0.928 C57.977,0.928 58.621,1.036 60.232,1.036 C61.629,1.036 62.382,0.929 62.596,0.929 C63.026,0.929 63.026,1.145 63.026,1.252 C63.026,2.004 61.092,1.359 61.092,4.045 L61.092,17.903 C61.092,18.44 61.092,18.655 60.877,18.655 C60.555,18.655 60.447,18.548 60.232,18.333 L49.49,5.443 C49.383,5.227 49.275,5.12 49.06,5.12 C48.953,5.12 48.953,5.228 48.953,5.443 L48.953,13.93 C48.953,18.657 51.747,17.045 51.747,18.227 C51.747,18.549 51.21,18.549 50.995,18.549 C49.815,18.549 49.062,18.441 48.309,18.441 C47.557,18.441 47.019,18.548 46.376,18.548 C46.161,18.548 45.731,18.654 45.731,18.225 C45.731,17.258 47.879,17.688 47.879,15.11 L47.879,5.654 L47.881,5.654 L47.878,5.656 Z M68.827,7.267 C68.827,8.341 68.827,8.557 69.794,8.557 L71.19,8.557 C73.124,8.557 73.124,6.3 73.553,6.3 C73.768,6.3 73.983,6.193 73.983,6.837 L74.198,11.349 C74.198,11.669 74.305,12.529 73.768,12.529 C73.123,12.529 73.661,9.844 71.405,9.844 L69.685,9.844 C68.719,9.844 68.827,10.166 68.827,11.67 L68.827,14.787 C68.827,16.291 68.72,17.257 70.331,17.257 C75.811,17.257 75.488,14.035 76.348,14.035 C76.455,14.035 76.67,14.035 76.67,14.572 C76.67,16.506 75.273,18.547 73.446,18.547 C70.116,18.547 68.719,18.44 67.646,18.44 C66.893,18.44 66.034,18.547 64.746,18.547 C64.423,18.547 64.316,18.332 64.316,18.225 C64.316,17.043 66.034,18.44 66.034,15.432 L66.034,3.83 C66.034,1.574 63.564,2.326 63.564,1.36 C63.564,1.144 63.67,0.93 63.994,0.93 C64.96,0.93 66.571,1.036 69.902,1.036 C71.512,1.036 73.125,0.929 75.058,0.929 C75.38,0.929 75.488,1.143 75.488,1.359 L75.595,3.829 C75.595,4.151 75.702,5.011 75.165,5.011 C74.199,5.011 75.917,2.111 71.62,2.111 C68.827,2.111 68.827,2.111 68.827,3.831 L68.827,7.266 L68.827,7.267 Z M91.17,6.837 C91.17,7.159 91.064,7.374 90.634,7.374 C90.097,7.374 90.097,1.894 84.189,1.894 C82.147,1.894 79.246,3.399 79.246,9.737 C79.246,13.067 80.75,17.687 84.403,17.687 C88.378,17.687 88.485,15.539 88.485,14.142 C88.485,10.275 85.799,11.886 85.799,11.027 C85.799,10.275 86.551,10.49 86.873,10.49 C87.947,10.49 89.021,10.597 90.096,10.597 C90.848,10.597 91.706,10.49 92.459,10.49 C92.566,10.49 92.674,10.597 92.674,10.812 C92.674,11.886 91.17,10.49 91.17,13.712 C91.17,14.786 91.278,15.432 91.278,15.752 C91.278,16.182 91.171,16.29 90.956,16.398 C88.916,17.688 86.444,18.868 83.974,18.868 C77.421,18.868 76.454,12.531 76.454,10.49 C76.454,6.407 78.71,0.93 84.296,0.93 C87.411,0.93 89.346,2.54 89.882,2.54 C90.418,2.54 90.527,1.788 90.849,1.788 C91.171,1.788 91.169,2.325 91.169,2.755 L91.169,6.837 L91.17,6.837 Z"/>
    <path d="M96.435,15.432 C96.435,18.44 98.905,17.366 98.905,18.118 C98.905,18.44 98.691,18.548 98.262,18.548 C97.402,18.548 96.542,18.441 94.824,18.441 C93.857,18.441 92.89,18.549 92.354,18.549 C92.138,18.549 92.031,18.334 92.031,18.227 C92.031,17.367 93.643,18.012 93.643,15.649 L93.643,3.725 C93.643,1.469 91.173,2.115 91.173,1.255 C91.173,0.825 91.709,0.932 91.923,0.932 C92.783,0.932 93.643,1.04 94.395,1.04 C95.255,1.04 96.005,0.933 97.295,0.933 C97.941,0.933 98.155,0.933 98.155,1.256 C98.155,2.116 96.435,1.256 96.435,3.619 L96.435,15.435 L96.435,15.432 Z M103.955,7.267 C103.955,8.341 103.955,8.557 104.922,8.557 L106.318,8.557 C108.252,8.557 108.358,6.3 108.788,6.3 C108.896,6.3 109.218,6.193 109.218,6.837 L109.326,11.349 C109.326,11.669 109.541,12.529 109.004,12.529 C108.252,12.529 108.897,9.844 106.534,9.844 L104.922,9.844 C103.848,9.844 103.955,10.166 103.955,11.67 L103.955,14.787 C103.955,16.291 103.848,17.257 105.459,17.257 C111.044,17.257 110.722,14.035 111.581,14.035 C111.688,14.035 111.796,14.035 111.796,14.572 C111.796,16.506 110.506,18.547 108.681,18.547 C105.243,18.547 103.954,18.44 102.771,18.44 C102.128,18.44 101.161,18.547 99.979,18.547 C99.657,18.547 99.549,18.332 99.549,18.225 C99.549,17.043 101.161,18.44 101.161,15.432 L101.161,3.83 C101.161,1.574 98.689,2.326 98.689,1.36 C98.689,1.144 98.904,0.93 99.226,0.93 C100.086,0.93 101.698,1.036 105.136,1.036 C106.746,1.036 108.25,0.929 110.184,0.929 C110.506,0.929 110.614,1.143 110.614,1.359 L110.721,3.829 C110.721,4.151 110.936,5.011 110.399,5.011 C109.325,5.011 111.044,2.111 106.747,2.111 C104.061,2.111 103.954,2.111 103.954,3.831 L103.954,7.266 L103.955,7.267 Z M132.745,15.002 C132.745,18.117 135.108,17.258 135.108,18.225 C135.108,18.547 134.893,18.547 134.571,18.547 C133.821,18.547 132.531,18.44 131.671,18.44 C130.811,18.44 129.953,18.547 128.771,18.547 C128.449,18.547 128.341,18.44 128.341,18.225 C128.341,17.365 129.953,18.01 129.953,15.647 L129.953,11.135 C129.953,10.061 130.06,9.845 129.093,9.845 L123.077,9.845 C122.11,9.845 122.003,10.061 122.003,11.135 L122.003,15.11 C122.003,18.118 124.796,17.258 124.796,18.118 C124.796,18.333 124.796,18.548 124.151,18.548 C123.184,18.548 122.431,18.441 120.821,18.441 C119.961,18.441 118.995,18.549 117.813,18.549 C117.598,18.549 117.383,18.442 117.383,18.119 C117.383,17.152 119.317,18.012 119.317,15.004 L119.317,3.83 C119.317,1.144 116.739,2.22 116.739,1.36 C116.739,0.93 117.384,0.93 117.813,0.93 C118.458,0.93 119.209,1.036 120.391,1.036 C121.681,1.036 122.539,0.929 123.184,0.929 C123.506,0.929 123.721,1.035 123.721,1.249 C123.721,2.109 122.001,1.357 122.001,3.506 L122.001,7.481 C122.001,8.126 122.109,8.448 122.539,8.448 L129.199,8.448 C129.845,8.448 129.952,7.91 129.952,7.373 L129.952,3.828 C129.952,1.142 127.589,2.002 127.589,1.358 C127.589,0.82 127.696,0.928 128.019,0.928 C128.986,0.928 129.524,1.034 130.919,1.034 C132.102,1.034 132.961,0.927 133.929,0.927 C134.249,0.927 134.359,1.033 134.359,1.247 C134.359,2.107 132.747,1.141 132.747,3.504 L132.747,14.999 L132.745,15.002 Z M140.802,12.424 C140.48,12.424 139.942,12.531 139.406,14.144 C139.299,14.68 138.976,15.539 138.976,16.077 C138.976,17.903 141.446,17.473 141.446,18.117 C141.446,18.655 140.696,18.547 140.266,18.547 C139.513,18.547 138.869,18.441 138.116,18.441 C137.472,18.441 136.828,18.549 136.183,18.549 C135.861,18.549 135.538,18.549 135.538,18.227 C135.538,17.69 136.612,17.797 137.148,16.401 L143.272,1.361 C143.379,1.039 143.487,0.501 143.809,0.501 C144.023,0.501 144.023,0.609 144.345,1.361 L150.361,16.508 C151.113,18.334 152.295,17.26 152.295,18.118 C152.295,18.548 152.08,18.548 151.543,18.548 C150.683,18.548 150.039,18.442 148.643,18.442 C147.676,18.442 146.817,18.55 146.173,18.55 C145.743,18.55 145.42,18.55 145.42,18.228 C145.42,17.476 147.032,17.798 147.032,16.294 C147.032,15.649 146.925,15.22 146.602,14.574 C145.957,12.641 145.85,12.427 145.206,12.427 L140.802,12.427 L140.802,12.424 Z M144.562,11.027 C144.884,11.027 145.207,11.027 145.207,10.812 C145.207,10.49 145.1,10.167 144.992,9.952 L143.166,5.442 C143.059,5.226 143.059,5.226 142.951,5.226 C142.951,5.226 142.845,5.226 142.737,5.548 L141.017,9.953 C140.911,10.168 140.803,10.49 140.803,10.813 C140.803,11.027 141.125,11.027 141.448,11.027 L144.563,11.027 L144.562,11.027 Z M157.13,14.787 C157.13,16.291 157.024,17.257 158.634,17.257 C164.114,17.257 163.899,14.035 164.651,14.035 C164.759,14.035 164.974,14.035 164.974,14.572 C164.974,16.506 163.578,18.547 161.751,18.547 C158.421,18.547 157.024,18.44 155.949,18.44 C155.197,18.44 154.339,18.547 153.049,18.547 C152.834,18.547 152.619,18.332 152.619,18.225 C152.619,17.043 154.339,18.44 154.339,15.432 L154.339,3.615 C154.339,1.575 151.867,2.219 151.867,1.359 C151.867,1.143 152.082,0.929 152.512,0.929 C153.48,0.929 154.769,1.035 155.628,1.035 C157.455,1.035 157.778,0.928 158.1,0.928 C158.53,0.928 158.636,0.928 158.636,1.248 C158.636,2.216 157.133,1.248 157.133,3.183 L157.133,14.785 L157.13,14.787 Z"/>
    <path d="M168.41,14.787 C168.41,16.291 168.303,17.257 169.914,17.257 C175.394,17.257 175.07,14.035 175.93,14.035 C176.037,14.035 176.252,14.035 176.252,14.572 C176.252,16.506 174.856,18.547 173.029,18.547 C169.699,18.547 168.301,18.44 167.227,18.44 C166.475,18.44 165.617,18.547 164.327,18.547 C164.005,18.547 163.897,18.332 163.897,18.225 C163.897,17.043 165.617,18.44 165.617,15.432 L165.617,3.615 C165.617,1.575 163.145,2.219 163.145,1.359 C163.145,1.143 163.36,0.929 163.79,0.929 C164.758,0.929 166.047,1.035 166.906,1.035 C168.732,1.035 169.054,0.928 169.376,0.928 C169.806,0.928 169.914,0.928 169.914,1.248 C169.914,2.216 168.41,1.248 168.41,3.183 L168.41,14.785 L168.41,14.787 Z M1.04,30.256 L175.822,30.256 L175.822,20.91 L1.042,20.91 L1.042,30.256 L1.04,30.256 Z M1.04,19.836 L175.822,19.836 L175.822,19.621 L1.042,19.621 L1.042,19.837 L1.04,19.836 Z"/>
  </g>
</svg>
