<svg xmlns="http://www.w3.org/2000/svg" width="887" height="166" viewBox="0 0 887 166">
  <g fill-rule="evenodd">
    <path fill-rule="nonzero" d="M283.497,163.272 L322.937,163.272 L322.937,3.392 L283.497,3.392 L283.497,163.272 Z M210.865,70.22 C225.231,70.22 229.575,83.348 229.575,90.567 L190.835,90.567 C190.835,80.353 197.935,70.221 210.865,70.221 L210.865,70.22 Z M252.133,130.965 C245.821,133.105 236.259,136.049 224.096,136.049 C207.096,136.049 193.784,130.383 191.616,116.909 L264.126,116.909 C264.664,114.329 265.618,110.156 265.618,101.475 C265.618,70.857 250.388,42.758 211.518,42.758 C173.764,42.758 153.666,72.365 153.666,105.528 C153.666,143.774 180.403,165.648 217.726,165.648 C241.198,165.648 251.563,160.145 257.984,157.974 L252.134,130.964 L252.133,130.965 Z M775.39,70.22 C789.792,70.22 794.104,83.348 794.104,90.572 C794.078,90.562 755.374,90.562 755.364,90.572 C755.364,80.352 762.454,70.222 775.39,70.222 L775.39,70.22 Z M816.668,130.96 C810.356,133.105 800.794,136.054 788.641,136.054 C771.623,136.054 758.321,130.384 756.138,116.92 L828.656,116.92 C829.196,114.334 830.144,110.152 830.144,101.482 C830.144,70.852 814.912,42.759 776.054,42.759 C738.304,42.759 718.192,72.355 718.192,105.523 C718.192,143.763 744.972,165.639 782.274,165.639 C805.72,165.639 816.094,160.146 822.526,157.969 L816.67,130.959 L816.668,130.96 Z M402.056,136.448 C389.292,136.448 380.901,123.823 380.901,104.296 C380.901,88.733 386.525,72.123 402.201,72.123 C417.331,72.123 422.694,89.339 422.694,104.125 C422.694,123.745 414.531,136.448 402.057,136.448 L402.056,136.448 Z M401.538,165.62 C432.223,165.62 463.282,146.3 463.282,103.14 C463.282,77.435 448.062,42.925 403.462,42.925 C357.549,42.925 340.805,76.373 340.805,105.099 C340.805,141.142 365.835,165.619 401.538,165.619 L401.538,165.62 Z M480.684,163.22 L520.124,163.22 L520.124,45.32 L480.684,45.32 L480.684,163.22 Z M642.538,13.24 L642.595,45.293 L627.425,45.33 L627.425,74.543 L642.538,74.559 L642.538,123.262 C642.538,149.18 654.788,165.717 682.448,165.717 C694.792,165.717 708.138,162.509 710.355,161.794 C710.385,161.768 710.127,131.254 710.127,131.144 C708.863,131.57 701.417,133.109 696.523,133.109 C690.973,133.109 681.199,131.549 681.199,116.686 L681.199,74.543 L706.613,74.543 L706.613,45.273 L681.2,45.273 L681.2,8.866 L642.538,13.24 Z M551.264,13.24 L551.321,45.293 L536.153,45.33 L536.153,74.543 L551.265,74.559 L551.265,123.262 C551.265,149.18 563.517,165.717 591.181,165.717 C603.521,165.717 616.865,162.509 619.083,161.794 C619.113,161.768 618.855,131.254 618.855,131.144 C617.59,131.57 610.143,133.109 605.255,133.109 C599.701,133.109 589.925,131.549 589.925,116.686 L589.925,74.543 L615.345,74.543 L615.345,45.273 L589.925,45.273 L589.925,8.866 L551.265,13.24 L551.264,13.24 Z M480.684,34.073 L520.124,34.073 L520.124,3.445 L480.684,3.445 L480.684,34.073 Z"/>
    <path d="M0.763,163.407 L47.286,163.387 C115.492,163.387 141.488,122.677 141.488,83.997 C141.488,30.99 107.688,0.75 46.338,0.75 C29.474,0.75 10.895,1.496 0.718,2.61 L0.763,163.407 Z M53.23,131.72 C47.97,131.607 42.503,132.017 39.735,131.778 C39.751,131.768 39.502,33.528 39.663,33.508 C42.565,33.203 47.701,32.933 53.676,32.933 C76.842,32.933 100.506,48.097 100.506,82.825 C100.506,122.621 70.266,132.095 53.23,131.721 L53.23,131.72 Z"/>
    <path fill-rule="nonzero" d="M842.902,143.978 C842.902,131.928 852.672,122.165 864.72,122.165 C876.764,122.165 886.543,131.928 886.543,143.978 C886.543,156.032 876.763,165.801 864.72,165.801 C852.67,165.801 842.902,156.033 842.902,143.979"/>
  </g>
</svg>
