<svg xmlns="http://www.w3.org/2000/svg" id="deloitte-logo" viewBox="0 0 910 190">
  <path d="M300.497 180.272h39.44V20.392h-39.44v159.88zM227.865 87.22c14.366 0 18.71 13.128 18.71 20.347h-38.74c0-10.214 7.1-20.346 20.03-20.346zm41.268 60.745c-6.312 2.14-15.874 5.084-28.037 5.084-17 0-30.312-5.666-32.48-19.14h72.51c.538-2.58 1.492-6.753 1.492-15.434 0-30.618-15.23-58.717-54.1-58.717-37.754 0-57.852 29.607-57.852 62.77 0 38.246 26.737 60.12 64.06 60.12 23.472 0 33.837-5.503 40.258-7.674l-5.85-27.01M792.39 87.22c14.402 0 18.714 13.128 18.714 20.352-.026-.01-38.73-.01-38.74 0 0-10.22 7.09-20.35 20.026-20.35zm41.278 60.74c-6.312 2.145-15.874 5.094-28.027 5.094-17.018 0-30.32-5.67-32.503-19.134h72.518c.54-2.586 1.488-6.768 1.488-15.438 0-30.63-15.232-58.723-54.09-58.723-37.75 0-57.862 29.596-57.862 62.764 0 38.24 26.78 60.116 64.082 60.116 23.446 0 33.82-5.493 40.252-7.67l-5.856-27.01M419.056 153.448c-12.764 0-21.155-12.625-21.155-32.152 0-15.563 5.624-32.173 21.3-32.173 15.13 0 20.493 17.216 20.493 32.002 0 19.62-8.163 32.323-20.637 32.323zm-.518 29.172c30.685 0 61.744-19.32 61.744-62.48 0-25.705-15.22-60.215-59.82-60.215-45.913 0-62.657 33.448-62.657 62.174 0 36.043 25.03 60.52 60.733 60.52M497.684 180.22h39.44V62.32h-39.44v117.9zM659.538 30.24l.057 32.053-15.17.037v29.213l15.113.016v48.703c0 25.918 12.25 42.455 39.91 42.455 12.344 0 25.69-3.208 27.907-3.923.03-.026-.228-30.54-.228-30.65-1.264.426-8.71 1.965-13.604 1.965-5.55 0-15.324-1.56-15.324-16.423V91.543h25.414v-29.27H698.2V25.866l-38.662 4.374M568.264 30.24l.057 32.053-15.168.037v29.213l15.112.016v48.703c0 25.918 12.252 42.455 39.916 42.455 12.34 0 25.684-3.208 27.902-3.923.03-.026-.228-30.54-.228-30.65-1.265.426-8.712 1.965-13.6 1.965-5.554 0-15.33-1.56-15.33-16.423V91.543h25.42v-29.27h-25.42V25.866l-38.66 4.374M497.684 51.073h39.44V20.445h-39.44v30.628z" fill="#000000"/>
  <path d="M17.763 180.407l46.523-.02c68.206 0 94.202-40.71 94.202-79.39 0-53.007-33.8-83.247-95.15-83.247-16.864 0-35.443.746-45.62 1.86l.045 160.797zM70.23 148.72c-5.26-.113-10.727.297-13.495.058.016-.01-.233-98.25-.072-98.27 2.902-.305 8.038-.575 14.013-.575 23.166 0 46.83 15.164 46.83 49.892 0 39.796-30.24 49.27-47.276 48.896" fill="#000000" fill-rule="evenodd"/>
  <path d="M859.902 160.978c0-12.05 9.77-21.813 21.818-21.813 12.044 0 21.823 9.763 21.823 21.813 0 12.054-9.78 21.823-21.823 21.823-12.05 0-21.818-9.768-21.818-21.822" fill="#000000"/>
</svg>
