<svg xmlns="http://www.w3.org/2000/svg" width="509" height="212" viewBox="0 0 509 212">
  <g>
    <path d="M262.5,0.2 C281,1.5 301.7,2.4 322.3,4.6 C360.8,8.7 398.5,16.6 434.5,31.4 C454.1,39.4 472.7,49.3 488,64.3 C496.4,72.5 503.1,81.8 506.3,93.2 C510.1,106.9 507.9,119.7 500.9,131.9 C493.4,145 482.3,154.6 469.8,162.7 C437.8,183.4 402.1,194 365.2,201.3 C321.2,210 276.8,212.9 232.1,211.3 C191.5,209.9 151.5,204.7 112.3,194 C86.9,187 62.3,177.8 40,163.4 C27.1,155 15.4,145.3 7.7,131.6 C-1.8,114.7 -1.8,97.8 7.7,80.8 C14,69.6 23.1,60.9 33.4,53.5 C62.4,32.8 95.6,22 129.9,14 C157.7,7.4 186,3.7 214.5,2 C229.8,1.2 245.1,0.9 262.5,0.2 Z M251.6,199.3 C301.9,198.5 338.5,194.7 374.6,186.6 C402,180.4 428.7,172.1 453.3,158.2 C467.6,150.1 481,140.8 489.9,126.6 C495.7,117.3 497.9,107.3 494.7,96.5 C490.8,83.3 481.7,73.9 471.1,65.8 C452,51.1 430.2,41.9 407.5,34.7 C363,20.6 317.2,14.8 270.7,13.4 C240.7,12.5 210.7,14 180.9,17.8 C141.8,22.7 103.5,31.2 67.6,47.9 C52.7,54.8 38.8,63.2 27.3,75.1 C9.3,93.7 7.3,114.9 25.3,134.9 C38.7,149.9 55.9,159.3 73.9,167.2 C100.1,178.8 127.7,185.9 155.9,190.8 C191.8,197.2 228.2,199.7 251.6,199.3 Z"/>
    <path d="M250.2,26.2 C285.4,26.4 320.3,28.8 354.9,34.8 C387,40.3 418.7,47.8 447.4,64 C455.7,68.7 463.8,74.5 470.6,81.2 C488.2,98.6 485.3,117.8 469.6,133.2 C458.8,143.7 446,150.7 432.4,156.6 C408.4,167 383.3,173.3 357.6,177.8 C313.6,185.5 269.3,187.5 224.7,185.6 C188.4,184 152.5,179.6 117.3,170.4 C94.3,164.4 71.8,156.7 51.8,143.4 C42.6,137.3 34.5,130.2 29.6,120.1 C24.2,109.1 25.6,98.5 32.2,88.5 C40.1,76.4 51.8,68.9 64.2,62.4 C86.2,50.9 109.8,43.7 134.1,39 C152,35.6 170.1,32.3 188.2,30.4 C208.8,28.1 229.6,27.5 250.2,26.2 Z M127.9,99.3 L127.3,98.1 C125.5,98.4 123.6,98.3 122,99 C107.9,105.4 99.6,116.4 97.4,131.8 C95.4,146.5 113.4,166.5 135.5,158.6 C144.1,155.5 151.5,150.4 158.3,144.4 C170,134.2 179.1,121.9 187.3,108.8 C189.4,105.5 191.5,100.6 194.5,99.7 C200.9,97.9 208,97.3 214.5,98.2 C222.6,99.3 227.8,95 226,86.7 C225.4,83.8 224.1,81.3 220.8,81 C217.2,80.6 214.2,81.8 212.4,85.1 C211.9,86 211.8,87.1 211.3,88.1 C210.9,88.8 210.3,89.9 209.7,89.9 C206.6,90.1 203.6,90 200.1,90 C201.2,88.6 201.9,87.5 202.8,86.6 C211.4,78 220.1,69.5 228.6,60.8 C233.4,55.9 238.4,53.6 245.1,56.8 C245.9,57.2 246.9,57.2 247.8,57.5 C265,62.2 282.3,66.3 300.3,66.1 C308.2,66 315.9,65.6 323.3,62.3 C332.6,58.1 338.7,48.5 337.3,39.7 C333.3,40.5 329.4,41.4 325.4,42.2 C308.9,45.5 292.3,47.8 275.6,46.1 C256.9,44.1 238.3,40.9 219.7,38.4 C199.1,35.7 178.7,35.8 158.4,41 C144.1,44.7 135,53.3 131.6,67.9 C127.4,86.5 138.5,100.7 156.5,99.5 C171,98.6 183,84.6 176.1,67.5 C175.7,66.5 174.7,65.8 174,64.9 C173.5,65.8 173.1,66.8 172.6,67.7 C169.9,72.7 167.5,77.8 164.5,82.6 C162,86.6 157.4,84.6 153.8,85.1 C148.7,85.8 147.6,84.9 146.6,79.8 C144.6,69.1 150.4,57 160.8,53.7 C169.4,51 178.6,49.7 187.7,48.9 C200.9,47.8 214,49.9 227.2,52.8 C226.7,53.4 226.5,53.8 226.2,54 C213.1,62.5 201.6,72.9 191.4,84.7 C187,89.8 182.5,93.5 175.3,92.4 C174.5,92.3 172.9,93.1 172.6,93.9 C171.2,97.2 172.8,100.2 176.4,101.3 C172.8,105.5 169.3,109.6 165.8,113.7 C156.6,124.4 146.2,133.4 132.8,138.6 C121.7,142.9 111.6,135.2 113.2,123.6 C114.3,115.7 117.9,109 123.7,103.6 C125,102 126.4,100.6 127.9,99.3 Z M352.1,148.5 C352.2,149.1 352.4,150.5 352.5,151.9 C353,157.8 357,161.1 362.8,160.1 C365.1,159.7 367.7,159 369.4,157.5 C377.4,150.2 385.2,142.7 393,135.1 C393.8,134.4 393.5,132.6 393.8,131.3 C392.5,131.6 390.8,131.6 389.9,132.4 C386.6,135.5 383.8,139.1 380.5,142 C375.8,146.2 370.8,150.1 365.7,154 C365.1,154.5 363.8,154.2 362.8,154.2 C362.7,153.2 362.4,152.1 362.7,151.3 C364.5,146.8 366,142 368.5,137.8 C380.6,117.2 393,96.8 405.2,76.4 C407.5,72.6 409.5,68.7 412.2,63.9 C407.5,64.2 403.9,64.2 400.5,64.7 C399.1,64.9 397.4,66.1 396.6,67.3 C392.8,73.4 389.3,79.6 385.7,85.8 C380.5,94.5 375.3,103.2 369.8,112.5 C368.9,107.7 366.4,105.1 362.6,104.6 C358.7,104.2 354.6,103.9 350.9,104.9 C336.7,108.7 326.9,118.9 317.1,129.1 C313.9,132.4 310.5,135.6 306.9,138.4 C303.5,140.9 299.9,138.8 299.9,134.6 C299.9,128.8 302.8,124.8 307.4,121.4 C311.7,118.3 315.6,114.7 319.4,111 C320.4,110 321,107.4 320.4,106.1 C319.9,104.9 317.6,104 316,103.8 C308.1,103.2 304.2,108.7 301.7,114.8 C299.3,120.7 294.8,124.4 289.5,129.1 C291,126 292.2,123.9 292.9,121.7 C293.6,119.4 293.7,117 293.9,114.6 C294.5,105.1 289.4,101.4 280.4,104.7 C278.9,105.2 277.3,105.8 276.2,106.9 C268.1,115.1 260.1,123.3 252.2,131.7 C247.7,136.5 243,140.6 235.1,140.6 C236.4,138.5 237.5,137 238.4,135.4 C241.8,129.6 244.5,123.6 244.3,116.7 C244,108.6 238.2,102.7 230.3,103.1 C226.6,103.3 222.7,104.3 219.2,105.8 C206.8,111.2 197.6,120.5 189.6,131.1 C187.4,134.1 188,135.2 191.6,135.6 C191.9,139.5 192.2,143.3 192.7,147.1 C194,157.6 201,162 211.1,159.2 C218.5,157.2 223.7,152.1 229.2,147.3 C230.3,146.3 231.9,145.2 233.2,145.2 C245.1,145.5 252.6,138.6 259.8,130.2 C265.7,123.2 272.5,117.1 279.3,110.9 C280.8,109.5 283.8,109.7 286.1,109.2 C285.5,111.2 285.2,113.5 284.1,115.3 C279.2,122.9 274.1,130.3 269.1,137.8 L255.3,158.5 C261.2,158.8 266,158.6 270.8,157.1 C271.1,157 271.3,156.5 271.6,156.2 C274.5,152.8 277.4,149.3 280.4,145.9 C285.1,140.6 289.8,135.3 295,129.4 C295,133.1 294.6,135.6 295.1,137.8 C296.4,143.2 303.1,145.4 309.2,142.3 C312.4,140.7 315.4,138.4 317.5,137 C318.4,142 319,147.5 320.6,152.7 C322.6,159 328.8,161.9 334.7,159.1 C340.4,156.4 346,152.2 352.1,148.5 Z"/>
    <path d="M218.6,86.5 C221.8,87 222.4,89.1 221.8,91.2 C221.5,92.3 219.8,93.1 218.7,94 C218.3,93.7 218,93.5 217.6,93.2 C218,91.1 218.3,88.9 218.6,86.5 Z M237,117.7 C236.7,125.9 233.1,133.7 227.3,140 C222.5,145.2 217,149.9 211,153.7 C205,157.5 201.5,154.8 202,147.6 C202.6,139.8 205.7,132.9 210,126.7 C213.2,122 216.9,117.7 220.6,113.4 C221.9,111.9 223.6,110.8 225.3,109.8 C232.3,106 237.1,109 237,117.7 Z M327.9,148.3 C329.5,140.2 333,131.8 338.4,124.3 C342.6,118.4 347.1,112.6 354.3,109.7 C357.2,108.5 360.4,107.9 362.4,110.4 C363.7,112 364.2,115.1 363.6,117.2 C359.5,132.5 349.9,143.8 337.3,152.9 C336.5,153.5 335.4,153.8 334.4,154.1 C329.9,155.7 327.8,154.1 327.9,148.3 Z"/>
  </g>
</svg>
