<svg xmlns="http://www.w3.org/2000/svg" width="868" height="161" viewBox="0 0 868 161">
  <g>
    <path d="M2.537,6.116 C1.6,6.326 0.835,7.028 0.281,7.704 L14.207,7.704 C12.782,5.024 11.064,1.678 10.86,0.709 C10.86,0.709 4.483,5.667 2.537,6.115" transform="translate(53 150)"/>
    <path d="M7.19,8.153 C7.28,6.737 7.19,1.948 6.303,0.89 C6.303,0.89 5.773,3.813 5.333,4.79 C5.033,5.442 2.516,11.093 0.913,14.71 L8.99,14.71 C8.762,14.033 8.477,13.243 8.257,12.763 C7.809,11.785 7.101,9.57 7.19,8.153" transform="translate(27 143)"/>
    <path d="M83.09,135.773 L30.144,135.83 C28.369,135.83 26.936,134.388 26.936,132.62 L26.896,3.99 C26.896,2.216 25.454,0.775 23.679,0.775 L3.393,0.775 C1.618,0.775 0.185,2.215 0.185,3.991 L0.185,153.965 C0.185,155.741 1.618,157.182 3.393,157.182 L15.705,157.182 C15.965,157.24 16.218,157.289 16.495,157.289 L83.09,157.289 C84.867,157.289 86.308,155.849 86.308,154.072 L86.308,138.982 C86.308,137.216 84.868,135.775 83.091,135.775" transform="translate(180)"/>
    <path d="M90.117,68.472 L90.117,4.59 C90.117,2.813 91.55,1.372 93.325,1.372 L112.405,1.372 C114.188,1.372 115.621,2.812 115.621,4.589 L115.621,123.096 C115.621,124.871 114.189,126.304 112.406,126.304 L103.961,126.304 C103.961,126.304 101.388,125.914 100.288,122.794 C99.188,119.676 97.902,114.716 97.902,114.716 C97.902,114.716 96.625,108.846 93.132,112.706 C89.646,116.556 74.459,128.406 44.867,128.12 C-2.283,127.657 0.299,80.98 0.299,71.11 L0.299,4.116 C0.299,2.341 1.739,0.9 3.516,0.9 L22.596,0.9 C24.37,0.9 25.804,2.34 25.804,4.116 L25.804,72.422 C25.804,80.54 25.12,106.2 54.728,106.2 C82.146,106.2 89.321,93.48 90.118,68.472" transform="translate(674 32)"/>
    <path d="M22.99,15.756 C19.504,19.608 18.217,13.736 18.217,13.736 C18.217,13.736 16.939,8.786 15.831,5.659 C14.733,2.539 12.161,2.149 12.161,2.149 L3.715,2.149 C1.94,2.149 0.499,3.589 0.499,5.365 L0.263,124.768 C0.263,126.534 1.703,127.976 3.479,127.976 L22.559,127.976 C24.326,127.976 25.767,126.534 25.767,124.766 L25.767,50.046 C26.622,44.15 30.067,26.366 49.211,23.971 C56.231,23.091 59.961,23.751 59.961,23.751 C63.251,23.751 65.001,23.311 65.001,19.581 C65.001,15.861 64.789,4.891 64.789,4.891 C64.789,4.891 64.561,0.061 60.179,0.281 C55.791,0.501 40.221,1.601 32.982,6.641 C25.744,11.691 22.992,15.754 22.992,15.754" transform="translate(803 30)"/>
    <path d="M104.744,13.51 C90.347,-0.562 60.429,0.896 60.429,0.896 C2.685,-0.888 5.111,40.684 5.111,40.684 L5.095,44.112 C5.095,45.887 6.535,47.328 8.312,47.328 L26.756,47.328 C28.531,47.328 29.964,45.888 29.964,44.112 L30.274,40.244 C30.274,40.244 32.424,20.554 59.296,21.759 C88.246,23.053 90.029,33.891 91.478,46.994 C91.478,46.994 91.64,49.738 89.376,50.226 C87.112,50.706 37.781,54.274 18.213,62.84 C-1.363,71.416 0.737,90.984 0.737,93.248 C0.737,95.512 -0.223,128.37 50.719,129.485 C80.319,130.128 95.199,113.305 95.199,113.305 C96.492,112.01 97.787,110.885 99.082,113.955 C100.377,117.025 101.672,127.702 105.71,128.028 C109.758,128.353 113.48,128.19 113.48,128.19 C113.48,128.19 117.518,128.353 117.518,124.632 C117.518,120.911 117.356,51.034 117.356,51.034 C117.356,51.034 118.252,26.718 104.742,13.51 M91.477,75.618 C91.477,75.618 91.321,78.851 90.67,83.868 C89,96.798 77.405,107.645 61.395,109.103 C45.378,110.56 28.399,106.839 27.593,91.31 C26.778,75.78 56.543,74.494 61.233,73.843 C65.923,73.192 82.233,71.473 87.918,71.09 C90.345,70.927 91.803,72.222 91.478,75.618" transform="translate(274 29)"/>
    <path d="M69.987,30.277 C40.257,29.911 29.98,42.76 29.98,42.76 C29.98,42.76 25.94,47.158 26.307,41.66 C26.674,36.148 26.014,3.942 26.014,3.942 C26.014,2.167 24.581,0.725 22.806,0.725 L3.726,0.725 C1.951,0.725 0.51,2.167 0.51,3.942 L0.51,153.907 C0.51,155.682 1.95,157.124 3.726,157.124 L12.179,157.124 C12.179,157.124 14.743,156.734 15.842,153.606 C16.95,150.496 18.228,145.536 18.228,145.536 C18.228,145.536 19.514,139.656 22.998,143.516 C26.484,147.368 41.72,160.584 71.272,158.931 C100.815,157.279 122.11,138.933 121.742,93.779 C121.377,48.633 99.716,30.644 69.985,30.279 M95.311,96.719 C95.131,104.976 97.713,138.175 59.341,137.459 C29.791,136.905 25.939,116.539 25.751,96.165 C25.523,70.831 31.077,51.385 61.728,51.939 C92.378,52.484 95.856,72.305 95.311,96.719" transform="translate(405 1)"/>
    <path d="M141.592,120.91 C140.526,123.126 138.848,123.566 137.782,123.745 C136.722,123.925 136.364,124.543 135.127,126.049 C133.889,127.555 132.382,129.851 126.975,137.742 C121.575,145.625 105.363,142.612 96.333,140.755 C87.303,138.89 85.966,136.055 85.258,129.77 C84.548,123.476 89.158,119.755 90.486,119.136 C91.813,118.516 97.66,116.212 101.292,113.028 C104.924,109.844 110.77,109.218 111.658,109.218 C112.538,109.218 114.932,109.038 122.904,108.151 C130.876,107.271 138.938,109.398 144.426,111.083 C149.052,112.5 158.319,117.679 162.766,120.179 L162.766,12.59 C162.766,5.937 157.374,0.538 150.713,0.538 L138.368,0.538 C142.781,4.268 149.434,11.703 150.55,19.145 C151.95,28.437 141.568,31.531 140.713,31.833 C139.866,32.133 139.5,32.321 139.5,32.321 C136.405,25.889 139.198,23.096 140.477,21.215 C141.747,19.335 139.867,18.422 137.92,17.567 C135.982,16.72 135.314,15.873 135.013,14.839 C134.703,13.804 134.523,12.347 133.799,10.832 C133.066,9.31 131.673,9.074 130.395,8.952 C129.125,8.83 128.09,8.097 127.357,7.918 C126.632,7.738 125.541,7.738 125.541,7.738 L125.598,8.773 C125.598,8.773 122.078,6.95 118.675,4.458 C116.257,2.683 115.622,2.105 114.661,0.541 L109.303,0.541 C109.596,1.966 110.083,2.789 110.54,3.424 C111.15,4.28 109.506,6.584 107.935,7.064 C106.355,7.554 102.707,6.404 102.707,6.404 C97.551,7.798 97.73,6.951 91.597,7.854 C85.467,8.767 84.375,12.838 83.284,15.322 C82.184,17.814 84.131,16.902 81.216,21.032 C78.299,25.159 72.046,26.502 69.496,26.438 C66.948,26.381 67.738,26.071 67.86,34.084 C67.982,42.097 69.13,41.006 71.81,41.674 C74.48,42.341 75.506,38.758 75.938,38.214 C76.361,37.667 76.418,36.934 75.816,36.877 C72.852,36.584 71.076,35.965 70.23,35.175 C69.383,34.385 70.596,32.815 71.988,31.838 C73.381,30.868 77.575,28.621 78.788,28.075 C80.001,27.53 83.528,26.382 85.108,26.072 C86.688,25.772 86.923,27.162 87.29,27.896 C87.607,28.532 87.412,29.233 88.804,29.054 C97.078,27.971 98.884,29.29 99.431,29.234 C99.977,29.168 100.711,28.564 100.831,27.531 C100.946,26.505 98.039,25.894 96.703,25.528 C95.367,25.162 87.713,25.038 87.713,25.038 C87.713,25.038 85.775,23.524 85.408,19.884 C85.042,16.244 94.211,12.539 97.485,11.627 C100.765,10.717 108.721,9.56 117.76,10.773 C126.816,11.986 130.635,17.638 132.215,23.835 C133.795,30.025 128.998,31.962 128.265,32.027 C127.54,32.084 125.961,33.607 125.293,34.755 C124.625,35.911 122.5,37.491 120.985,38.403 C119.462,39.307 117.158,41.318 117.158,41.318 C117.158,41.318 117.101,42.834 115.212,43.568 C113.332,44.291 111.938,40.464 110.782,37.915 C109.634,35.367 108.599,34.267 107.622,32.272 C106.652,30.269 105.072,29.837 104.472,29.837 C103.86,29.837 103.682,30.87 103.682,32.507 C103.682,34.152 102.166,35.789 99.609,37.427 C97.059,39.071 91.899,36.277 91.295,36.033 C90.685,35.789 87.777,34.633 86.922,34.266 C86.075,33.906 85.766,33.361 85.042,32.506 C84.308,31.659 82.982,33.116 82.549,33.418 C82.126,33.728 81.523,34.265 82.614,35.666 C83.704,37.058 87.164,38.216 88.802,38.703 C90.447,39.183 92.262,41.373 93.24,42.163 C94.21,42.953 95.243,43.687 95.91,43.255 C100.423,40.38 105.927,39.605 106.83,39.605 C107.743,39.605 111.57,39.671 109.69,45.502 C107.108,53.507 98.696,55.152 92.206,55.396 C85.708,55.641 82.369,54.004 82.003,54.004 C81.643,54.004 81.578,54.729 81.757,54.729 C81.945,54.729 84.07,56.252 85.65,57.343 C87.22,58.433 89.892,60.136 90.992,60.136 C92.082,60.136 95.665,58.923 96.878,58.613 C98.092,58.313 101.064,57.587 103.434,56.853 C105.804,56.13 114.907,48.785 116.544,47.14 C118.189,45.503 119.459,41.676 120.07,41.496 C120.673,41.316 121.83,42.286 122.74,42.408 C123.653,42.522 125.59,39.794 126.08,37.848 C126.568,35.91 126.69,35.666 127.236,35.544 C127.782,35.422 127.961,36.757 127.961,36.757 C127.961,36.757 128.628,40.162 128.326,44.893 C128.026,49.633 127.593,50.846 126.201,54.853 C124.801,58.859 120.011,59.283 118.431,59.771 C116.851,60.259 112.903,61.531 110.111,62.018 C107.317,62.5 105.859,60.985 103.978,60.138 C103.31,59.838 99.67,59.226 99.368,60.26 C98.058,64.698 105.924,67.117 107.195,67.418 C115.525,69.405 127.113,65.415 127.715,60.438 C128.635,52.94 129.475,52.06 130.452,50.968 C131.422,49.878 134.036,50.79 134.036,50.79 C135.006,49.813 139.556,46.474 139.556,46.474 C139.556,46.474 141.014,45.749 140.282,44.594 C139.557,43.444 139.068,38.77 144.842,39.374 C150.607,39.984 152.545,48.111 152.545,48.111 C152.545,48.111 154.858,52.915 153.213,65.114 C151.577,77.312 135.307,89.828 120.495,94.494 C105.682,99.169 98.638,98.631 96.815,98.631 C94.998,98.631 91.35,97.173 90.137,96.929 C88.923,96.686 85.829,94.617 84.795,94.194 C83.761,93.771 80.185,91.946 79.395,91.588 C78.605,91.221 75.813,89.462 74.175,88.306 C72.531,87.156 72.108,85.936 71.562,84.722 C71.015,83.509 68.042,81.148 67.677,80.838 C67.31,80.538 67.677,80.048 67.677,80.048 C71.072,81.506 94.02,84.722 95.844,84.788 C97.668,84.845 105.982,85.088 107.074,85.088 C108.166,85.088 110.111,85.758 110.168,84.356 C110.233,82.964 103.8,81.996 103.068,81.929 C102.342,81.873 99.126,81.809 96.756,81.507 C94.386,81.207 88.678,72.337 87.888,71.189 C87.106,70.033 86.798,70.334 85.338,69.609 C83.882,68.877 78.784,64.936 78.173,64.259 C77.573,63.599 78.663,61.051 78.06,60.383 C77.45,59.708 75.503,60.799 73.972,61.491 C70.348,63.128 69.012,61.255 69.012,61.255 L64.052,56.051 L62.872,58.649 C62.872,58.649 75.388,68.812 78.932,71.645 C82.482,74.479 79.875,75.425 79.875,75.425 C79.875,75.425 77.278,78.258 76.333,78.495 C75.389,78.73 67.833,77.313 61.929,75.66 C56.025,74.008 54.136,72.12 48.232,66.923 C42.327,61.728 39.965,48.267 40.674,45.663 C41.382,43.063 41.619,39.049 41.146,37.868 C40.674,36.688 39.729,32.673 41.856,32.673 C43.983,32.673 45.633,37.396 50.592,43.063 C55.551,48.73 60.982,50.621 63.108,49.44 C65.234,48.26 62.4,44.717 61.218,42.592 C60.038,40.466 60.275,39.758 55.552,33.854 C50.829,27.95 54.135,23.464 55.079,21.338 C56.024,19.212 58.859,15.198 59.566,8.578 C59.949,5.043 61.341,2.658 63.393,0.548 L13.045,0.548 C6.385,0.548 0.993,5.948 0.993,12.6 L0.993,55.45 C4.283,56.55 11.596,59.065 12.907,60.14 C14.609,61.533 29.69,72.925 29.12,93.348 C29.063,95.531 29.804,96.238 30.756,97.298 C31.302,97.9 36.586,103.006 35.676,106.158 C33.248,102.574 30.822,100.693 30.089,100.328 C29.364,99.96 28.574,99.538 28.029,100.881 C27.483,102.209 26.994,105.801 19.771,104.766 C13.151,103.813 7.695,102.689 0.993,93.593 L0.993,145.27 C0.993,151.922 6.383,157.32 13.045,157.32 L22.655,157.32 C23.713,155.163 24.315,153.77 25.113,151.922 C26.261,149.267 29.983,139.789 31.758,136.776 C33.525,133.763 36.098,129.781 36.098,129.781 C36.098,129.781 35.3,123.487 35.48,119.855 C35.65,116.223 37.605,108.162 37.605,108.162 C37.605,108.162 38.313,106.842 37.955,105.418 C37.605,104.001 37.067,102.503 37.425,99.93 C37.775,97.365 38.932,93.375 40.968,91.518 C43.004,89.661 44.421,88.595 45.568,88.684 C46.725,88.774 48.492,90.451 50.798,95.858 C50.798,95.858 49.558,96.028 48.582,95.768 C47.612,95.5 48.232,96.298 48.41,96.568 C48.58,96.828 50.885,98.602 49.737,100.818 C48.581,103.032 43.06,109.694 44.241,111.265 C45.038,112.332 45.486,111.355 46.723,110.027 C47.961,108.7 50.705,105.507 51.153,105.687 C51.593,105.867 50.266,110.475 45.486,115.434 C45.486,115.434 46.813,116.054 45.486,118.529 C44.158,121.013 42.204,123.579 41.943,124.107 C41.675,124.644 41.675,125.882 42.473,125.174 C43.271,124.464 50.795,118.447 58.148,118.447 C63.466,118.447 63.914,120.084 64.883,120.573 C65.763,121.013 67.098,122.52 67.358,123.318 C67.628,124.108 67.978,124.728 69.304,125.175 C70.64,125.615 74.98,126.681 75.599,132.349 C75.599,132.349 77.904,135.183 75.062,139.523 C75.062,139.523 97.262,136.535 106.675,157.323 L150.705,157.323 C157.365,157.323 162.757,151.925 162.757,145.273 L162.757,122.031 C158.995,119.808 150.851,118.799 149.737,118.799 C148.4,118.799 142.651,118.709 141.584,120.924 M44.876,70.58 C44.166,70.76 43.353,70.417 42.236,71.533 C41.879,71.883 41.439,72.666 41.416,73.439 C41.35,75.744 36.366,73.349 35.746,73.154 C34.159,72.658 31.676,71.136 26.186,64.939 C20.69,58.734 18.744,45.981 18.566,40.933 C18.386,35.883 20.601,26.673 27.156,17.993 C33.71,9.307 45.136,7.8 46.643,7.8 C48.149,7.8 49.566,7.98 49.656,8.867 C49.746,9.753 49.476,9.753 49.476,10.812 C49.476,10.812 50.276,12.758 50.006,15.862 C49.403,22.937 42.661,28.442 39.379,31.186 C36.104,33.93 36.455,37.561 36.544,41.193 C36.634,44.817 39.468,56.869 40.086,58.905 C40.704,60.941 44.712,67.959 45.339,68.847 C45.959,69.734 45.575,70.394 44.875,70.573 M62.455,107.723 C58.873,105.173 56.813,100.377 54.63,94.18 C52.44,87.99 51.17,83.675 50.193,80.89 C49.223,78.097 48.556,77.853 48.433,77.12 C48.313,76.395 48.556,75.972 48.858,75.67 C48.858,75.67 54.2,76.517 58.638,78.52 C63.068,80.524 62.945,80.89 66.765,83.44 C70.592,85.988 72.115,91.265 73.141,93.21 C74.176,95.157 77.711,96.64 78.199,96.884 C78.687,97.119 80.275,98.274 80.275,98.274 C95.698,104.164 106.048,104.627 106.537,104.749 C107.027,104.863 107.262,105.294 107.262,105.294 C105.805,107.534 92.084,107.964 92.084,107.964 C92.084,107.964 87.354,107.844 79.584,110.091 C71.807,112.331 66.042,110.271 62.459,107.721"/>
    <path d="M62.928,129.037 C13.434,129.037 0.828,98.004 0.828,64.511 C0.828,31.321 13.76,0.278 63.23,0.278 C112.09,0.278 125.6,31.32 125.6,64.512 C125.6,98.307 112.09,129.039 62.928,129.039 M63.23,21.793 C34.045,21.793 27.587,40.841 27.587,64.513 C27.587,88.479 34.045,107.533 62.927,107.533 C92.407,107.533 98.864,88.78 98.864,64.513 C98.864,41.151 93.034,21.793 63.23,21.793" transform="translate(536 31)"/>
  </g>
</svg>
