<svg version="1" xmlns="http://www.w3.org/2000/svg" viewBox="0 0 1024 400">
  <path d="M498.3 37c-15.6 2.2-30.1 7.6-43 15.9-26.6 17.2-42.4 44.4-44 75.6-2.2 44.6 26.5 83.2 72.2 97.2 8.5 2.6 10.1 2.7 28.5 2.7s20-.1 28.5-2.7c18.9-5.8 33.2-14.5 46.3-28.2 35.9-37.3 34.6-95.9-2.9-132.5-13.2-12.9-31.6-22.6-50.1-26.6-9-1.8-27.2-2.6-35.5-1.4zm16.5 31.7c.3 1.8 1 2.3 3.4 2.3h3.1l-2.7 2.5c-1.4 1.3-2.6 2.9-2.6 3.5 0 1.3 1.6.5 4.8-2.3l2.2-2v16.4l-3-2.2c-4-3-5-1.6-1.5 2.1 1.6 1.7 2.3 3 1.6 3-.8 0-.5.9.8 2.6 2.5 3.1 2.7 7.2.6 10-.8 1-1.5 2.2-1.5 2.5 0 .3 4.7-1 10.4-2.9 6.5-2.2 10.2-4 10-4.7-.7-1.6 2.2-3.8 4.1-3.1.8.3 1.5 1.3 1.5 2.2 0 1.1.5 1.4 1.6 1 .9-.3 2.8-.6 4.4-.6 2 0 2.9-.6 3.3-2.1.8-2.9 5.1-2.2 5.5.8.2 1.6 1 2.3 2.5 2.3 1.2 0 2.8.4 3.6.9.9.6 2.1.5 3.1-.1 2.6-1.7 5.3-.2 4.7 2.4-.8 2.9 2.2 8 4.4 7.3.9-.3 2.2.1 2.9 1 1.5 1.7.7 4.5-1.3 4.5-1.2 0-1.3.9-.6 4.6 1.6 8.4-2.2 26.3-8.6 40.8-2.1 4.7-2.5 7.3-2.5 14.6 0 4.9.5 9.2 1 9.5 2.7 1.6-1.2 6-3.9 4.5-1-.5-2.1-.7-2.5-.3-.3.3-3.5.5-7.1.4-3.6 0-7.2-.1-8-.1h-83.7c-.7 0-2.9.1-4.8.2-2 .1-4.3-.1-5.3-.5-1.8-.7-2.3-4.2-.7-5.2.6-.3 1-4.3 1-8.8 0-6.9-.5-9.4-2.9-15.2-5.6-13.3-8.3-24.2-8.4-34.5-.1-8-.4-9.7-2-11.1-1.8-1.4-1.8-1.6-.3-3.1.8-.9 2.4-1.4 3.3-1.2 2.2.6 5.5-4.7 4.2-6.7-.4-.8-.3-1.9.3-2.6 1.3-1.6 4.5-1.7 5-.2.3.9.9.9 2.5 0 1.2-.6 3.1-1.1 4.2-1.1 1.3 0 2.1-.8 2.3-2.3.4-3 4.7-3.7 5.5-.9.7 2.8 7.6 3.5 9.2 1 .6-1 1.8-1.8 2.6-1.8 1.4 0 3.8 3.3 3 4.2-.3.2 4.2 2 10 3.9 9.4 3.2 10.2 3.4 8.9 1.5-1.9-2.7-1.8-8.6.2-11.4 1.2-1.7 1.2-2.2.2-2.2-.7 0 .2-1.2 2-2.6 1.7-1.4 3.2-3 3.2-3.5 0-1.8-2.9-.9-4.8 1.6-1.1 1.4-2.3 2.5-2.6 2.5-.3 0-.6-3.8-.6-8.5 0-5 .4-8.5 1-8.5s1 .4 1 1c0 .5 1.4 1.6 3 2.5 3.7 1.9 3.8 1 .3-2.7l-2.7-2.8h3.2c2.4 0 3.2-.4 3.2-1.8 0-2.5 1-3.3 3.5-3 1.2.2 2.1 1.2 2.3 2.5z"/>
  <path d="M511 93c0 .5.5 1 1 1 .6 0 1-.5 1-1 0-.6-.4-1-1-1-.5 0-1 .4-1 1zM511 97c0 .5.5 1 1 1 .6 0 1-.5 1-1 0-.6-.4-1-1-1-.5 0-1 .4-1 1zM503 101c0 .5.5 1 1 1 .6 0 1-.5 1-1 0-.6-.4-1-1-1-.5 0-1 .4-1 1zM507 101c0 .5.5 1 1 1 .6 0 1-.5 1-1 0-.6-.4-1-1-1-.5 0-1 .4-1 1zM511 101c0 .5.5 1 1 1 .6 0 1-.5 1-1 0-.6-.4-1-1-1-.5 0-1 .4-1 1zM515 101c0 .5.5 1 1 1 .6 0 1-.5 1-1 0-.6-.4-1-1-1-.5 0-1 .4-1 1zM519 101c0 .5.5 1 1 1 .6 0 1-.5 1-1 0-.6-.4-1-1-1-.5 0-1 .4-1 1zM462.7 105.9c-15.5 3.3-18 21.4-7 51.8l2.6 7.3h3.8c4 0 6.6-2.6 5.5-5.6-.9-2.3-3.6-1.7-3.6.9 0 3.1-.9 3.8-3 2.7-2.5-1.4-4.1-6.5-3-9.5 1.3-3.4 5.5-5.3 8-3.7 1.7 1 1.8.8 1.3-2.1-.4-2.6.1-3.7 2.2-5.7l2.7-2.5 2 2.5c1.5 1.8 1.8 3.3 1.4 5.9-.4 2.6-.2 3.1.6 2.3 3.3-3.3 9.2.5 9 5.9-.1 5-6.2 9.9-6.2 5 0-2.4-1.2-3.2-2.9-2.1-.9.5-1.1 1.7-.7 3.4.6 2.5 1 2.6 7.1 2.6h6.5v-26.4l2.8 2.6c3.4 3.2 6.5 4.8 9.3 4.8 2.1 0 2.2-.1.4-2-1-1.1-3.8-3-6.4-4.2l-4.6-2.3 6.8-.3 6.8-.3-.3-11.7-.3-11.7-11.2-3.8c-11.7-3.9-22.4-5.3-29.6-3.8zM544.1 106.1c-4.7.9-11.1 2.9-19.8 6.1l-5.3 1.9V137h6.8l6.7.1-4.6 2.4c-4.7 2.5-7.6 5.1-6.6 6.1 1.2 1.2 5.5-.6 8.7-3.6 1.8-1.6 3.4-3 3.6-3 .2 0 .4 5.8.4 13v13h5.8c3.2 0 6.3-.5 7-1.2 1.7-1.7 1.5-4.8-.3-5.5-1.9-.7-2.4-.3-2.8 2.3-.2 1.9-.8 2.4-2.7 2.4-1.8 0-3.8-6.1-3.1-8.9 1-3.7 5.4-6 8.1-4.3 2 1.2 2.1 1.1 1.5-2-.5-2.8-.2-3.8 2-5.8l2.7-2.5 2 2.5c1.5 1.8 1.8 3.3 1.4 5.9-.4 2.6-.2 3.1.6 2.3 3.3-3.3 9.1.5 9.1 5.8 0 3.2-2.7 7-5 7-.7 0-1.3-1.1-1.3-2.6 0-2-.4-2.5-1.6-2-.9.3-1.8.6-2 .6-.9 0-.3 3.7.8 4.8.7.7 3.1 1.2 5.4 1.2h4.2l4.2-12.8c7.1-21.1 6.7-36.1-1-42.6-4.9-4-15-5.5-24.9-3.5zM510.3 115.7c.9.2 2.3.2 3 0 .6-.3-.1-.5-1.8-.5-1.6 0-2.2.2-1.2.5zM510 124c0 .5.9 1 2 1s2-.5 2-1c0-.6-.9-1-2-1s-2 .4-2 1zM510.3 133.7c.9.2 2.3.2 3 0 .6-.3-.1-.5-1.8-.5-1.6 0-2.2.2-1.2.5zM509.4 151.1c-.3.6 0 1.8.9 2.6 1.8 1.8 3.7.9 3.7-1.8 0-2.1-3.4-2.7-4.6-.8zM497.4 159.1c-2.3 1.1-5 2.9-5.9 4-1.8 1.8-1.7 1.9 1.1 1.9 2.9 0 10.4-5.1 10.4-7.1 0-1.3-1-1.1-5.6 1.2zM524.2 161.5c2.4 2.2 4.8 3.5 6.4 3.5 2.7 0 2.7 0 .8-2.1-2.3-2.6-6.7-4.9-9.1-4.9-1.4 0-.9.9 1.9 3.5zM474.9 177.6c-1 1.3-1 1.7.2 2.5 3.5 2.2 9.3-.3 6.7-2.9-1.7-1.7-5.3-1.5-6.9.4zM509.3 176.7c-1.8.7-1.6 3 .3 3.7 2.6 1 5.1.7 6.3-.7 2.1-2.6-2.6-4.7-6.6-3zM543.1 176.9c-1.9 1.2-.6 4.1 1.8 4.1 2.9 0 5.1-1.1 5.1-2.5 0-2.2-4.3-3.2-6.9-1.6zM455.2 187.1c.2.6.8 1 1.3 1s1.1-.4 1.3-1c.2-.6-.4-1.1-1.3-1.1s-1.5.5-1.3 1.1zM460.2 187.1c.2.6.8 1 1.3 1s1.1-.4 1.3-1c.2-.6-.4-1.1-1.3-1.1s-1.5.5-1.3 1.1zM466.2 187.1c.2.6.8 1 1.3 1s1.1-.4 1.3-1c.2-.6-.4-1.1-1.3-1.1s-1.5.5-1.3 1.1zM471.2 187.1c.2.6.8 1 1.3 1s1.1-.4 1.3-1c.2-.6-.4-1.1-1.3-1.1s-1.5.5-1.3 1.1zM476.2 187.1c.2.6.8 1 1.3 1s1.1-.4 1.3-1c.2-.6-.4-1.1-1.3-1.1s-1.5.5-1.3 1.1zM481.2 187.1c.2.6.8 1 1.3 1s1.1-.4 1.3-1c.2-.6-.4-1.1-1.3-1.1s-1.5.5-1.3 1.1zM487.2 187.1c.2.6.8 1 1.3 1s1.1-.4 1.3-1c.2-.6-.4-1.1-1.3-1.1s-1.5.5-1.3 1.1zM492.2 187.1c.2.6.8 1 1.3 1s1.1-.4 1.3-1c.2-.6-.4-1.1-1.3-1.1s-1.5.5-1.3 1.1zM497.2 187.1c.2.6.8 1 1.3 1s1.1-.4 1.3-1c.2-.6-.4-1.1-1.3-1.1s-1.5.5-1.3 1.1zM502.2 187.1c.2.6.8 1 1.3 1s1.1-.4 1.3-1c.2-.6-.4-1.1-1.3-1.1s-1.5.5-1.3 1.1zM508.2 187.1c.2.6.8 1 1.3 1s1.1-.4 1.3-1c.2-.6-.4-1.1-1.3-1.1s-1.5.5-1.3 1.1zM513.2 187.1c.2.6.8 1 1.3 1s1.1-.4 1.3-1c.2-.6-.4-1.1-1.3-1.1s-1.5.5-1.3 1.1zM518.2 187.1c.2.6.8 1 1.3 1s1.1-.4 1.3-1c.2-.6-.4-1.1-1.3-1.1s-1.5.5-1.3 1.1zM523.2 187.1c.2.6.8 1 1.3 1s1.1-.4 1.3-1c.2-.6-.4-1.1-1.3-1.1s-1.5.5-1.3 1.1zM529.2 187.1c.2.6.8 1 1.3 1s1.1-.4 1.3-1c.2-.6-.4-1.1-1.3-1.1s-1.5.5-1.3 1.1zM534.2 187.1c.2.6.8 1 1.3 1s1.1-.4 1.3-1c.2-.6-.4-1.1-1.3-1.1s-1.5.5-1.3 1.1zM539.2 187.1c.2.6.8 1 1.3 1s1.1-.4 1.3-1c.2-.6-.4-1.1-1.3-1.1s-1.5.5-1.3 1.1zM544.2 187.1c.2.6.8 1 1.3 1s1.1-.4 1.3-1c.2-.6-.4-1.1-1.3-1.1s-1.5.5-1.3 1.1zM550.2 187.1c.2.6.8 1 1.3 1s1.1-.4 1.3-1c.2-.6-.4-1.1-1.3-1.1s-1.5.5-1.3 1.1zM555.2 187.1c.2.6.8 1 1.3 1s1.1-.4 1.3-1c.2-.6-.4-1.1-1.3-1.1s-1.5.5-1.3 1.1zM560.2 187.1c.2.6.8 1 1.3 1s1.1-.4 1.3-1c.2-.6-.4-1.1-1.3-1.1s-1.5.5-1.3 1.1zM566 187.6c0 1.7 2.2 1.4 2.8-.4.2-.7-.3-1.2-1.2-1.2-.9 0-1.6.7-1.6 1.6zM36 272v6l2.4-1.5c1.8-1.2 4.4-1.5 10.2-1.3l7.9.3.3 18.9c.2 13-.1 19.3-.9 20.2-1 1.2.2 1.4 7.1 1.4 8 0 8.3-.1 6.6-1.9-1.4-1.6-1.6-4.1-1.4-20.2l.3-18.4 8.4-.3c6.7-.2 8.7 0 10.2 1.4 1.8 1.7 1.9 1.5 1.9-4.5 0-5.8-.1-6.1-1.9-5.1-2.6 1.3-47.8 1.4-48.6 0-1.5-2.5-2.5-.5-2.5 5zM588.5 267c-.4.6-9.9 1-25.3 1-19.1 0-24.3.3-23.4 1.2 1.7 1.7 1.7 43.9 0 45.6-.9.9 4.5 1.2 24.3 1.2 18.5 0 25.8.3 26.7 1.2.9.9 1.2-.2 1.2-5.2s-.3-6.1-1.2-5.2c-.8.8-6.6 1.2-19.5 1.2H553v-14h10.3c6.9 0 11.1.5 13 1.4l2.7 1.5v-6.2c0-4.7-.3-5.8-1.2-4.9-.8.8-5.2 1.2-13 1.2H553v-12h17.2c14.5 0 17.4.3 19 1.7 1.7 1.5 1.8 1.4 1.8-4.5 0-5.7-1-7.7-2.5-5.2zM245.2 268.6c-11.6 3.1-19.2 12-19.2 22.5 0 17.6 16.1 28 38.2 24.9l7.2-1 3.3 3.2c1.8 1.7 3.3 4 3.3 5 0 1.5.4 1.7 1.8.9 2.9-1.7 10.8-9.3 8.9-8.7-1 .3-3-.6-5.2-2.6l-3.6-3.1 2.4-2.6c4.7-4.9 5.9-8.8 5.5-16.6-.4-8.7-3.4-14-10.4-18.5-7.9-5-21.2-6.4-32.2-3.4zm21.4 8.3c7.4 3.4 11.5 11.4 9.4 19-1.6 5.9-3.3 6.9-7.9 4.3-3.8-2.1-9.3-2.8-12.5-1.6-2.4.9-1.9 1.9 1.8 3.2 3.5 1.3 7.3 4.8 6.3 5.8-.3.3-2.3.8-4.5 1.1-7.7 1-16.6-3.6-20.1-10.4-1.6-3.1-1.4-9.9.5-13.8 1.4-3 6.7-7.5 10.4-8.8 3.5-1.2 12.7-.6 16.6 1.2zM194.6 275.5c-1.6 1.2-5.8 1.5-21 1.5-14.8 0-18.7.3-17.8 1.2.8.8 1.2 6.4 1.2 18.5 0 15.3-.2 17.3-1.7 18.2-1.3.7 4.5 1 19.2 1.1 15.1 0 21.4.3 22.3 1.2.9.9 1.2-.1 1.2-4.7 0-4.6-.3-5.6-1.2-4.7-.8.8-5.7 1.2-15.5 1.2H167v-10h8.8c5.5 0 9.2.4 10 1.2.9.9 1.2-.1 1.2-4.7 0-4.6-.3-5.6-1.2-4.7-.8.8-4.5 1.2-10 1.2H167v-9h13.4c10.9 0 13.8.3 15 1.6 1.5 1.4 1.6 1 1.6-4.5 0-3.4-.1-6.1-.2-6.1-.2 0-1.2.7-2.2 1.5zM445.6 275.5c-1.6 1.2-6 1.5-21.5 1.6-10.8 0-19 .3-18.3.6 1.7.7 1.7 35.4 0 37.1-.9.9 3.5 1.2 19.8 1.2 15 0 21.3.3 22.2 1.2.9.9 1.2-.1 1.2-4.7 0-4.6-.3-5.6-1.2-4.7-.8.8-5.8 1.2-16 1.2H417v-10h9.3c5.9 0 9.7.4 10.5 1.2.9.9 1.2-.1 1.2-4.7 0-4.6-.3-5.6-1.2-4.7-.8.8-4.6 1.2-10.5 1.2H417v-9h13.9c11.4 0 14.3.3 15.5 1.6 1.5 1.4 1.6 1 1.6-4.5 0-3.4-.1-6.1-.2-6.1-.2 0-1.2.7-2.2 1.5zM669 279.9c0 5.7.1 6.1 1.6 4.7 1.2-1.3 3.9-1.6 12.5-1.6 7.4 0 10.8.3 10.4 1-.4.6-6 7.4-12.6 15.1-6.5 7.8-11.9 14.7-11.9 15.5 0 1.2 3.6 1.4 20.3 1.4 14.5 0 20.6.3 21.5 1.2.9.9 1.2-.1 1.2-4.6 0-4.9-.2-5.7-1.4-4.7-.9.8-5.3 1.1-13.2.9l-11.7-.3 12.6-15c7-8.2 12.7-15.3 12.7-15.7 0-.4-8.6-.8-19.2-.8-16.4 0-19.4-.2-21-1.7-1.7-1.5-1.8-1.4-1.8 4.6zM872.2 275.5c-1 1.2-4.9 1.5-20.9 1.5-15.3 0-19.4.3-18.5 1.2.8.8 1.2 6.2 1.2 17.7 0 13.9-.3 16.7-1.7 18.3-1.6 1.7-.9 1.8 19.8 1.8 15.4 0 21.8.3 22.7 1.2.9.9 1.2-.1 1.2-4.5 0-5.3-1-7.1-2.5-4.7-.4.6-6.5 1-15.1 1H844v-10h8.8c5.5 0 9.2.4 10 1.2.9.9 1.2-.1 1.1-4.7 0-3.3-.3-5.4-.6-4.8-.3.9-3.3 1.3-9.9 1.3H844v-9h13.8c9.4 0 14.2.4 15 1.2.9.9 1.2-.1 1.2-4.5 0-3.1-.1-5.7-.2-5.7-.2.1-.9.7-1.6 1.5zM880 280c0 5.7.1 6 1.6 4.5 1.2-1.2 3.2-1.5 8.3-1.3l6.6.3.3 14.4c.2 12.3 0 14.6-1.4 16.2-1.7 1.8-1.5 1.9 6 1.9h7.6l-1.5-2.4c-1.3-1.9-1.5-5-1.3-16.2l.3-13.9 6.6-.3c5.1-.2 7.1.1 8.3 1.3 1.5 1.5 1.6 1.2 1.6-4.5 0-5.6-.1-6-1.6-4.6-2.3 2.4-37.5 2.4-39.8 0-1.5-1.4-1.6-1-1.6 4.6zM393 276c-.8.5-10.3 1-21 1.1-10.7 0-18.9.3-18.2.6 1.7.7 1.7 35.4 0 37.1-.9.9 3.5 1.2 19.8 1.2 15 0 21.3.3 22.2 1.2.9.9 1.2-.1 1.2-4.7 0-4.6-.3-5.6-1.2-4.7-.8.8-5.8 1.2-16 1.2H365v-10h9.4c6.6 0 9.6.4 9.9 1.2.3.7.6-1 .6-3.7l.1-5-10 .3-10 .3V283h13.8c9.4 0 14.2.4 15 1.2.9.9 1.2 0 1.2-4 0-2.9-.1-5.2-.2-5.2-.2 0-1 .5-1.8 1zM96.8 295.1c.2 12.7-.1 18.5-.9 19.5-1 1.2.1 1.4 6.6 1.4 7.6 0 7.8-.1 6.1-1.9-1.3-1.5-1.6-3.4-1.4-8.7l.3-6.9h24l.3 7.3c.2 4.6-.2 7.9-.9 8.8-1 1.2.1 1.4 6.7 1.4 5.9-.1 7.4-.3 6.2-1.1-1.6-.9-1.8-2.9-1.8-18.2 0-12.1.4-17.7 1.2-18.5.9-.9-.5-1.2-6.3-1.2-4.3 0-6.9.4-6.1.9.9.5 1.2 2.7 1 7.2l-.3 6.4h-24l-.3-5.8c-.2-3.5.2-6.4.9-7.3 1-1.2.2-1.4-5.2-1.4h-6.4l.3 18.1zM296.7 277.8c.7.4 1.2 5.7 1.5 15.2.2 11.9.6 15 2.1 17.2 2.9 4.2 8.8 6 20.3 6.1 8.8 0 10.8-.3 15-2.4 6.4-3.2 7.3-5.8 7.3-22.6.1-9.5.4-13.3 1.4-13.6.6-.3-1.9-.6-5.6-.6-6.6-.1-6.7-.1-5.6 2.1.7 1.4 1 6 .7 13.5-.4 9.8-.7 11.7-2.5 13.5-4.2 4.2-17 4-20.9-.3-1.4-1.6-1.9-4.2-2.2-13.3-.3-7.4 0-12 .7-13.4 1.1-2.2 1-2.2-6.1-2.2-4 0-6.8.4-6.1.8zM457.8 277.7c1.7.7 1.7 35.4 0 37.1-.9.9.4 1.2 6.2 1.2 7 0 7.2-.1 5.7-1.8-1.4-1.5-1.7-4-1.7-12.5 0-6.3.4-10.7 1-10.7.5 0 6.6 5 13.5 11.1 10.1 9 12.3 11.4 11.4 12.5-1 1.2.1 1.4 6.7 1.4 6.1 0 7.5-.3 6.6-1.2-1.7-1.7-1.7-36.4.1-37.1.6-.3-1.9-.6-5.7-.6-5.5-.1-6.7.2-5.8 1.1 1.4 1.4 1.7 23.2.3 22.6-2.3-.8-24.1-21.1-24.1-22.4 0-1.1-1.6-1.4-7.7-1.3-4.3 0-7.2.3-6.5.6zM601.8 278.2c.8.8 1.2 6.4 1.2 18.5 0 15.3-.2 17.3-1.7 18.2-1.3.7 4.2 1 18.4 1.1 15.1 0 20.3.3 20.6 1.2.3.7.6-1.4.6-4.7.1-4.6-.2-5.6-1.1-4.7-.8.8-5.4 1.2-14 1.2H613v-15.4c0-11.4.3-15.6 1.3-15.9.6-.3-2.2-.6-6.2-.6-5.8-.1-7.2.2-6.3 1.1zM648.8 278.2c1.5 1.5 1.7 33 .2 35.9-1 1.8-.7 1.9 5.6 1.9 5.6 0 6.5-.2 5.5-1.4-.8-1-1.1-6.8-.9-19.5l.3-18.1h-5.9c-4.7 0-5.7.3-4.8 1.2zM735.7 279c.5 2-15.4 31.7-18.9 35.2-1.7 1.7-1.5 1.8 6.2 1.8 7.8 0 8-.1 6.8-2-1.1-1.7-1-2.5.2-4.8 1.5-2.6 1.8-2.7 12.2-3l10.7-.3 1.7 3.3c1.3 2.5 1.4 3.6.5 5-1 1.7-.6 1.8 7.9 1.8h9.1l-2.4-2.3c-1.4-1.2-6.1-8.3-10.5-15.7-10.8-18.4-10.6-17.8-9.1-19.6 1-1.2 0-1.4-6.9-1.4-7.5 0-8 .1-7.5 2zm10.1 14.9c1.7 3.3 3.2 6.2 3.2 6.5 0 .7-12.5.8-13.2.1-.6-.6 5.4-12.5 6.2-12.5.3 0 2 2.7 3.8 5.9zM776.8 277.7c1.7.7 1.7 35.4 0 37.1-1.6 1.6 30.4 1.7 36.8.1 5.6-1.4 9.4-5.7 9.4-10.6 0-2.8-.8-4.3-3.5-6.8l-3.4-3.3 2.4-1.6c2-1.3 2.5-2.5 2.5-5.9 0-4.7-.5-5.6-4-8-2.1-1.5-5.2-1.7-22-1.6-10.7 0-18.9.3-18.2.6zm31.6 6.3c3 1.1 3.6 5.4 1 6.4-.9.3-6 .6-11.5.6H788v-8h8.9c4.9 0 10.1.4 11.5 1zm1 15.2c4.5 2 4.5 7.1-.1 8.9-1.3.5-6.7.9-11.9.9H788v-11h9.5c5.2 0 10.5.5 11.9 1.2zM931.8 277.7c1.7.7 1.7 35.4 0 37.1-.9.9.6 1.2 6.7 1.2 6.6 0 7.6-.2 6.1-1.3-1.4-1-1.6-2.5-1.4-8.7l.3-7.5h24l.3 7.3c.2 4.6-.2 7.9-.9 8.8-1 1.2.1 1.4 6.7 1.4 5.9-.1 7.4-.3 6.2-1.1-1.6-.9-1.8-2.9-1.8-18.2 0-12.1.4-17.7 1.2-18.5.9-.9-.5-1.2-6.3-1.2-4.3 0-6.9.4-6.1.9.9.5 1.2 2.7 1 7.2l-.3 6.4h-24l-.3-5.8c-.2-3.5.2-6.4.9-7.3 1-1.2 0-1.4-6.2-1.3-4.1 0-6.8.3-6.1.6zM763 365.1c0 4.9.3 6 1.2 5.1.8-.8 4.5-1.2 10-1.2h8.8v19.4c0 14.6-.3 19.6-1.2 19.9-.7.3 2.5.5 7.2.5s7.9-.2 7.3-.5c-1-.3-1.3-5.3-1.3-19.9V369h8.8c5.5 0 9.2.4 10 1.2.9.9 1.2-.2 1.2-5.1 0-5.7-.1-6.1-1.6-4.7-2.3 2.4-46.5 2.4-48.8 0-1.5-1.4-1.6-1-1.6 4.7zM1.3 363c1.5 1 1.7 3.2 1.7 22.3 0 15.7-.3 21.6-1.2 22.6-1.1 1 3 1.2 20.8.9l22.1-.3 4.8-3c6.7-4.1 9.9-10.3 9.9-19.4 0-8.1-1.5-12.8-5.6-17-6.3-6.4-7.1-6.6-31.8-6.9-16.2-.1-22 .1-20.7.8zm39.5 8.5c6.6 4 9 14 5.2 22.3-2.9 6.4-7.5 8.2-21.2 8.2H14v-33.2l11.8.4c9.4.3 12.3.7 15 2.3zM436.8 363.2c1.5 1.5 1.7 33 .2 35.8-2.6 4.8-16.7 4.4-21.7-.6l-2.4-2.4-.8 2.3c-.5 1.2-1.6 3.9-2.5 6-1.5 3.7-1.5 3.8.4 3.2 1-.3 4.5.1 7.8 1 8.3 2.1 18.7 1.9 23.9-.4 6.7-3.1 7.3-5.2 7.3-26 0-16.1.2-18.1 1.8-19 1.2-.8-.5-1-6.7-1.1-6.6 0-8.2.3-7.3 1.2zM684 369c0 .6-7.9 1-21.7 1-20.9 0-21.6.1-20 1.8 1.4 1.6 1.7 4.4 1.7 18.3 0 11.5-.4 16.9-1.2 17.7-.9.9 3.4 1.2 19.3 1.2 16.9 0 20.8.3 22.7 1.6 2.2 1.5 2.2 1.5 2.2-4 0-5.2-1-7-2.5-4.6-.4.6-6.7 1-15.6 1H654v-10h9.3c5.9 0 9.7.4 10.5 1.2.9.9 1.2-.1 1.2-4.7 0-4.6-.3-5.6-1.2-4.7-.8.8-4.6 1.2-10.5 1.2H654v-9h14.3c9.8 0 14.7.4 15.5 1.2.9.9 1.2-.1 1.2-4.5 0-3.1-.2-5.7-.5-5.7s-.5.4-.5 1zM736.5 369c-.4.6-8.7 1-21.8 1-16.4 0-20.8.3-19.9 1.2 1.7 1.7 1.7 36.7 0 37-.7.1 8.5.5 20.5.8 17.8.4 21.9.8 22.7 2 .7 1 1-.3 1-4.5 0-4.6-.3-5.6-1.2-4.7-.8.8-5.8 1.2-16 1.2H707v-10h9.3c5.9 0 9.7.4 10.5 1.2.9.9 1.2-.1 1.2-4.7 0-4.6-.3-5.6-1.2-4.7-.8.8-4.6 1.2-10.5 1.2H707v-9h14.3c9.8 0 14.7.4 15.5 1.2.9.9 1.2-.1 1.2-4.5 0-5.7-.3-6.6-1.5-4.7zM979 373.5c0 4.6.3 5.6 1.2 4.7.7-.7 4.2-1.2 8.5-1.2h7.4l-.3 16-.3 16h12l-.3-16-.3-16h7.4c4.3 0 7.8.5 8.5 1.2.9.9 1.2-.1 1.2-4.7 0-4.6-.3-5.6-1.2-4.7-1.7 1.7-40.9 1.7-42.6 0-.9-.9-1.2.1-1.2 4.7zM68.9 371.4c.8 1 1.1 6.8.9 19.5l-.3 18.1h6.4c5.1 0 6.2-.3 5.3-1.2-.8-.8-1.2-6.2-1.2-17.7 0-13.9.3-16.7 1.7-18.3 1.5-1.7 1.3-1.8-6.2-1.8-6.5 0-7.6.2-6.6 1.4zM107 370.8c0 .4.5 1.3 1.1 1.9.8.8-1.4 5.6-7.7 17.4-4.8 9-9.4 17-10.2 17.6-1.3 1.1-.3 1.3 5.8 1.3 5.5 0 7.1-.3 6.3-1.1-.9-.9-.7-2 .5-4.5l1.6-3.4H124.7l1.9 3.5c1.7 3.1 1.7 3.7.4 4.5-1 .7 1.2 1 6.9 1 7 0 8.2-.2 6.8-1.3-1.8-1.4-19.7-32.3-19.7-34.1 0-.7.5-1.7 1.2-2.4.9-.9-.6-1.2-7-1.2-4.5 0-8.2.4-8.2.8zm11.5 18.4c1.4 2.6 2.5 5 2.5 5.3 0 .3-2.9.5-6.5.5-4.5 0-6.5-.4-6.5-1.3 0-.6 1.4-3.6 3.1-6.6 3.4-5.9 3.2-6 7.4 2.1zM149.9 371.4c.8 1 1.1 6.8.9 19.5l-.3 18.1h6c4.6 0 5.6-.3 4.7-1.2-1.3-1.3-1.8-22.8-.4-22.8.4 0 4 5.4 8.1 12 4 6.6 7.7 11.7 8.1 11.5.5-.3 4.3-6 8.7-12.7l7.8-12.3.3 11.4c.2 7.5-.1 11.8-.9 12.7-1 1.2 0 1.4 6.2 1.3 4.1 0 6.8-.3 6.2-.6-1.8-.7-1.8-35.4-.1-37.1.9-.9-.7-1.2-7.4-1.2-8.4 0-8.5 0-8.1 2.3.3 1.6-1.3 5.2-5.4 11.7-3.2 5.1-6.2 9.3-6.7 9.4-.4 0-3.5-4.3-6.9-9.8-5.1-8.4-5.9-10.1-4.9-11.7 1.2-1.8.8-1.9-7.9-1.9-7.7 0-9 .2-8 1.4zM225.1 372.6c-6.7 3.4-10.3 8.6-10.9 15.9-1.1 13 8.8 21.5 25.1 21.5 9.2 0 13.9-1.5 19.2-6.2 10.3-9.1 7.9-24.9-4.6-31.2-4.6-2.2-6.6-2.6-14.4-2.6-7.8 0-9.8.4-14.4 2.6zm22.6 6.4c4.4 2.6 6.6 6.3 6.6 11 0 14.5-22.1 18.2-28.6 4.7-1.3-2.5-1.6-4.7-1.2-6.7.8-3.6 4.9-8.8 7.9-10 3.9-1.6 11.9-1.1 15.3 1zM273.3 371.8c1.4 1.6 1.7 4.4 1.7 18.3 0 11.5-.4 16.9-1.2 17.7-.9.9.1 1.2 4.8 1.2h5.9l-.3-12.7-.3-12.6 3.8 3.3c11.9 10.2 22.2 20.3 21.7 21.1-.3.5 2.6.9 6.7.9 5.7 0 7-.3 6.1-1.2-.8-.8-1.2-6.4-1.2-18.5 0-15.3.2-17.3 1.8-18.2 1.3-.8-.2-1-5.7-1.1-6.2 0-7.2.2-6.2 1.4.8.9 1.1 5.2.9 12.7l-.3 11.3-11.5-10.3c-6.3-5.7-11.9-10.7-12.4-11.2s-.4-1.4.4-2.4c1.1-1.3.3-1.5-7.5-1.5-8.5 0-8.7.1-7.2 1.8zM333.8 371.1c.9.9 1.2 6.2 1.2 19 0 13.3-.3 17.9-1.2 18.2-.7.3 6.8.6 16.8.6 17 .1 18.3 0 22.4-2.2 5.8-3.1 9-8.9 9-16.6 0-8.3-3.1-13.9-9.5-17.1-4.6-2.3-6.3-2.5-22.5-2.8-14.3-.3-17.3-.2-16.2.9zm31.2 7.7c9.4 4.7 8.8 19.3-1.1 22.8-1.8.7-6.9 1.3-11.1 1.3l-7.8.1v-26h8.3c5.8 0 9.2.5 11.7 1.8zM460.3 371.8c1.4 1.5 1.7 4.2 1.7 15.1 0 20.8 1.8 22.6 22.5 22.6 11.8 0 13.3-.2 16.7-2.3 5-3.1 5.8-6.2 5.8-21.8 0-11.6.2-13.4 1.8-14.3 1.2-.8-.3-1-6.2-1.1-7.6 0-7.8.1-6.3 1.8 1.3 1.5 1.7 3.9 1.7 11.4 0 13-.6 15.6-4.4 18-4.5 2.8-15.6 2.2-18.9-1-2-2-2.2-3.4-2.5-14.3-.3-10.4-.1-12.3 1.4-14 1.7-1.9 1.5-1.9-6.6-1.9-8 0-8.2.1-6.7 1.8zM517.8 371.3c1 1.1 1.2 6.3 1 19.6l-.3 18.1h18.3c19.5 0 22.4-.6 25.6-5.2 2.5-3.5 2-9.4-.9-12.3-1.3-1.4-2.9-2.5-3.6-2.5-.6 0 .3-1.3 2-2.9 4.7-4.4 3.8-10.6-2.1-13.8-2.8-1.5-6.5-1.8-22.3-2.1-16.7-.4-18.8-.2-17.7 1.1zm32.3 6.7c1.1.6 1.9 2.1 1.9 3.5 0 3.2-2 3.7-13.5 3.3-8.6-.3-9-.4-9.3-2.6-.7-4.8.1-5.2 9.8-5.2 5 0 10 .5 11.1 1zm1.9 16c2.4 2.4 2.5 3.9.6 6.6-1.3 1.7-2.7 1.9-12.3 1.9h-10.8l-.3-3.9c-.6-6.5-.4-6.6 10.8-6.6 8.7 0 10.3.3 12 2zM571.9 371.4c.8 1 1.1 6.8.9 19.5l-.3 18.1 7-.1c3.9 0 6.4-.3 5.8-.6-1.8-.7-1.8-35.4-.1-37.1.9-.9-.5-1.2-6.6-1.2-6.6 0-7.7.2-6.7 1.4zM596.9 371.4c.8 1 1.1 6.8.9 19.4l-.3 18.1 18.3.3c14.9.2 18.5.6 19.2 1.8.7 1 1-.3 1-4.3 0-5.4-.1-5.7-1.9-4.7-1.1.5-7.4 1-14 1H608v-15.5c0-13.6.2-15.5 1.8-16.4 1.2-.8-.3-1-6.2-1.1-6.6 0-7.7.2-6.7 1.4zM824.3 371.8c1.4 1.6 1.7 4.4 1.7 18.3 0 11.5-.4 16.9-1.2 17.7-.9.9.5 1.2 6.3 1.1 4 0 6.8-.3 6.2-.6-.9-.3-1.3-2.9-1.3-7.9V393h5.3l5.2.1 5.3 6.9c2.9 3.9 5 7.4 4.7 8-.4.6 2.4 1 7.7 1 5.7-.1 7.8-.4 6.7-1-.9-.5-4.1-4.1-7.2-7.9l-5.6-6.9 4.5-1.7c5.4-2.1 7.4-4.7 7.4-10.1 0-9.5-5.2-11.4-30.7-11.4-16 0-16.6.1-15 1.8zm33.5 6.8c1.2.8 2.2 2.3 2.2 3.3 0 3.6-2.7 4.5-13.3 4.5l-10.2.1-.3-4.8-.3-4.7h9.8c7.3 0 10.4.4 12.1 1.6zM876.3 371.1c1.5.9 1.7 2.7 1.7 14.7 0 17.1 1 19.7 8.5 22.5 4.1 1.5 7.1 1.8 16 1.5 18.6-.6 20.5-2.7 20.5-22.9 0-10.9.3-13.6 1.7-15.1 1.5-1.7 1.3-1.8-6.2-1.8-7.6 0-7.8 0-6.1 1.9 1.5 1.7 1.7 3.6 1.4 14-.3 10.9-.5 12.3-2.5 14.3-3 3-13.5 3.8-18.2 1.4-4.3-2.3-5.1-4.9-5.1-17.3 0-8.5.3-11 1.7-12.5 1.5-1.7 1.3-1.8-6.8-1.8-6.2.1-7.9.3-6.6 1.1zM940.5 371.3c-7.6 3-10.3 6.8-9.1 13 1.2 6.4 5.2 8.4 19.5 9.6 6.1.6 12 1.5 13.1 2.1 2.8 1.5 2.5 3.6-.7 5.7-5 3.3-21.7 1.7-26.6-2.5-2-1.8-1.8-1.9-4.6 3.5-1.9 3.8-1.9 4.2-.3 4.1.9 0 4.4.7 7.7 1.6 7.6 2.1 21.8 2.1 27.6.1 8.3-3 11.3-8.2 8.5-14.8-2.1-5.1-6-6.7-20.2-8.2-13.1-1.3-16-2.4-14.4-5.5 2.8-5.2 22.5-4.5 27.5 1 1.8 2 1.9 2 4.3-2.1 1.3-2.2 2.2-4.2 2-4.3-.1-.1-3.3-1.2-7.1-2.4-7.6-2.5-22-2.9-27.2-.9z"/>
</svg>
