<svg xmlns="http://www.w3.org/2000/svg" width="1023" height="376" viewBox="0 0 1023 376">
  <g>
    <path d="M497.3,1 C481.7,3.2 467.2,8.6 454.3,16.9 C427.7,34.1 411.9,61.3 410.3,92.5 C408.1,137.1 436.8,175.7 482.5,189.7 C491,192.3 492.6,192.4 511,192.4 C529.4,192.4 531,192.3 539.5,189.7 C558.4,183.9 572.7,175.2 585.8,161.5 C621.7,124.2 620.4,65.6 582.9,29 C569.7,16.1 551.3,6.4 532.8,2.4 C523.8,0.6 505.6,-0.2 497.3,1 Z M513.8,32.7 C514.1,34.5 514.8,35 517.2,35 L520.3,35 L517.6,37.5 C516.2,38.8 515,40.4 515,41 C515,42.3 516.6,41.5 519.8,38.7 L522,36.7 L522,53.1 L519,50.9 C515,47.9 514,49.3 517.5,53 C519.1,54.7 519.8,56 519.1,56 C518.3,56 518.6,56.9 519.9,58.6 C522.4,61.7 522.6,65.8 520.5,68.6 C519.7,69.6 519,70.8 519,71.1 C519,71.4 523.7,70.1 529.4,68.2 C535.9,66 539.6,64.2 539.4,63.5 C538.7,61.9 541.6,59.7 543.5,60.4 C544.3,60.7 545,61.7 545,62.6 C545,63.7 545.5,64 546.6,63.6 C547.5,63.3 549.4,63 551,63 C553,63 553.9,62.4 554.3,60.9 C555.1,58 559.4,58.7 559.8,61.7 C560,63.3 560.8,64 562.3,64 C563.5,64 565.1,64.4 565.9,64.9 C566.8,65.5 568,65.4 569,64.8 C571.6,63.1 574.3,64.6 573.7,67.2 C572.9,70.1 575.9,75.2 578.1,74.5 C579,74.2 580.3,74.6 581,75.5 C582.5,77.2 581.7,80 579.7,80 C578.5,80 578.4,80.9 579.1,84.6 C580.7,93 576.9,110.9 570.5,125.4 C568.4,130.1 568,132.7 568,140 C568,144.9 568.5,149.2 569,149.5 C571.7,151.1 567.8,155.5 565.1,154 C564.1,153.5 563,153.3 562.6,153.7 C562.3,154 559.1,154.2 555.5,154.1 C551.9,154.1 548.3,154 547.5,154 L463.8,154 C463.1,154 460.9,154.1 459,154.2 C457,154.3 454.7,154.1 453.7,153.7 C451.9,153 451.4,149.5 453,148.5 C453.6,148.2 454,144.2 454,139.7 C454,132.8 453.5,130.3 451.1,124.5 C445.5,111.2 442.8,100.3 442.7,90 C442.6,82 442.3,80.3 440.7,78.9 C438.9,77.5 438.9,77.3 440.4,75.8 C441.2,74.9 442.8,74.4 443.7,74.6 C445.9,75.2 449.2,69.9 447.9,67.9 C447.5,67.1 447.6,66 448.2,65.3 C449.5,63.7 452.7,63.6 453.2,65.1 C453.5,66 454.1,66 455.7,65.1 C456.9,64.5 458.8,64 459.9,64 C461.2,64 462,63.2 462.2,61.7 C462.6,58.7 466.9,58 467.7,60.8 C468.4,63.6 475.3,64.3 476.9,61.8 C477.5,60.8 478.7,60 479.5,60 C480.9,60 483.3,63.3 482.5,64.2 C482.2,64.4 486.7,66.2 492.5,68.1 C501.9,71.3 502.7,71.5 501.4,69.6 C499.5,66.9 499.6,61 501.6,58.2 C502.8,56.5 502.8,56 501.8,56 C501.1,56 502,54.8 503.8,53.4 C505.5,52 507,50.4 507,49.9 C507,48.1 504.1,49 502.2,51.5 C501.1,52.9 499.9,54 499.6,54 C499.3,54 499,50.2 499,45.5 C499,40.5 499.4,37 500,37 C500.6,37 501,37.4 501,38 C501,38.5 502.4,39.6 504,40.5 C507.7,42.4 507.8,41.5 504.3,37.8 L501.6,35 L504.8,35 C507.2,35 508,34.6 508,33.2 C508,30.7 509,29.9 511.5,30.2 C512.7,30.4 513.6,31.4 513.8,32.7 Z"/>
    <path d="M510,57 C510,57.5 510.5,58 511,58 C511.6,58 512,57.5 512,57 C512,56.4 511.6,56 511,56 C510.5,56 510,56.4 510,57 Z M510,61 C510,61.5 510.5,62 511,62 C511.6,62 512,61.5 512,61 C512,60.4 511.6,60 511,60 C510.5,60 510,60.4 510,61 Z M502,65 C502,65.5 502.5,66 503,66 C503.6,66 504,65.5 504,65 C504,64.4 503.6,64 503,64 C502.5,64 502,64.4 502,65 Z M506,65 C506,65.5 506.5,66 507,66 C507.6,66 508,65.5 508,65 C508,64.4 507.6,64 507,64 C506.5,64 506,64.4 506,65 Z M510,65 C510,65.5 510.5,66 511,66 C511.6,66 512,65.5 512,65 C512,64.4 511.6,64 511,64 C510.5,64 510,64.4 510,65 Z M514,65 C514,65.5 514.5,66 515,66 C515.6,66 516,65.5 516,65 C516,64.4 515.6,64 515,64 C514.5,64 514,64.4 514,65 Z M518,65 C518,65.5 518.5,66 519,66 C519.6,66 520,65.5 520,65 C520,64.4 519.6,64 519,64 C518.5,64 518,64.4 518,65 Z M461.7,69.9 C446.2,73.2 443.7,91.3 454.7,121.7 L457.3,129 L461.1,129 C465.1,129 467.7,126.4 466.6,123.4 C465.7,121.1 463,121.7 463,124.3 C463,127.4 462.1,128.1 460,127 C457.5,125.6 455.9,120.5 457,117.5 C458.3,114.1 462.5,112.2 465,113.8 C466.7,114.8 466.8,114.6 466.3,111.7 C465.9,109.1 466.4,108 468.5,106 L471.2,103.5 L473.2,106 C474.7,107.8 475,109.3 474.6,111.9 C474.2,114.5 474.4,115 475.2,114.2 C478.5,110.9 484.4,114.7 484.2,120.1 C484.1,125.1 478,130 478,125.1 C478,122.7 476.8,121.9 475.1,123 C474.2,123.5 474,124.7 474.4,126.4 C475,128.9 475.4,129 481.5,129 L488,129 L488,102.6 L490.8,105.2 C494.2,108.4 497.3,110 500.1,110 C502.2,110 502.3,109.9 500.5,108 C499.5,106.9 496.7,105 494.1,103.8 L489.5,101.5 L496.3,101.2 L503.1,100.9 L502.8,89.2 L502.5,77.5 L491.3,73.7 C479.6,69.8 468.9,68.4 461.7,69.9 Z M543.1,70.1 C538.4,71 532,73 523.3,76.2 L518,78.1 L518,101 L524.8,101 L531.5,101.1 L526.9,103.5 C522.2,106 519.3,108.6 520.3,109.6 C521.5,110.8 525.8,109 529,106 C530.8,104.4 532.4,103 532.6,103 C532.8,103 533,108.8 533,116 L533,129 L538.8,129 C542,129 545.1,128.5 545.8,127.8 C547.5,126.1 547.3,123 545.5,122.3 C543.6,121.6 543.1,122 542.7,124.6 C542.5,126.5 541.9,127 540,127 C538.2,127 536.2,120.9 536.9,118.1 C537.9,114.4 542.3,112.1 545,113.8 C547,115 547.1,114.9 546.5,111.8 C546,109 546.3,108 548.5,106 L551.2,103.5 L553.2,106 C554.7,107.8 555,109.3 554.6,111.9 C554.2,114.5 554.4,115 555.2,114.2 C558.5,110.9 564.3,114.7 564.3,120 C564.3,123.2 561.6,127 559.3,127 C558.6,127 558,125.9 558,124.4 C558,122.4 557.6,121.9 556.4,122.4 C555.5,122.7 554.6,123 554.4,123 C553.5,123 554.1,126.7 555.2,127.8 C555.9,128.5 558.3,129 560.6,129 L564.8,129 L569,116.2 C576.1,95.1 575.7,80.1 568,73.6 C563.1,69.6 553,68.1 543.1,70.1 Z M509.3,79.7 C510.2,79.9 511.6,79.9 512.3,79.7 C512.9,79.4 512.2,79.2 510.5,79.2 C508.9,79.2 508.3,79.4 509.3,79.7 Z M509,88 C509,88.5 509.9,89 511,89 C512.1,89 513,88.5 513,88 C513,87.4 512.1,87 511,87 C509.9,87 509,87.4 509,88 Z M509.3,97.7 C510.2,97.9 511.6,97.9 512.3,97.7 C512.9,97.4 512.2,97.2 510.5,97.2 C508.9,97.2 508.3,97.4 509.3,97.7 Z M508.4,115.1 C508.1,115.7 508.4,116.9 509.3,117.7 C511.1,119.5 513,118.6 513,115.9 C513,113.8 509.6,113.2 508.4,115.1 Z M496.4,123.1 C494.1,124.2 491.4,126 490.5,127.1 C488.7,128.9 488.8,129 491.6,129 C494.5,129 502,123.9 502,121.9 C502,120.6 501,120.8 496.4,123.1 Z M523.2,125.5 C525.6,127.7 528,129 529.6,129 C532.3,129 532.3,129 530.4,126.9 C528.1,124.3 523.7,122 521.3,122 C519.9,122 520.4,122.9 523.2,125.5 Z M473.9,141.6 C472.9,142.9 472.9,143.3 474.1,144.1 C477.6,146.3 483.4,143.8 480.8,141.2 C479.1,139.5 475.5,139.7 473.9,141.6 Z M508.3,140.7 C506.5,141.4 506.7,143.7 508.6,144.4 C511.2,145.4 513.7,145.1 514.9,143.7 C517,141.1 512.3,139 508.3,140.7 Z M542.1,140.9 C540.2,142.1 541.5,145 543.9,145 C546.8,145 549,143.9 549,142.5 C549,140.3 544.7,139.3 542.1,140.9 Z M454.2,151.1 C454.4,151.7 455,152.1 455.5,152.1 C456,152.1 456.6,151.7 456.8,151.1 C457,150.5 456.4,150 455.5,150 C454.6,150 454,150.5 454.2,151.1 Z M459.2,151.1 C459.4,151.7 460,152.1 460.5,152.1 C461,152.1 461.6,151.7 461.8,151.1 C462,150.5 461.4,150 460.5,150 C459.6,150 459,150.5 459.2,151.1 Z M465.2,151.1 C465.4,151.7 466,152.1 466.5,152.1 C467,152.1 467.6,151.7 467.8,151.1 C468,150.5 467.4,150 466.5,150 C465.6,150 465,150.5 465.2,151.1 Z M470.2,151.1 C470.4,151.7 471,152.1 471.5,152.1 C472,152.1 472.6,151.7 472.8,151.1 C473,150.5 472.4,150 471.5,150 C470.6,150 470,150.5 470.2,151.1 Z M475.2,151.1 C475.4,151.7 476,152.1 476.5,152.1 C477,152.1 477.6,151.7 477.8,151.1 C478,150.5 477.4,150 476.5,150 C475.6,150 475,150.5 475.2,151.1 Z M480.2,151.1 C480.4,151.7 481,152.1 481.5,152.1 C482,152.1 482.6,151.7 482.8,151.1 C483,150.5 482.4,150 481.5,150 C480.6,150 480,150.5 480.2,151.1 Z M486.2,151.1 C486.4,151.7 487,152.1 487.5,152.1 C488,152.1 488.6,151.7 488.8,151.1 C489,150.5 488.4,150 487.5,150 C486.6,150 486,150.5 486.2,151.1 Z M491.2,151.1 C491.4,151.7 492,152.1 492.5,152.1 C493,152.1 493.6,151.7 493.8,151.1 C494,150.5 493.4,150 492.5,150 C491.6,150 491,150.5 491.2,151.1 Z M496.2,151.1 C496.4,151.7 497,152.1 497.5,152.1 C498,152.1 498.6,151.7 498.8,151.1 C499,150.5 498.4,150 497.5,150 C496.6,150 496,150.5 496.2,151.1 Z M501.2,151.1 C501.4,151.7 502,152.1 502.5,152.1 C503,152.1 503.6,151.7 503.8,151.1 C504,150.5 503.4,150 502.5,150 C501.6,150 501,150.5 501.2,151.1 Z M507.2,151.1 C507.4,151.7 508,152.1 508.5,152.1 C509,152.1 509.6,151.7 509.8,151.1 C510,150.5 509.4,150 508.5,150 C507.6,150 507,150.5 507.2,151.1 Z M512.2,151.1 C512.4,151.7 513,152.1 513.5,152.1 C514,152.1 514.6,151.7 514.8,151.1 C515,150.5 514.4,150 513.5,150 C512.6,150 512,150.5 512.2,151.1 Z M517.2,151.1 C517.4,151.7 518,152.1 518.5,152.1 C519,152.1 519.6,151.7 519.8,151.1 C520,150.5 519.4,150 518.5,150 C517.6,150 517,150.5 517.2,151.1 Z M522.2,151.1 C522.4,151.7 523,152.1 523.5,152.1 C524,152.1 524.6,151.7 524.8,151.1 C525,150.5 524.4,150 523.5,150 C522.6,150 522,150.5 522.2,151.1 Z M528.2,151.1 C528.4,151.7 529,152.1 529.5,152.1 C530,152.1 530.6,151.7 530.8,151.1 C531,150.5 530.4,150 529.5,150 C528.6,150 528,150.5 528.2,151.1 Z M533.2,151.1 C533.4,151.7 534,152.1 534.5,152.1 C535,152.1 535.6,151.7 535.8,151.1 C536,150.5 535.4,150 534.5,150 C533.6,150 533,150.5 533.2,151.1 Z M538.2,151.1 C538.4,151.7 539,152.1 539.5,152.1 C540,152.1 540.6,151.7 540.8,151.1 C541,150.5 540.4,150 539.5,150 C538.6,150 538,150.5 538.2,151.1 Z M543.2,151.1 C543.4,151.7 544,152.1 544.5,152.1 C545,152.1 545.6,151.7 545.8,151.1 C546,150.5 545.4,150 544.5,150 C543.6,150 543,150.5 543.2,151.1 Z M549.2,151.1 C549.4,151.7 550,152.1 550.5,152.1 C551,152.1 551.6,151.7 551.8,151.1 C552,150.5 551.4,150 550.5,150 C549.6,150 549,150.5 549.2,151.1 Z M554.2,151.1 C554.4,151.7 555,152.1 555.5,152.1 C556,152.1 556.6,151.7 556.8,151.1 C557,150.5 556.4,150 555.5,150 C554.6,150 554,150.5 554.2,151.1 Z M559.2,151.1 C559.4,151.7 560,152.1 560.5,152.1 C561,152.1 561.6,151.7 561.8,151.1 C562,150.5 561.4,150 560.5,150 C559.6,150 559,150.5 559.2,151.1 Z M565,151.6 C565,153.3 567.2,153 567.8,151.2 C568,150.5 567.5,150 566.6,150 C565.7,150 565,150.7 565,151.6 Z M35,236 L35,242 L37.4,240.5 C39.2,239.3 41.8,239 47.6,239.2 L55.5,239.5 L55.8,258.4 C56,271.4 55.7,277.7 54.9,278.6 C53.9,279.8 55.1,280 62,280 C70,280 70.3,279.9 68.6,278.1 C67.2,276.5 67,274 67.2,257.9 L67.5,239.5 L75.9,239.2 C82.6,239 84.6,239.2 86.1,240.6 C87.9,242.3 88,242.1 88,236.1 C88,230.3 87.9,230 86.1,231 C83.5,232.3 38.3,232.4 37.5,231 C36,228.5 35,230.5 35,236 Z M587.5,231 C587.1,231.6 577.6,232 562.2,232 C543.1,232 537.9,232.3 538.8,233.2 C540.5,234.9 540.5,277.1 538.8,278.8 C537.9,279.7 543.3,280 563.1,280 C581.6,280 588.9,280.3 589.8,281.2 C590.7,282.1 591,281 591,276 C591,271 590.7,269.9 589.8,270.8 C589,271.6 583.2,272 570.3,272 L552,272 L552,258 L562.3,258 C569.2,258 573.4,258.5 575.3,259.4 L578,260.9 L578,254.7 C578,250 577.7,248.9 576.8,249.8 C576,250.6 571.6,251 563.8,251 L552,251 L552,239 L569.2,239 C583.7,239 586.6,239.3 588.2,240.7 C589.9,242.2 590,242.1 590,236.2 C590,230.5 589,228.5 587.5,231 Z M244.2,232.6 C232.6,235.7 225,244.6 225,255.1 C225,272.7 241.1,283.1 263.2,280 L270.4,279 L273.7,282.2 C275.5,283.9 277,286.2 277,287.2 C277,288.7 277.4,288.9 278.8,288.1 C281.7,286.4 289.6,278.8 287.7,279.4 C286.7,279.7 284.7,278.8 282.5,276.8 L278.9,273.7 L281.3,271.1 C286,266.2 287.2,262.3 286.8,254.5 C286.4,245.8 283.4,240.5 276.4,236 C268.5,231 255.2,229.6 244.2,232.6 Z M265.6,240.9 C273,244.3 277.1,252.3 275,259.9 C273.4,265.8 271.7,266.8 267.1,264.2 C263.3,262.1 257.8,261.4 254.6,262.6 C252.2,263.5 252.7,264.5 256.4,265.8 C259.9,267.1 263.7,270.6 262.7,271.6 C262.4,271.9 260.4,272.4 258.2,272.7 C250.5,273.7 241.6,269.1 238.1,262.3 C236.5,259.2 236.7,252.4 238.6,248.5 C240,245.5 245.3,241 249,239.7 C252.5,238.5 261.7,239.1 265.6,240.9 Z M193.6,239.5 C192,240.7 187.8,241 172.6,241 C157.8,241 153.9,241.3 154.8,242.2 C155.6,243 156,248.6 156,260.7 C156,276 155.8,278 154.3,278.9 C153,279.6 158.8,279.9 173.5,280 C188.6,280 194.9,280.3 195.8,281.2 C196.7,282.1 197,281.1 197,276.5 C197,271.9 196.7,270.9 195.8,271.8 C195,272.6 190.1,273 180.3,273 L166,273 L166,263 L174.8,263 C180.3,263 184,263.4 184.8,264.2 C185.7,265.1 186,264.1 186,259.5 C186,254.9 185.7,253.9 184.8,254.8 C184,255.6 180.3,256 174.8,256 L166,256 L166,247 L179.4,247 C190.3,247 193.2,247.3 194.4,248.6 C195.9,250 196,249.6 196,244.1 C196,240.7 195.9,238 195.8,238 C195.6,238 194.6,238.7 193.6,239.5 Z M444.6,239.5 C443,240.7 438.6,241 423.1,241.1 C412.3,241.1 404.1,241.4 404.8,241.7 C406.5,242.4 406.5,277.1 404.8,278.8 C403.9,279.7 408.3,280 424.6,280 C439.6,280 445.9,280.3 446.8,281.2 C447.7,282.1 448,281.1 448,276.5 C448,271.9 447.7,270.9 446.8,271.8 C446,272.6 441,273 430.8,273 L416,273 L416,263 L425.3,263 C431.2,263 435,263.4 435.8,264.2 C436.7,265.1 437,264.1 437,259.5 C437,254.9 436.7,253.9 435.8,254.8 C435,255.6 431.2,256 425.3,256 L416,256 L416,247 L429.9,247 C441.3,247 444.2,247.3 445.4,248.6 C446.9,250 447,249.6 447,244.1 C447,240.7 446.9,238 446.8,238 C446.6,238 445.6,238.7 444.6,239.5 Z M668,243.9 C668,249.6 668.1,250 669.6,248.6 C670.8,247.3 673.5,247 682.1,247 C689.5,247 692.9,247.3 692.5,248 C692.1,248.6 686.5,255.4 679.9,263.1 C673.4,270.9 668,277.8 668,278.6 C668,279.8 671.6,280 688.3,280 C702.8,280 708.9,280.3 709.8,281.2 C710.7,282.1 711,281.1 711,276.6 C711,271.7 710.8,270.9 709.6,271.9 C708.7,272.7 704.3,273 696.4,272.8 L684.7,272.5 L697.3,257.5 C704.3,249.3 710,242.2 710,241.8 C710,241.4 701.4,241 690.8,241 C674.4,241 671.4,240.8 669.8,239.3 C668.1,237.8 668,237.9 668,243.9 Z M871.2,239.5 C870.2,240.7 866.3,241 850.3,241 C835,241 830.9,241.3 831.8,242.2 C832.6,243 833,248.4 833,259.9 C833,273.8 832.7,276.6 831.3,278.2 C829.7,279.9 830.4,280 851.1,280 C866.5,280 872.9,280.3 873.8,281.2 C874.7,282.1 875,281.1 875,276.7 C875,271.4 874,269.6 872.5,272 C872.1,272.6 866,273 857.4,273 L843,273 L843,263 L851.8,263 C857.3,263 861,263.4 861.8,264.2 C862.7,265.1 863,264.1 862.9,259.5 C862.9,256.2 862.6,254.1 862.3,254.7 C862,255.6 859,256 852.4,256 L843,256 L843,247 L856.8,247 C866.2,247 871,247.4 871.8,248.2 C872.7,249.1 873,248.1 873,243.7 C873,240.6 872.9,238 872.8,238 C872.6,238.1 871.9,238.7 871.2,239.5 Z M879,244 C879,249.7 879.1,250 880.6,248.5 C881.8,247.3 883.8,247 888.9,247.2 L895.5,247.5 L895.8,261.9 C896,274.2 895.8,276.5 894.4,278.1 C892.7,279.9 892.9,280 900.4,280 L908,280 L906.5,277.6 C905.2,275.7 905,272.6 905.2,261.4 L905.5,247.5 L912.1,247.2 C917.2,247 919.2,247.3 920.4,248.5 C921.9,250 922,249.7 922,244 C922,238.4 921.9,238 920.4,239.4 C918.1,241.8 882.9,241.8 880.6,239.4 C879.1,238 879,238.4 879,244 Z M392,240 C391.2,240.5 381.7,241 371,241.1 C360.3,241.1 352.1,241.4 352.8,241.7 C354.5,242.4 354.5,277.1 352.8,278.8 C351.9,279.7 356.3,280 372.6,280 C387.6,280 393.9,280.3 394.8,281.2 C395.7,282.1 396,281.1 396,276.5 C396,271.9 395.7,270.9 394.8,271.8 C394,272.6 389,273 378.8,273 L364,273 L364,263 L373.4,263 C380,263 383,263.4 383.3,264.2 C383.6,264.9 383.9,263.2 383.9,260.5 L384,255.5 L374,255.8 L364,256.1 L364,247 L377.8,247 C387.2,247 392,247.4 392.8,248.2 C393.7,249.1 394,248.2 394,244.2 C394,241.3 393.9,239 393.8,239 C393.6,239 392.8,239.5 392,240 Z M95.8,259.1 C96,271.8 95.7,277.6 94.9,278.6 C93.9,279.8 95,280 101.5,280 C109.1,280 109.3,279.9 107.6,278.1 C106.3,276.6 106,274.7 106.2,269.4 L106.5,262.5 L130.5,262.5 L130.8,269.8 C131,274.4 130.6,277.7 129.9,278.6 C128.9,279.8 130,280 136.6,280 C142.5,279.9 144,279.7 142.8,278.9 C141.2,278 141,276 141,260.7 C141,248.6 141.4,243 142.2,242.2 C143.1,241.3 141.7,241 135.9,241 C131.6,241 129,241.4 129.8,241.9 C130.7,242.4 131,244.6 130.8,249.1 L130.5,255.5 L106.5,255.5 L106.2,249.7 C106,246.2 106.4,243.3 107.1,242.4 C108.1,241.2 107.3,241 101.9,241 L95.5,241 L95.8,259.1 Z M295.7,241.8 C296.4,242.2 296.9,247.5 297.2,257 C297.4,268.9 297.8,272 299.3,274.2 C302.2,278.4 308.1,280.2 319.6,280.3 C328.4,280.3 330.4,280 334.6,277.9 C341,274.7 341.9,272.1 341.9,255.3 C342,245.8 342.3,242 343.3,241.7 C343.9,241.4 341.4,241.1 337.7,241.1 C331.1,241 331,241 332.1,243.2 C332.8,244.6 333.1,249.2 332.8,256.7 C332.4,266.5 332.1,268.4 330.3,270.2 C326.1,274.4 313.3,274.2 309.4,269.9 C308,268.3 307.5,265.7 307.2,256.6 C306.9,249.2 307.2,244.6 307.9,243.2 C309,241 308.9,241 301.8,241 C297.8,241 295,241.4 295.7,241.8 Z M456.8,241.7 C458.5,242.4 458.5,277.1 456.8,278.8 C455.9,279.7 457.2,280 463,280 C470,280 470.2,279.9 468.7,278.2 C467.3,276.7 467,274.2 467,265.7 C467,259.4 467.4,255 468,255 C468.5,255 474.6,260 481.5,266.1 C491.6,275.1 493.8,277.5 492.9,278.6 C491.9,279.8 493,280 499.6,280 C505.7,280 507.1,279.7 506.2,278.8 C504.5,277.1 504.5,242.4 506.3,241.7 C506.9,241.4 504.4,241.1 500.6,241.1 C495.1,241 493.9,241.3 494.8,242.2 C496.2,243.6 496.5,265.4 495.1,264.8 C492.8,264 471,243.7 471,242.4 C471,241.3 469.4,241 463.3,241.1 C459,241.1 456.1,241.4 456.8,241.7 Z M600.8,242.2 C601.6,243 602,248.6 602,260.7 C602,276 601.8,278 600.3,278.9 C599,279.6 604.5,279.9 618.7,280 C633.8,280 639,280.3 639.3,281.2 C639.6,281.9 639.9,279.8 639.9,276.5 C640,271.9 639.7,270.9 638.8,271.8 C638,272.6 633.4,273 624.8,273 L612,273 L612,257.6 C612,246.2 612.3,242 613.3,241.7 C613.9,241.4 611.1,241.1 607.1,241.1 C601.3,241 599.9,241.3 600.8,242.2 Z M647.8,242.2 C649.3,243.7 649.5,275.2 648,278.1 C647,279.9 647.3,280 653.6,280 C659.2,280 660.1,279.8 659.1,278.6 C658.3,277.6 658,271.8 658.2,259.1 L658.5,241 L652.6,241 C647.9,241 646.9,241.3 647.8,242.2 Z M734.7,243 C735.2,245 719.3,274.7 715.8,278.2 C714.1,279.9 714.3,280 722,280 C729.8,280 730,279.9 728.8,278 C727.7,276.3 727.8,275.5 729,273.2 C730.5,270.6 730.8,270.5 741.2,270.2 L751.9,269.9 L753.6,273.2 C754.9,275.7 755,276.8 754.1,278.2 C753.1,279.9 753.5,280 762,280 L771.1,280 L768.7,277.7 C767.3,276.5 762.6,269.4 758.2,262 C747.4,243.6 747.6,244.2 749.1,242.4 C750.1,241.2 749.1,241 742.2,241 C734.7,241 734.2,241.1 734.7,243 Z M744.8,257.9 C746.5,261.2 748,264.1 748,264.4 C748,265.1 735.5,265.2 734.8,264.5 C734.2,263.9 740.2,252 741,252 C741.3,252 743,254.7 744.8,257.9 Z M775.8,241.7 C777.5,242.4 777.5,277.1 775.8,278.8 C774.2,280.4 806.2,280.5 812.6,278.9 C818.2,277.5 822,273.2 822,268.3 C822,265.5 821.2,264 818.5,261.5 L815.1,258.2 L817.5,256.6 C819.5,255.3 820,254.1 820,250.7 C820,246 819.5,245.1 816,242.7 C813.9,241.2 810.8,241 794,241.1 C783.3,241.1 775.1,241.4 775.8,241.7 Z M807.4,248 C810.4,249.1 811,253.4 808.4,254.4 C807.5,254.7 802.4,255 796.9,255 L787,255 L787,247 L795.9,247 C800.8,247 806,247.4 807.4,248 Z M808.4,263.2 C812.9,265.2 812.9,270.3 808.3,272.1 C807,272.6 801.6,273 796.4,273 L787,273 L787,262 L796.5,262 C801.7,262 807,262.5 808.4,263.2 Z M930.8,241.7 C932.5,242.4 932.5,277.1 930.8,278.8 C929.9,279.7 931.4,280 937.5,280 C944.1,280 945.1,279.8 943.6,278.7 C942.2,277.7 942,276.2 942.2,270 L942.5,262.5 L966.5,262.5 L966.8,269.8 C967,274.4 966.6,277.7 965.9,278.6 C964.9,279.8 966,280 972.6,280 C978.5,279.9 980,279.7 978.8,278.9 C977.2,278 977,276 977,260.7 C977,248.6 977.4,243 978.2,242.2 C979.1,241.3 977.7,241 971.9,241 C967.6,241 965,241.4 965.8,241.9 C966.7,242.4 967,244.6 966.8,249.1 L966.5,255.5 L942.5,255.5 L942.2,249.7 C942,246.2 942.4,243.3 943.1,242.4 C944.1,241.2 943.1,241 936.9,241.1 C932.8,241.1 930.1,241.4 930.8,241.7 Z M762,329.1 C762,334 762.3,335.1 763.2,334.2 C764,333.4 767.7,333 773.2,333 L782,333 L782,352.4 C782,367 781.7,372 780.8,372.3 C780.1,372.6 783.3,372.8 788,372.8 C792.7,372.8 795.9,372.6 795.3,372.3 C794.3,372 794,367 794,352.4 L794,333 L802.8,333 C808.3,333 812,333.4 812.8,334.2 C813.7,335.1 814,334 814,329.1 C814,323.4 813.9,323 812.4,324.4 C810.1,326.8 765.9,326.8 763.6,324.4 C762.1,323 762,323.4 762,329.1 Z M0.3,327 C1.8,328 2,330.2 2,349.3 C2,365 1.7,370.9 0.8,371.9 C-0.3,372.9 3.8,373.1 21.6,372.8 L43.7,372.5 L48.5,369.5 C55.2,365.4 58.4,359.2 58.4,350.1 C58.4,342 56.9,337.3 52.8,333.1 C46.5,326.7 45.7,326.5 21,326.2 C4.8,326.1 -1,326.3 0.3,327 Z M39.8,335.5 C46.4,339.5 48.8,349.5 45,357.8 C42.1,364.2 37.5,366 23.8,366 L13,366 L13,332.8 L24.8,333.2 C34.2,333.5 37.1,333.9 39.8,335.5 Z M435.8,327.2 C437.3,328.7 437.5,360.2 436,363 C433.4,367.8 419.3,367.4 414.3,362.4 L411.9,360 L411.1,362.3 C410.6,363.5 409.5,366.2 408.6,368.3 C407.1,372 407.1,372.1 409,371.5 C410,371.2 413.5,371.6 416.8,372.5 C425.1,374.6 435.5,374.4 440.7,372.1 C447.4,369 448,366.9 448,346.1 C448,330 448.2,328 449.8,327.1 C451,326.3 449.3,326.1 443.1,326 C436.5,326 434.9,326.3 435.8,327.2 Z M683,333 C683,333.6 675.1,334 661.3,334 C640.4,334 639.7,334.1 641.3,335.8 C642.7,337.4 643,340.2 643,354.1 C643,365.6 642.6,371 641.8,371.8 C640.9,372.7 645.2,373 661.1,373 C678,373 681.9,373.3 683.8,374.6 C686,376.1 686,376.1 686,370.6 C686,365.4 685,363.6 683.5,366 C683.1,366.6 676.8,367 667.9,367 L653,367 L653,357 L662.3,357 C668.2,357 672,357.4 672.8,358.2 C673.7,359.1 674,358.1 674,353.5 C674,348.9 673.7,347.9 672.8,348.8 C672,349.6 668.2,350 662.3,350 L653,350 L653,341 L667.3,341 C677.1,341 682,341.4 682.8,342.2 C683.7,343.1 684,342.1 684,337.7 C684,334.6 683.8,332 683.5,332 C683.2,332 683,332.4 683,333 Z M735.5,333 C735.1,333.6 726.8,334 713.7,334 C697.3,334 692.9,334.3 693.8,335.2 C695.5,336.9 695.5,371.9 693.8,372.2 C693.1,372.3 702.3,372.7 714.3,373 C732.1,373.4 736.2,373.8 737,375 C737.7,376 738,374.7 738,370.5 C738,365.9 737.7,364.9 736.8,365.8 C736,366.6 731,367 720.8,367 L706,367 L706,357 L715.3,357 C721.2,357 725,357.4 725.8,358.2 C726.7,359.1 727,358.1 727,353.5 C727,348.9 726.7,347.9 725.8,348.8 C725,349.6 721.2,350 715.3,350 L706,350 L706,341 L720.3,341 C730.1,341 735,341.4 735.8,342.2 C736.7,343.1 737,342.1 737,337.7 C737,332 736.7,331.1 735.5,333 Z M978,337.5 C978,342.1 978.3,343.1 979.2,342.2 C979.9,341.5 983.4,341 987.7,341 L995.1,341 L994.8,357 L994.5,373 L1006.5,373 L1006.2,357 L1005.9,341 L1013.3,341 C1017.6,341 1021.1,341.5 1021.8,342.2 C1022.7,343.1 1023,342.1 1023,337.5 C1023,332.9 1022.7,331.9 1021.8,332.8 C1020.1,334.5 980.9,334.5 979.2,332.8 C978.3,331.9 978,332.9 978,337.5 Z M67.9,335.4 C68.7,336.4 69,342.2 68.8,354.9 L68.5,373 L74.9,373 C80,373 81.1,372.7 80.2,371.8 C79.4,371 79,365.6 79,354.1 C79,340.2 79.3,337.4 80.7,335.8 C82.2,334.1 82,334 74.5,334 C68,334 66.9,334.2 67.9,335.4 Z M106,334.8 C106,335.2 106.5,336.1 107.1,336.7 C107.9,337.5 105.7,342.3 99.4,354.1 C94.6,363.1 90,371.1 89.2,371.7 C87.9,372.8 88.9,373 95,373 C100.5,373 102.1,372.7 101.3,371.9 C100.4,371 100.6,369.9 101.8,367.4 L103.4,364 L123.7,364 L125.6,367.5 C127.3,370.6 127.3,371.2 126,372 C125,372.7 127.2,373 132.9,373 C139.9,373 141.1,372.8 139.7,371.7 C137.9,370.3 120,339.4 120,337.6 C120,336.9 120.5,335.9 121.2,335.2 C122.1,334.3 120.6,334 114.2,334 C109.7,334 106,334.4 106,334.8 Z M117.5,353.2 C118.9,355.8 120,358.2 120,358.5 C120,358.8 117.1,359 113.5,359 C109,359 107,358.6 107,357.7 C107,357.1 108.4,354.1 110.1,351.1 C113.5,345.2 113.3,345.1 117.5,353.2 Z M148.9,335.4 C149.7,336.4 150,342.2 149.8,354.9 L149.5,373 L155.5,373 C160.1,373 161.1,372.7 160.2,371.8 C158.9,370.5 158.4,349 159.8,349 C160.2,349 163.8,354.4 167.9,361 C171.9,367.6 175.6,372.7 176,372.5 C176.5,372.2 180.3,366.5 184.7,359.8 L192.5,347.5 L192.8,358.9 C193,366.4 192.7,370.7 191.9,371.6 C190.9,372.8 191.9,373 198.1,372.9 C202.2,372.9 204.9,372.6 204.3,372.3 C202.5,371.6 202.5,336.9 204.2,335.2 C205.1,334.3 203.5,334 196.8,334 C188.4,334 188.3,334 188.7,336.3 C189,337.9 187.4,341.5 183.3,348 C180.1,353.1 177.1,357.3 176.6,357.4 C176.2,357.4 173.1,353.1 169.7,347.6 C164.6,339.2 163.8,337.5 164.8,335.9 C166,334.1 165.6,334 156.9,334 C149.2,334 147.9,334.2 148.9,335.4 Z M224.1,336.6 C217.4,340 213.8,345.2 213.2,352.5 C212.1,365.5 222,374 238.3,374 C247.5,374 252.2,372.5 257.5,367.8 C267.8,358.7 265.4,342.9 252.9,336.6 C248.3,334.4 246.3,334 238.5,334 C230.7,334 228.7,334.4 224.1,336.6 Z M246.7,343 C251.1,345.6 253.3,349.3 253.3,354 C253.3,368.5 231.2,372.2 224.7,358.7 C223.4,356.2 223.1,354 223.5,352 C224.3,348.4 228.4,343.2 231.4,342 C235.3,340.4 243.3,340.9 246.7,343 Z M272.3,335.8 C273.7,337.4 274,340.2 274,354.1 C274,365.6 273.6,371 272.8,371.8 C271.9,372.7 272.9,373 277.6,373 L283.5,373 L283.2,360.3 L282.9,347.7 L286.7,351 C298.6,361.2 308.9,371.3 308.4,372.1 C308.1,372.6 311,373 315.1,373 C320.8,373 322.1,372.7 321.2,371.8 C320.4,371 320,365.4 320,353.3 C320,338 320.2,336 321.8,335.1 C323.1,334.3 321.6,334.1 316.1,334 C309.9,334 308.9,334.2 309.9,335.4 C310.7,336.3 311,340.6 310.8,348.1 L310.5,359.4 L299,349.1 C292.7,343.4 287.1,338.4 286.6,337.9 C286.1,337.4 286.2,336.5 287,335.5 C288.1,334.2 287.3,334 279.5,334 C271,334 270.8,334.1 272.3,335.8 Z M332.8,335.1 C333.7,336 334,341.3 334,354.1 C334,367.4 333.7,372 332.8,372.3 C332.1,372.6 339.6,372.9 349.6,372.9 C366.6,373 367.9,372.9 372,370.7 C377.8,367.6 381,361.8 381,354.1 C381,345.8 377.9,340.2 371.5,337 C366.9,334.7 365.2,334.5 349,334.2 C334.7,333.9 331.7,334 332.8,335.1 Z M364,342.8 C373.4,347.5 372.8,362.1 362.9,365.6 C361.1,366.3 356,366.9 351.8,366.9 L344,367 L344,341 L352.3,341 C358.1,341 361.5,341.5 364,342.8 Z M459.3,335.8 C460.7,337.3 461,340 461,350.9 C461,371.7 462.8,373.5 483.5,373.5 C495.3,373.5 496.8,373.3 500.2,371.2 C505.2,368.1 506,365 506,349.4 C506,337.8 506.2,336 507.8,335.1 C509,334.3 507.5,334.1 501.6,334 C494,334 493.8,334.1 495.3,335.8 C496.6,337.3 497,339.7 497,347.2 C497,360.2 496.4,362.8 492.6,365.2 C488.1,368 477,367.4 473.7,364.2 C471.7,362.2 471.5,360.8 471.2,349.9 C470.9,339.5 471.1,337.6 472.6,335.9 C474.3,334 474.1,334 466,334 C458,334 457.8,334.1 459.3,335.8 Z M516.8,335.3 C517.8,336.4 518,341.6 517.8,354.9 L517.5,373 L535.8,373 C555.3,373 558.2,372.4 561.4,367.8 C563.9,364.3 563.4,358.4 560.5,355.5 C559.2,354.1 557.6,353 556.9,353 C556.3,353 557.2,351.7 558.9,350.1 C563.6,345.7 562.7,339.5 556.8,336.3 C554,334.8 550.3,334.5 534.5,334.2 C517.8,333.8 515.7,334 516.8,335.3 Z M549.1,342 C550.2,342.6 551,344.1 551,345.5 C551,348.7 549,349.2 537.5,348.8 C528.9,348.5 528.5,348.4 528.2,346.2 C527.5,341.4 528.3,341 538,341 C543,341 548,341.5 549.1,342 Z M551,358 C553.4,360.4 553.5,361.9 551.6,364.6 C550.3,366.3 548.9,366.5 539.3,366.5 L528.5,366.5 L528.2,362.6 C527.6,356.1 527.8,356 539,356 C547.7,356 549.3,356.3 551,358 Z M570.9,335.4 C571.7,336.4 572,342.2 571.8,354.9 L571.5,373 L578.5,372.9 C582.4,372.9 584.9,372.6 584.3,372.3 C582.5,371.6 582.5,336.9 584.2,335.2 C585.1,334.3 583.7,334 577.6,334 C571,334 569.9,334.2 570.9,335.4 Z M595.9,335.4 C596.7,336.4 597,342.2 596.8,354.8 L596.5,372.9 L614.8,373.2 C629.7,373.4 633.3,373.8 634,375 C634.7,376 635,374.7 635,370.7 C635,365.3 634.9,365 633.1,366 C632,366.5 625.7,367 619.1,367 L607,367 L607,351.5 C607,337.9 607.2,336 608.8,335.1 C610,334.3 608.5,334.1 602.6,334 C596,334 594.9,334.2 595.9,335.4 Z M823.3,335.8 C824.7,337.4 825,340.2 825,354.1 C825,365.6 824.6,371 823.8,371.8 C822.9,372.7 824.3,373 830.1,372.9 C834.1,372.9 836.9,372.6 836.3,372.3 C835.4,372 835,369.4 835,364.4 L835,357 L840.3,357 L845.5,357.1 L850.8,364 C853.7,367.9 855.8,371.4 855.5,372 C855.1,372.6 857.9,373 863.2,373 C868.9,372.9 871,372.6 869.9,372 C869,371.5 865.8,367.9 862.7,364.1 L857.1,357.2 L861.6,355.5 C867,353.4 869,350.8 869,345.4 C869,335.9 863.8,334 838.3,334 C822.3,334 821.7,334.1 823.3,335.8 Z M856.8,342.6 C858,343.4 859,344.9 859,345.9 C859,349.5 856.3,350.4 845.7,350.4 L835.5,350.5 L835.2,345.7 L834.9,341 L844.7,341 C852,341 855.1,341.4 856.8,342.6 Z M875.3,335.1 C876.8,336 877,337.8 877,349.8 C877,366.9 878,369.5 885.5,372.3 C889.6,373.8 892.6,374.1 901.5,373.8 C920.1,373.2 922,371.1 922,350.9 C922,340 922.3,337.3 923.7,335.8 C925.2,334.1 925,334 917.5,334 C909.9,334 909.7,334 911.4,335.9 C912.9,337.6 913.1,339.5 912.8,349.9 C912.5,360.8 912.3,362.2 910.3,364.2 C907.3,367.2 896.8,368 892.1,365.6 C887.8,363.3 887,360.7 887,348.3 C887,339.8 887.3,337.3 888.7,335.8 C890.2,334.1 890,334 881.9,334 C875.7,334.1 874,334.3 875.3,335.1 Z M939.5,335.3 C931.9,338.3 929.2,342.1 930.4,348.3 C931.6,354.7 935.6,356.7 949.9,357.9 C956,358.5 961.9,359.4 963,360 C965.8,361.5 965.5,363.6 962.3,365.7 C957.3,369 940.6,367.4 935.7,363.2 C933.7,361.4 933.9,361.3 931.1,366.7 C929.2,370.5 929.2,370.9 930.8,370.8 C931.7,370.8 935.2,371.5 938.5,372.4 C946.1,374.5 960.3,374.5 966.1,372.5 C974.4,369.5 977.4,364.3 974.6,357.7 C972.5,352.6 968.6,351 954.4,349.5 C941.3,348.2 938.4,347.1 940,344 C942.8,338.8 962.5,339.5 967.5,345 C969.3,347 969.4,347 971.8,342.9 C973.1,340.7 974,338.7 973.8,338.6 C973.7,338.5 970.5,337.4 966.7,336.2 C959.1,333.7 944.7,333.3 939.5,335.3 Z"/>
  </g>
</svg>
