<svg xmlns="http://www.w3.org/2000/svg" width="207" height="38" viewBox="0 0 207 38">
  <g>
    <path d="M29.1,13.1 L51.4,0 L6.9,0 L29.1,13.1 Z M29.1,21.8 L6.9,34.9 L51.4,34.9 L29.1,21.8 Z M22,17.4 L0,3.9 L0,30.9 L22,17.4 Z M36.7,17.4 L58.7,30.9 L58.7,3.9 L36.7,17.4 Z"/>
    <polygon points="64.9 0 65.9 0 65.9 34.8 64.9 34.8"/>
    <path d="M71.8 8.9L72.8 7.6C73.4 8.3 74.5 8.9 75.8 8.9 77.2 8.9 77.7 8.2 77.7 7.6 77.7 5.6 72.1 6.8 72.1 3.3 72.1 1.7 73.5.5 75.6.5 77.1.5 78.3 1 79.2 1.9L78.2 3.2C77.5 2.4 76.4 2 75.4 2 74.4 2 73.8 2.5 73.8 3.2 73.8 5 79.4 3.9 79.4 7.5 79.4 9.1 78.3 10.5 75.7 10.5 73.9 10.5 72.6 9.8 71.8 8.9zM80.5 6.8C80.5 4.7 82 3.1 84.1 3.1 85.5 3.1 86.3 3.7 86.8 4.3L85.8 5.2C85.4 4.7 84.9 4.4 84.2 4.4 82.9 4.4 82.1 5.4 82.1 6.7 82.1 8 83 9 84.2 9 84.9 9 85.4 8.7 85.8 8.2L86.8 9.1C86.3 9.7 85.5 10.3 84.1 10.3 82 10.5 80.5 8.9 80.5 6.8zM87.7 6.8C87.7 4.8 89.1 3.1 91.3 3.1 93.5 3.1 94.9 4.7 94.9 6.8 94.9 8.8 93.5 10.5 91.3 10.5 89 10.5 87.7 8.8 87.7 6.8zM93.3 6.8C93.3 5.6 92.6 4.5 91.3 4.5 90 4.5 89.3 5.6 89.3 6.8 89.3 8 90 9.1 91.3 9.1 92.6 9.1 93.3 8 93.3 6.8zM96.7 8.7L96.7 4.7 95.5 4.7 95.5 3.3 96.7 3.3 96.7 1.4 98.2 1.4 98.2 3.3 99.6 3.3 99.6 4.6 98.2 4.6 98.2 8.3C98.2 8.8 98.4 9.1 98.9 9.1 99.2 9.1 99.4 9 99.6 8.8L100 10C99.7 10.2 99.3 10.4 98.6 10.4 97.3 10.5 96.7 9.8 96.7 8.7zM101.3 8.7L101.3 4.7 100.1 4.7 100.1 3.3 101.3 3.3 101.3 1.4 102.8 1.4 102.8 3.3 104.2 3.3 104.2 4.6 102.8 4.6 102.8 8.3C102.8 8.8 103 9.1 103.5 9.1 103.8 9.1 104 9 104.2 8.8L104.6 10C104.3 10.2 103.9 10.4 103.2 10.4 101.9 10.5 101.3 9.8 101.3 8.7zM105.4 1.5C105.4 1 105.8.6 106.3.6 106.8.6 107.2 1 107.2 1.5 107.2 2 106.8 2.4 106.3 2.4 105.8 2.4 105.4 2.1 105.4 1.5zM105.6 10.3L105.6 3.3 107.1 3.3 107.1 10.3 105.6 10.3zM108.5 9.4L109.2 8.3C109.7 8.8 110.7 9.3 111.6 9.3 112.5 9.3 113 8.9 113 8.4 113 7 108.8 8 108.8 5.3 108.8 4.2 109.8 3.2 111.5 3.2 112.7 3.2 113.6 3.6 114.2 4.2L113.6 5.3C113.2 4.8 112.4 4.5 111.5 4.5 110.7 4.5 110.2 4.9 110.2 5.4 110.2 6.6 114.4 5.7 114.4 8.5 114.4 9.7 113.4 10.7 111.5 10.7 110.3 10.5 109.2 10.1 108.5 9.4zM120.6 10.3L120.6 5.9C120.6 4.8 120.1 4.5 119.2 4.5 118.4 4.5 117.8 5 117.4 5.4L117.4 10.3 115.9 10.3 115.9.7 117.4.7 117.4 4.3C117.9 3.8 118.8 3.2 119.9 3.2 121.4 3.2 122.2 4 122.2 5.4L122.2 10.3 120.6 10.3zM127.4 5.5C127.4 2.5 129.7.5 132.5.5 134.4.5 135.6 1.4 136.4 2.5L135 3.3C134.5 2.6 133.6 2 132.5 2 130.6 2 129.2 3.4 129.2 5.5 129.2 7.5 130.6 9 132.5 9 134.1 9 135 7.9 135.3 6.6L131.9 6.6 131.9 5.1 137.2 5.1C137.2 8.4 135.4 10.5 132.4 10.5 129.7 10.5 127.4 8.5 127.4 5.5zM137.7 6.8C137.7 4.8 139.1 3.1 141.3 3.1 143.5 3.1 144.9 4.7 144.9 6.8 144.9 8.8 143.5 10.5 141.3 10.5 139.1 10.5 137.7 8.8 137.7 6.8zM143.3 6.8C143.3 5.6 142.6 4.5 141.3 4.5 140 4.5 139.3 5.6 139.3 6.8 139.3 8 140 9.1 141.3 9.1 142.6 9.1 143.3 8 143.3 6.8zM148.3 10.3L145.5 3.3 147.1 3.3 149.1 8.5 151.1 3.3 152.7 3.3 149.9 10.3 148.3 10.3zM153.3 6.8C153.3 4.8 154.8 3.1 156.8 3.1 158.9 3.1 160.2 4.7 160.2 6.9L160.2 7.3 154.8 7.3C154.9 8.3 155.7 9.2 157 9.2 157.7 9.2 158.5 8.9 159 8.4L159.7 9.4C159 10.1 158 10.4 156.9 10.4 154.8 10.5 153.3 9 153.3 6.8zM156.8 4.4C155.5 4.4 154.9 5.4 154.9 6.2L158.8 6.2C158.7 5.4 158.2 4.4 156.8 4.4zM161.7 10.3L161.7 3.3 163.2 3.3 163.2 4.3C163.7 3.6 164.6 3.1 165.5 3.1L165.5 4.6 165 4.6C164.4 4.6 163.5 5 163.2 5.5L163.2 10.2 161.7 10.2 161.7 10.3zM171.4 10.3L171.4 5.9C171.4 4.8 170.8 4.5 170 4.5 169.2 4.5 168.6 5 168.2 5.4L168.2 10.3 166.7 10.3 166.7 3.3 168.2 3.3 168.2 4.2C168.7 3.7 169.6 3.1 170.7 3.1 172.2 3.1 173 3.9 173 5.3L173 10.2 171.4 10.2 171.4 10.3zM183.5 10.3L183.5 5.7C183.5 4.9 183.2 4.4 182.3 4.4 181.6 4.4 181 4.9 180.7 5.3L180.7 10.2 179.2 10.2 179.2 5.7C179.2 4.9 178.9 4.4 178.1 4.4 177.4 4.4 176.8 4.9 176.5 5.3L176.5 10.2 175 10.2 175 3.2 176.5 3.2 176.5 4.1C176.8 3.7 177.7 3 178.8 3 179.8 3 180.5 3.5 180.7 4.3 181.1 3.7 182 3 183.1 3 184.4 3 185.1 3.7 185.1 5.1L185.1 10.1 183.5 10.1 183.5 10.3zM186.5 6.8C186.5 4.8 188 3.1 190 3.1 192.1 3.1 193.4 4.7 193.4 6.9L193.4 7.3 188 7.3C188.1 8.3 188.9 9.2 190.2 9.2 190.9 9.2 191.7 8.9 192.2 8.4L192.9 9.4C192.2 10.1 191.2 10.4 190.1 10.4 188.1 10.5 186.5 9 186.5 6.8zM190.1 4.4C188.8 4.4 188.2 5.4 188.2 6.2L192.1 6.2C192 5.4 191.4 4.4 190.1 4.4zM199.7 10.3L199.7 5.9C199.7 4.8 199.1 4.5 198.3 4.5 197.5 4.5 196.9 5 196.5 5.4L196.5 10.3 195 10.3 195 3.3 196.5 3.3 196.5 4.2C197 3.7 197.9 3.1 199 3.1 200.5 3.1 201.3 3.9 201.3 5.3L201.3 10.2 199.7 10.2 199.7 10.3zM203.5 8.7L203.5 4.7 202.3 4.7 202.3 3.3 203.5 3.3 203.5 1.4 205 1.4 205 3.3 206.4 3.3 206.4 4.6 205 4.6 205 8.3C205 8.8 205.2 9.1 205.7 9.1 206 9.1 206.2 9 206.4 8.8L206.8 10C206.5 10.2 206.1 10.4 205.4 10.4 204.1 10.5 203.5 9.8 203.5 8.7zM77.7 23.2L75.6 19.6 73.9 19.6 73.9 23.2 72.2 23.2 72.2 13.6 76.4 13.6C78.3 13.6 79.5 14.8 79.5 16.6 79.5 18.3 78.4 19.2 77.2 19.4L79.6 23.2 77.7 23.2zM77.9 16.6C77.9 15.7 77.2 15.1 76.3 15.1L74 15.1 74 18.1 76.3 18.1C77.2 18.1 77.9 17.5 77.9 16.6zM81.1 14.5C81.1 14 81.5 13.6 82 13.6 82.5 13.6 82.9 14 82.9 14.5 82.9 15 82.5 15.4 82 15.4 81.5 15.4 81.1 15 81.1 14.5zM81.2 23.2L81.2 16.3 82.7 16.3 82.7 23.2 81.2 23.2zM89.6 23.2L89.6 22.3C89.1 23 88.3 23.4 87.4 23.4 85.6 23.4 84.3 22.1 84.3 19.8 84.3 17.6 85.6 16.2 87.4 16.2 88.3 16.2 89.1 16.6 89.6 17.3L89.6 16.3 91.1 16.3 91.1 23.2 89.6 23.2zM89.6 21.1L89.6 18.4C89.3 17.9 88.5 17.5 87.8 17.5 86.6 17.5 85.8 18.5 85.8 19.8 85.8 21.1 86.6 22.1 87.8 22.1 88.5 22 89.2 21.6 89.6 21.1zM92.9 24.9L93.6 23.8C94.2 24.4 94.9 24.7 95.8 24.7 96.8 24.7 97.9 24.2 97.9 22.8L97.9 22C97.4 22.7 96.6 23.2 95.7 23.2 93.9 23.2 92.6 21.9 92.6 19.6 92.6 17.3 93.9 16 95.7 16 96.6 16 97.4 16.4 97.9 17.1L97.9 16.1 99.4 16.1 99.4 22.7C99.4 25.2 97.5 25.9 95.8 25.9 94.7 26 93.8 25.7 92.9 24.9zM97.9 20.9L97.9 18.3C97.6 17.8 96.8 17.4 96.1 17.4 94.9 17.4 94.1 18.3 94.1 19.6 94.1 20.9 94.9 21.8 96.1 21.8 96.8 21.8 97.6 21.4 97.9 20.9zM106.1 23.2L106.1 18.8C106.1 17.7 105.6 17.4 104.7 17.4 103.9 17.4 103.3 17.9 102.9 18.3L102.9 23.1 101.4 23.1 101.4 13.5 102.9 13.5 102.9 17.1C103.4 16.6 104.2 16 105.3 16 106.8 16 107.5 16.8 107.5 18.2L107.5 23.1 106.1 23.1 106.1 23.2zM114.4 23.2L114.4 22.3C113.9 23 113.1 23.4 112.2 23.4 110.4 23.4 109.1 22.1 109.1 19.8 109.1 17.6 110.4 16.2 112.2 16.2 113.1 16.2 113.9 16.6 114.4 17.3L114.4 16.3 115.9 16.3 115.9 23.2 114.4 23.2zM114.4 21.1L114.4 18.4C114.1 17.9 113.3 17.5 112.6 17.5 111.4 17.5 110.6 18.5 110.6 19.8 110.6 21.1 111.4 22.1 112.6 22.1 113.3 22 114.1 21.6 114.4 21.1zM117.9 21.5L117.9 13.6 119.4 13.6 119.4 21.2C119.4 21.7 119.6 22 120.1 22 120.4 22 120.7 21.9 120.8 21.7L121.2 22.8C120.9 23 120.5 23.2 119.8 23.2 118.5 23.3 117.9 22.7 117.9 21.5zM122.3 21.5L122.3 17.5 121.2 17.5 121.2 16.2 122.3 16.2 122.3 14.3 123.8 14.3 123.8 16.2 125.2 16.2 125.2 17.5 123.8 17.5 123.8 21.1C123.8 21.6 124 21.9 124.5 21.9 124.8 21.9 125 21.8 125.2 21.6L125.6 22.7C125.3 22.9 124.9 23.1 124.2 23.1 122.9 23.3 122.3 22.7 122.3 21.5zM131.4 23.2L131.4 22.3C130.9 23 130.1 23.4 129.2 23.4 127.4 23.4 126.1 22.1 126.1 19.8 126.1 17.6 127.4 16.2 129.2 16.2 130.1 16.2 130.9 16.6 131.4 17.3L131.4 16.3 132.9 16.3 132.9 23.2 131.4 23.2zM131.4 21.1L131.4 18.4C131.1 17.9 130.3 17.5 129.6 17.5 128.4 17.5 127.6 18.5 127.6 19.8 127.6 21.1 128.4 22.1 129.6 22.1 130.3 22 131.1 21.6 131.4 21.1zM134.3 22.2L135 21.1C135.5 21.6 136.4 22.1 137.3 22.1 138.2 22.1 138.7 21.7 138.7 21.2 138.7 19.8 134.5 20.8 134.5 18.1 134.5 17 135.5 16 137.2 16 138.4 16 139.3 16.4 139.9 17L139.3 18.1C138.9 17.6 138.1 17.3 137.2 17.3 136.4 17.3 135.9 17.7 135.9 18.2 135.9 19.4 140.1 18.5 140.1 21.3 140.1 22.5 139.1 23.5 137.2 23.5 136.1 23.3 135 23 134.3 22.2zM150 23.2L150 18.9C150 17.8 149.4 17.5 148.6 17.5 147.8 17.5 147.2 18 146.8 18.4L146.8 23.2 145.3 23.2 145.3 16.3 146.8 16.3 146.8 17.2C147.3 16.7 148.2 16.1 149.3 16.1 150.8 16.1 151.5 16.9 151.5 18.3L151.5 23.2 150 23.2zM158.4 23.2L158.4 22.3C157.9 23 157.1 23.4 156.2 23.4 154.4 23.4 153.1 22.1 153.1 19.8 153.1 17.6 154.4 16.2 156.2 16.2 157.1 16.2 157.9 16.6 158.4 17.3L158.4 16.3 159.9 16.3 159.9 23.2 158.4 23.2zM158.4 21.1L158.4 18.4C158.1 17.9 157.3 17.5 156.6 17.5 155.4 17.5 154.6 18.5 154.6 19.8 154.6 21.1 155.4 22.1 156.6 22.1 157.3 22 158 21.6 158.4 21.1zM170.2 23.2L170.2 18.8C170.2 17.7 169.7 17.4 168.8 17.4 168 17.4 167.4 17.9 167 18.3L167 23.1 165.5 23.1 165.5 13.5 167 13.5 167 17.1C167.5 16.6 168.3 16 169.4 16 170.9 16 171.6 16.8 171.6 18.2L171.6 23.1 170.2 23.1 170.2 23.2zM173.1 20.3L173.1 19 176.5 19 176.5 20.3 173.1 20.3zM184.8 23.2L184.1 21.4 179.7 21.4 179 23.2 177 23.2 180.8 13.6 182.9 13.6 186.7 23.2 184.8 23.2zM181.9 15.3L180.2 19.9 183.6 19.9 181.9 15.3zM187.7 21.5L187.7 13.6 189.2 13.6 189.2 21.2C189.2 21.7 189.4 22 189.9 22 190.2 22 190.5 21.9 190.6 21.7L191 22.8C190.7 23 190.3 23.2 189.6 23.2 188.3 23.3 187.7 22.7 187.7 21.5zM191.8 23.2L191.8 13.6 193.3 13.6 193.3 17.2C193.9 16.5 194.7 16.1 195.5 16.1 197.3 16.1 198.6 17.5 198.6 19.7 198.6 22 197.3 23.3 195.5 23.3 194.6 23.3 193.8 22.9 193.3 22.2L193.3 23.1 191.8 23.1 191.8 23.2zM195.1 22C196.3 22 197.1 21 197.1 19.7 197.1 18.4 196.3 17.4 195.1 17.4 194.4 17.4 193.7 17.8 193.3 18.3L193.3 21.1C193.6 21.6 194.3 22 195.1 22zM205 23.2L205 22.3C204.5 23 203.7 23.4 202.8 23.4 201 23.4 199.7 22.1 199.7 19.8 199.7 17.6 201 16.2 202.8 16.2 203.7 16.2 204.5 16.6 205 17.3L205 16.3 206.5 16.3 206.5 23.2 205 23.2zM205 21.1L205 18.4C204.7 17.9 203.9 17.5 203.2 17.5 202 17.5 201.2 18.5 201.2 19.8 201.2 21.1 202 22.1 203.2 22.1 203.9 22 204.6 21.6 205 21.1zM72.2 36.8L72.9 35.7C73.5 36.3 74.2 36.6 75.1 36.6 76.1 36.6 77.2 36.1 77.2 34.7L77.2 33.9C76.7 34.6 75.9 35.1 75 35.1 73.2 35.1 71.9 33.8 71.9 31.5 71.9 29.2 73.2 27.9 75 27.9 75.9 27.9 76.7 28.3 77.2 29L77.2 28 78.7 28 78.7 34.6C78.7 37.1 76.8 37.8 75.1 37.8 74 37.9 73.1 37.6 72.2 36.8zM77.2 32.8L77.2 30.2C76.9 29.7 76.1 29.3 75.4 29.3 74.2 29.3 73.4 30.2 73.4 31.5 73.4 32.8 74.2 33.7 75.4 33.7 76.1 33.7 76.9 33.3 77.2 32.8zM80.3 31.6C80.3 29.6 81.6 28 83.9 28 86.1 28 87.5 29.6 87.5 31.6 87.5 33.6 86.2 35.2 83.9 35.2 81.6 35.2 80.3 33.6 80.3 31.6zM85.8 31.6C85.8 30.4 85.1 29.3 83.8 29.3 82.5 29.3 81.8 30.4 81.8 31.6 81.8 32.8 82.5 33.9 83.8 33.9 85.1 33.9 85.8 32.8 85.8 31.6zM90.7 35L87.9 28.1 89.5 28.1 91.5 33.3 93.5 28.1 95.1 28.1 92.3 35 90.7 35zM95 34.2C95 33.7 95.5 33.2 96 33.2 96.5 33.2 97 33.7 97 34.2 97 34.7 96.5 35.2 96 35.2 95.5 35.2 95 34.7 95 34.2zM98.1 34.1L98.8 33C99.3 33.5 100.2 34 101.1 34 102 34 102.5 33.6 102.5 33.1 102.5 31.7 98.3 32.7 98.3 30 98.3 28.9 99.3 27.9 101 27.9 102.2 27.9 103.1 28.3 103.7 28.9L103.1 30C102.7 29.5 101.9 29.2 101 29.2 100.2 29.2 99.7 29.6 99.7 30.1 99.7 31.3 103.9 30.4 103.9 33.2 103.9 34.4 102.9 35.4 101 35.4 99.9 35.2 98.9 34.8 98.1 34.1zM105.1 31.6C105.1 29.5 106.6 28 108.7 28 110.1 28 110.9 28.6 111.4 29.2L110.4 30.1C110 29.6 109.5 29.3 108.8 29.3 107.6 29.3 106.7 30.2 106.7 31.6 106.7 32.9 107.5 33.9 108.8 33.9 109.5 33.9 110 33.6 110.4 33.1L111.4 34C110.9 34.6 110.1 35.2 108.7 35.2 106.6 35.2 105.1 33.7 105.1 31.6zM112.2 31.6C112.2 29.6 113.5 28 115.8 28 118.1 28 119.4 29.6 119.4 31.6 119.4 33.6 118.1 35.2 115.8 35.2 113.5 35.2 112.2 33.6 112.2 31.6zM117.8 31.6C117.8 30.4 117.1 29.3 115.8 29.3 114.5 29.3 113.8 30.4 113.8 31.6 113.8 32.8 114.5 33.9 115.8 33.9 117.1 33.9 117.8 32.8 117.8 31.6zM121.2 33.4L121.2 29.4 120 29.4 120 28.1 121.1 28.1 121.1 26.2 122.6 26.2 122.6 28.1 124 28.1 124 29.4 122.6 29.4 122.6 33C122.6 33.5 122.8 33.8 123.3 33.8 123.6 33.8 123.8 33.7 124 33.5L124.4 34.6C124.1 34.8 123.7 35 123 35 121.8 35.2 121.2 34.6 121.2 33.4z"/>
  </g>
</svg>
